<svg xmlns="http://www.w3.org/2000/svg" xmlns:xlink="http://www.w3.org/1999/xlink" version="1.1" class="marks" width="656" height="496" viewBox="0 0 656 496"><rect width="656" height="496" fill="white"/><g fill="none" stroke-miterlimit="10" transform="translate(44,30)"><g class="mark-group role-frame root" role="graphics-object" aria-roledescription="group mark container"><g transform="translate(0,0)"><path class="background" aria-hidden="true" d="M0.5,0.5h600v400h-600Z" stroke="#ddd"/><g><g class="mark-group role-axis" aria-hidden="true"><g transform="translate(0.5,0.5)"><path class="background" aria-hidden="true" d="M0,0h0v0h0Z" pointer-events="none"/><g><g class="mark-rule role-axis-grid" pointer-events="none"><line transform="translate(0,400)" x2="600" y2="0" stroke="#ddd" stroke-width="1" opacity="1"/><line transform="translate(0,360)" x2="600" y2="0" stroke="#ddd" stroke-width="1" opacity="1"/><line transform="translate(0,320)" x2="600" y2="0" stroke="#ddd" stroke-width="1" opacity="1"/><line transform="translate(0,280)" x2="600" y2="0" stroke="#ddd" stroke-width="1" opacity="1"/><line transform="translate(0,240)" x2="600" y2="0" stroke="#ddd" stroke-width="1" opacity="1"/><line transform="translate(0,200)" x2="600" y2="0" stroke="#ddd" stroke-width="1" opacity="1"/><line transform="translate(0,160)" x2="600" y2="0" stroke="#ddd" stroke-width="1" opacity="1"/><line transform="translate(0,120)" x2="600" y2="0" stroke="#ddd" stroke-width="1" opacity="1"/><line transform="translate(0,80)" x2="600" y2="0" stroke="#ddd" stroke-width="1" opacity="1"/><line transform="translate(0,40)" x2="600" y2="0" stroke="#ddd" stroke-width="1" opacity="1"/><line transform="translate(0,0)" x2="600" y2="0" stroke="#ddd" stroke-width="1" opacity="1"/></g></g><path class="foreground" aria-hidden="true" d="" pointer-events="none" display="none"/></g></g><g class="mark-group role-axis" role="graphics-symbol" aria-roledescription="axis" aria-label="X-axis for a discrete scale with 14 values: Australia, China, Hong Kong, India, Indonesia, ending with Vietnam"><g transform="translate(0.5,400.5)"><path class="background" aria-hidden="true" d="M0,0h0v0h0Z" pointer-events="none"/><g><g class="mark-rule role-axis-tick" pointer-events="none"><line transform="translate(21,0)" x2="0" y2="5" stroke="#888" stroke-width="1" opacity="1"/><line transform="translate(64,0)" x2="0" y2="5" stroke="#888" stroke-width="1" opacity="1"/><line transform="translate(107,0)" x2="0" y2="5" stroke="#888" stroke-width="1" opacity="1"/><line transform="translate(150,0)" x2="0" y2="5" stroke="#888" stroke-width="1" opacity="1"/><line transform="translate(192,0)" x2="0" y2="5" stroke="#888" stroke-width="1" opacity="1"/><line transform="translate(235,0)" x2="0" y2="5" stroke="#888" stroke-width="1" opacity="1"/><line transform="translate(278,0)" x2="0" y2="5" stroke="#888" stroke-width="1" opacity="1"/><line transform="translate(321,0)" x2="0" y2="5" stroke="#888" stroke-width="1" opacity="1"/><line transform="translate(364,0)" x2="0" y2="5" stroke="#888" stroke-width="1" opacity="1"/><line transform="translate(407,0)" x2="0" y2="5" stroke="#888" stroke-width="1" opacity="1"/><line transform="translate(450,0)" x2="0" y2="5" stroke="#888" stroke-width="1" opacity="1"/><line transform="translate(492,0)" x2="0" y2="5" stroke="#888" stroke-width="1" opacity="1"/><line transform="translate(535,0)" x2="0" y2="5" stroke="#888" stroke-width="1" opacity="1"/><line transform="translate(578,0)" x2="0" y2="5" stroke="#888" stroke-width="1" opacity="1"/></g><g class="mark-text role-axis-label" pointer-events="none"><text text-anchor="start" transform="translate(20.928571428571452,15) rotate(40) translate(0,8)" font-family="sans-serif" font-size="10px" fill="#000" opacity="1">Australia</text><text text-anchor="start" transform="translate(63.785714285714306,15) rotate(40) translate(0,8)" font-family="sans-serif" font-size="10px" fill="#000" opacity="1">China</text><text text-anchor="start" transform="translate(106.64285714285717,15) rotate(40) translate(0,8)" font-family="sans-serif" font-size="10px" fill="#000" opacity="1">Hong Kong</text><text text-anchor="start" transform="translate(149.5,15) rotate(40) translate(0,8)" font-family="sans-serif" font-size="10px" fill="#000" opacity="1">India</text><text text-anchor="start" transform="translate(192.35714285714286,15) rotate(40) translate(0,8)" font-family="sans-serif" font-size="10px" fill="#000" opacity="1">Indonesia</text><text text-anchor="start" transform="translate(235.21428571428572,15) rotate(40) translate(0,8)" font-family="sans-serif" font-size="10px" fill="#000" opacity="1">Japan</text><text text-anchor="start" transform="translate(278.07142857142856,15) rotate(40) translate(0,8)" font-family="sans-serif" font-size="10px" fill="#000" opacity="1">Malaysia</text><text text-anchor="start" transform="translate(320.92857142857144,15) rotate(40) translate(0,8)" font-family="sans-serif" font-size="10px" fill="#000" opacity="1">New Zealand</text><text text-anchor="start" transform="translate(363.7857142857143,15) rotate(40) translate(0,8)" font-family="sans-serif" font-size="10px" fill="#000" opacity="1">Singapore</text><text text-anchor="start" transform="translate(406.6428571428571,15) rotate(40) translate(0,8)" font-family="sans-serif" font-size="10px" fill="#000" opacity="1">South Korea</text><text text-anchor="start" transform="translate(449.5,15) rotate(40) translate(0,8)" font-family="sans-serif" font-size="10px" fill="#000" opacity="1">Sri Lanka</text><text text-anchor="start" transform="translate(492.35714285714283,15) rotate(40) translate(0,8)" font-family="sans-serif" font-size="10px" fill="#000" opacity="1">Taiwan</text><text text-anchor="start" transform="translate(535.2142857142857,15) rotate(40) translate(0,8)" font-family="sans-serif" font-size="10px" fill="#000" opacity="1">Thailand</text><text text-anchor="start" transform="translate(578.0714285714286,15) rotate(40) translate(0,8)" font-family="sans-serif" font-size="10px" fill="#000" opacity="1">Vietnam</text></g><g class="mark-rule role-axis-domain" pointer-events="none"><line transform="translate(0,0)" x2="600" y2="0" stroke="#888" stroke-width="1" opacity="1"/></g></g><path class="foreground" aria-hidden="true" d="" pointer-events="none" display="none"/></g></g><g class="mark-group role-axis" role="graphics-symbol" aria-roledescription="axis" aria-label="Y-axis titled 'Internet Speed (Mbps)' for a linear scale with values from 0 to 100"><g transform="translate(0.5,0.5)"><path class="background" aria-hidden="true" d="M0,0h0v0h0Z" pointer-events="none"/><g><g class="mark-rule role-axis-tick" pointer-events="none"><line transform="translate(0,400)" x2="-5" y2="0" stroke="#888" stroke-width="1" opacity="1"/><line transform="translate(0,360)" x2="-5" y2="0" stroke="#888" stroke-width="1" opacity="1"/><line transform="translate(0,320)" x2="-5" y2="0" stroke="#888" stroke-width="1" opacity="1"/><line transform="translate(0,280)" x2="-5" y2="0" stroke="#888" stroke-width="1" opacity="1"/><line transform="translate(0,240)" x2="-5" y2="0" stroke="#888" stroke-width="1" opacity="1"/><line transform="translate(0,200)" x2="-5" y2="0" stroke="#888" stroke-width="1" opacity="1"/><line transform="translate(0,160)" x2="-5" y2="0" stroke="#888" stroke-width="1" opacity="1"/><line transform="translate(0,120)" x2="-5" y2="0" stroke="#888" stroke-width="1" opacity="1"/><line transform="translate(0,80)" x2="-5" y2="0" stroke="#888" stroke-width="1" opacity="1"/><line transform="translate(0,40)" x2="-5" y2="0" stroke="#888" stroke-width="1" opacity="1"/><line transform="translate(0,0)" x2="-5" y2="0" stroke="#888" stroke-width="1" opacity="1"/></g><g class="mark-text role-axis-label" pointer-events="none"><text text-anchor="end" transform="translate(-7,403)" font-family="sans-serif" font-size="10px" fill="#000" opacity="1">0</text><text text-anchor="end" transform="translate(-7,363)" font-family="sans-serif" font-size="10px" fill="#000" opacity="1">10</text><text text-anchor="end" transform="translate(-7,323)" font-family="sans-serif" font-size="10px" fill="#000" opacity="1">20</text><text text-anchor="end" transform="translate(-7,283)" font-family="sans-serif" font-size="10px" fill="#000" opacity="1">30</text><text text-anchor="end" transform="translate(-7,243)" font-family="sans-serif" font-size="10px" fill="#000" opacity="1">40</text><text text-anchor="end" transform="translate(-7,203)" font-family="sans-serif" font-size="10px" fill="#000" opacity="1">50</text><text text-anchor="end" transform="translate(-7,163)" font-family="sans-serif" font-size="10px" fill="#000" opacity="1">60</text><text text-anchor="end" transform="translate(-7,123.00000000000001)" font-family="sans-serif" font-size="10px" fill="#000" opacity="1">70</text><text text-anchor="end" transform="translate(-7,82.99999999999999)" font-family="sans-serif" font-size="10px" fill="#000" opacity="1">80</text><text text-anchor="end" transform="translate(-7,42.99999999999999)" font-family="sans-serif" font-size="10px" fill="#000" opacity="1">90</text><text text-anchor="end" transform="translate(-7,3)" font-family="sans-serif" font-size="10px" fill="#000" opacity="1">100</text></g><g class="mark-rule role-axis-domain" pointer-events="none"><line transform="translate(0,400)" x2="0" y2="-400" stroke="#888" stroke-width="1" opacity="1"/></g><g class="mark-text role-axis-title" pointer-events="none"><text text-anchor="middle" transform="translate(-27.6845703125,200) rotate(-90) translate(0,-2)" font-family="sans-serif" font-size="11px" font-weight="bold" fill="#000" opacity="1">Internet Speed (Mbps)</text></g></g><path class="foreground" aria-hidden="true" d="" pointer-events="none" display="none"/></g></g><g class="mark-rect role-mark marks" role="graphics-object" aria-roledescription="rect mark container"><path aria-label="Country: Australia; Speed: 79.24" role="graphics-symbol" aria-roledescription="bar" d="M2.142857142857167,83.04h38.57142857142857v316.96h-38.57142857142857Z" fill="#4c78a8"/><path aria-label="Country: China; Speed: 78.61" role="graphics-symbol" aria-roledescription="bar" d="M45.00000000000002,85.55999999999999h38.57142857142857v314.44h-38.57142857142857Z" fill="#4c78a8"/><path aria-label="Country: Hong Kong; Speed: 43.88" role="graphics-symbol" aria-roledescription="bar" d="M87.85714285714288,224.47999999999996h38.57142857142857v175.52000000000004h-38.57142857142857Z" fill="#4c78a8"/><path aria-label="Country: India; Speed: 13.45" role="graphics-symbol" aria-roledescription="bar" d="M130.71428571428572,346.20000000000005h38.57142857142857v53.799999999999955h-38.57142857142857Z" fill="#4c78a8"/><path aria-label="Country: Indonesia; Speed: 16.16" role="graphics-symbol" aria-roledescription="bar" d="M173.57142857142858,335.36h38.57142857142857v64.63999999999999h-38.57142857142857Z" fill="#4c78a8"/><path aria-label="Country: Japan; Speed: 40.51" role="graphics-symbol" aria-roledescription="bar" d="M216.42857142857144,237.95999999999998h38.57142857142857v162.04000000000002h-38.57142857142857Z" fill="#4c78a8"/><path aria-label="Country: Malaysia; Speed: 23.74" role="graphics-symbol" aria-roledescription="bar" d="M259.2857142857143,305.04h38.57142857142857v94.95999999999998h-38.57142857142857Z" fill="#4c78a8"/><path aria-label="Country: New Zealand; Speed: 92.05" role="graphics-symbol" aria-roledescription="bar" d="M302.14285714285717,31.800000000000004h38.57142857142857v368.2h-38.57142857142857Z" fill="#4c78a8"/><path aria-label="Country: Singapore; Speed: 68.32" role="graphics-symbol" aria-roledescription="bar" d="M345,126.72000000000003h38.57142857142857v273.28h-38.57142857142857Z" fill="#4c78a8"/><path aria-label="Country: South Korea; Speed: 98.93" role="graphics-symbol" aria-roledescription="bar" d="M387.85714285714283,4.279999999999973h38.57142857142857v395.72h-38.57142857142857Z" fill="#4c78a8"/><path aria-label="Country: Sri Lanka; Speed: 12.6" role="graphics-symbol" aria-roledescription="bar" d="M430.7142857142857,349.6h38.57142857142857v50.39999999999998h-38.57142857142857Z" fill="#4c78a8"/><path aria-label="Country: Taiwan; Speed: 51.67" role="graphics-symbol" aria-roledescription="bar" d="M473.57142857142856,193.32h38.57142857142857v206.68h-38.57142857142857Z" fill="#4c78a8"/><path aria-label="Country: Thailand; Speed: 31.38" role="graphics-symbol" aria-roledescription="bar" d="M516.4285714285713,274.48h38.57142857142857v125.51999999999998h-38.57142857142857Z" fill="#4c78a8"/><path aria-label="Country: Vietnam; Speed: 35.33" role="graphics-symbol" aria-roledescription="bar" d="M559.2857142857142,258.68h38.57142857142857v141.32h-38.57142857142857Z" fill="#4c78a8"/></g><g class="mark-group role-title"><g transform="translate(300,-25)"><path class="background" aria-hidden="true" d="M0,0h0v0h0Z" pointer-events="none"/><g><g class="mark-text role-title-text" role="graphics-symbol" aria-roledescription="title" aria-label="Title text 'Global Internet Speed (Mbps)'" pointer-events="none"><text text-anchor="middle" transform="translate(0,13)" font-family="sans-serif" font-size="16px" font-weight="bold" fill="#000" opacity="1">Global Internet Speed (Mbps)</text></g></g><path class="foreground" aria-hidden="true" d="" pointer-events="none" display="none"/></g></g></g><path class="foreground" aria-hidden="true" d="" display="none"/></g></g></g></svg>