<svg xmlns="http://www.w3.org/2000/svg" xmlns:xlink="http://www.w3.org/1999/xlink" version="1.1" class="marks" width="602" height="603" viewBox="0 0 602 603"><rect width="602" height="603" fill="white"/><g fill="none" stroke-miterlimit="10" transform="translate(1,103)"><g class="mark-group role-frame root" role="graphics-object" aria-roledescription="group mark container"><g transform="translate(0,0)"><path class="background" aria-hidden="true" d="M0,0h600v500h-600Z"/><g><g class="mark-shape role-mark layer_0_marks" role="graphics-object" aria-roledescription="shape mark container"><path aria-label="value: 3001" role="graphics-symbol" aria-roledescription="geoshape" transform="translate(0,0)" d="M356.27,215.264L352.917,219.1L354.719,220.934L357.401,221.546L355.599,223.907L355.515,228.706L350.444,229.802L347.426,229.437L345.33,230.574L345.037,227.893L342.648,225.169L341.767,226.064L339.378,223.338L336.947,223.012L334.852,226.552L332.462,228.909L333.049,230.127L331.54,232.157L328.858,230.939L327.978,231.832L325.295,231.791L321.691,229.965L317.793,230.249L315.99,231.386L313.014,231.67L313.35,235.522L310.667,237.587L305.637,240.5L302.62,238.397L300.524,238.68L297.883,240.419L295.788,238.639L292.183,238.316L290.423,239.489L288.327,238.599L283.255,238.599L281.495,240.338L280.95,243.289L278.896,245.065L280.154,248.01L274.495,247.405L273.322,250.066L269.508,250.952L268.627,252.119L266.532,251.274L264.813,253.326L260.035,251.918L262.047,249.864L261.041,244.581L259.49,242.238L256.514,239.934L256.724,237.587L253.454,236.453L253.413,234.387L252.155,232.643L252.407,230.574L249.724,229.153L251.107,226.145L249.556,223.541L249.473,221.138L252.323,216.897L252.239,214.201L253.203,216.897L259.071,214.692L260.412,209.58L263.723,209.826L264.352,211.299L266.699,209.498L267.37,212.158L272.525,213.016L276.633,208.229L279.357,209.744L281.746,207.942L283.255,207.942L284.806,209.744L286.902,208.843L289.333,209.171L292.015,208.27L292.267,205.565L294.991,204.991L294.949,203.514L297.045,202.324L299.099,196.323L301.446,191.792L301.698,189.069L301.069,186.344L301.32,183.657L304.632,181.547L307.063,180.967L304.548,176.366L308.236,175.786L309.452,176.74L308.865,179.144L309.2,181.588L310.458,183.119L313.182,182.54L315.362,183.45L318.715,183.491L321.439,178.647L325.379,177.777L324.75,174.748L325.044,171.383L326.888,169.887L328.103,165.307L329.948,165.641L331.792,164.432L334.558,168.139L336.738,169.055L337.66,173.959L342.228,178.564L342.228,182.498L340.384,182.788L342.522,185.517L346.755,188.285L347.049,191.916L349.773,192.864L352.204,195.335L353.378,198.38L353.378,200.188L350.611,203.76L351.198,207.369L353,209.785L349.983,209.744L344.24,207.573L343.318,209.948L345.121,212.076L350.234,214.855L352.665,214.896L353.545,216.121Z" fill="rgb(138, 190, 221)" stroke="white" stroke-opacity="0.3" stroke-width="0.5"/><path aria-label="value: 1776" role="graphics-symbol" aria-roledescription="geoshape" transform="translate(0,0)" d="M374.502,51.098L373.245,55.635L371.107,59.293L372.323,62.164L375.341,65.812L377.185,66.159L377.185,68.372L375.047,68.978L373.496,67.981L371.652,69.758L374.502,71.664L373.413,74.217L369.85,73.871L365.91,76.984L365.868,79.876L364.233,82.076L366.413,86.555L365.114,88.448L367.67,93.173L366.706,97.289L365.449,97.589L364.778,100.414L365.114,103.877L363.521,104.176L363.185,110.405L362.221,112.918L360,114.45L360.922,116.024L359.958,117.851L363.73,120.398L364.024,122.265L363.06,124.426L368.048,126.332L368.341,128.829L366.748,130.351L367,135.291L368.509,136.851L365.994,139.294L366.581,141.146L364.736,142.072L364.359,146.695L363.395,149.422L362.138,151.56L358.365,153.989L356.815,156.416L353.713,157.628L344.743,157.837L343.821,155.37L340.72,155.035L338.875,154.115L336.402,158.088L333.007,158.339L330.828,157.085L328.942,154.617L328.648,152.188L329.864,147.912L327.056,147.87L325.798,145.393L322.026,143.207L320.475,144.426L320.517,146.905L317.415,146.569L314.942,149.003L311.841,148.038L309.368,149.883L306.56,147.702L305.009,148.625L302.829,147.66L300.901,144.258L301.404,139.673L298.512,136.26L295.704,135.586L288.872,135.586L285.393,133.687L286.189,130.012L283.339,128.152L281.956,123.155L280.028,121.629L277.597,121.629L276.926,120.356L277.765,117.256L276.465,113.812L277.932,112.578L278.435,108.786L280.196,108.231L280.74,106.055L282.501,105.201L281.118,99.045L278.226,92.744L279.483,90.811L277.974,87.889L279.525,87.244L281.411,84.575L283.842,78.452L284.303,75.903L287.656,74.261L287.447,72.357L289.291,70.278L291.932,70.105L292.267,65.508L295.788,65.508L297.59,64.597L301.698,67.114L304.087,64.38L308.613,62.294L310.164,63.25L316.535,63.554L320.727,64.553L322.403,63.902L325.421,65.205L324.541,67.764L327.81,67.504L329.487,68.502L334.055,66.637L337.031,64.77L338.75,62.207L338.037,56.986L340.258,56.027L339.001,51.535L344.743,51.666L347.719,53.368L350.569,56.027L351.911,55.112L356.312,54.938L357.276,56.55L359.539,55.417L362.766,52.277L366.203,51.447L368.383,49.788L371.736,51.404Z" fill="rgb(170, 207, 230)" stroke="white" stroke-opacity="0.3" stroke-width="0.5"/><path aria-label="value: 1376" role="graphics-symbol" aria-roledescription="geoshape" transform="translate(0,0)" d="M115.431,242.764L118.156,243.491L120.796,243.046L125.072,247.244L126.706,245.671L132.826,246.8L132.7,248.897L133.706,250.307L137.269,249.824L139.783,251.153L142.382,249.824L144.813,250.307L146.28,253.487L148.418,253.97L149.508,252.441L151.897,252.28L151.687,250.186L152.777,248.897L155.711,248.373L157.848,249.34L158.896,247.809L164.513,248.857L166.189,247.284L168.578,248.292L168.746,245.913L171.47,246.639L173.482,245.025L176.249,246.962L176.668,251.113L178.764,253.407L176.458,255.458L173.692,256.101L171.806,254.533L170.506,257.427L166.064,257.467L164.177,256.181L161.16,258.351L158.645,258.11L157.094,255.337L151.98,256.864L155.375,259.595L155.082,261.962L150.765,259.234L150.22,261.2L147.454,264.406L145.065,266.369L143.598,265.528L139.322,267.569L138.107,270.128L133.454,277.113L127.167,277.751L125.994,277.472L121.383,279.065L115.473,279.384L104.282,280.897L102.145,281.573L101.264,284.278L98.414,288.448L94.893,289.836L92.421,289.916L94.81,285.51L94.893,284.317L92.798,282.21L91.54,279.663L91.247,277.033L92.379,273.683L94.265,271.766L94.055,269.729L96.654,268.969L99.085,263.485L101.097,262.764L105.875,257.186L108.432,256.101L111.952,255.9L115.892,256.824L114.384,253.407L114.719,250.75L113.881,245.186Z" fill="rgb(180, 211, 233)" stroke="white" stroke-opacity="0.3" stroke-width="0.5"/><path aria-label="value: 0" role="graphics-symbol" aria-roledescription="geoshape" transform="translate(0,0)" d="M395.417,373.393L395.837,371.625L400.531,372.586L404.429,372.624L407.698,369.087L410.758,371.318L412.099,368.433L414.069,370.049L413.902,372.394L410.129,372.048L408.914,372.97L408.746,374.929L410.842,377.269L413.524,376.425L415.578,373.47L415.243,370.164L417.883,369.703L421.53,371.433L423.29,379.761L425.889,386.191L428.11,390.393L433.517,397.558L436.074,401.324L440.307,405.729L442.696,407.322L445.211,407.209L448.942,405.729L450.367,405.919L451.54,403.033L454.642,400.563L456.612,403.261L459.672,404.59L462.187,402.73L461.977,401.324L463.989,400.031L467.635,399.346L471.533,399.537L473.964,400.753L475.934,400.259L477.234,401.704L479.497,400.905L481.006,403.185L479.874,405.198L477.904,405.425L473.755,408.801L474.3,409.976L473.461,413.686L475.012,418.449L472.414,419.657L469.605,419.468L467.552,420.714L461.893,419.77L458.959,421.506L455.732,422.11L454.852,420.337L451.624,417.467L446.93,415.312L444.625,415.464L441.439,417.127L439.343,420.223L440.265,421.921L437.541,423.241L434.859,423.505L434.817,425.502L431.547,426.594L429.368,431.146L427.188,429.454L424.757,428.853L422.787,429.906L417.297,430.056L408.872,434.452L406.86,436.666L405.435,440.64L402.04,444.645L399.525,445.056L397.806,448.196L391.729,450.026L390.304,449.428L386.448,450.212L386.699,449.652L391.1,448.009L388.921,443.598L386.783,444.832L384.017,443.972L382.508,440.715L385.316,439.104L385.987,436.629L384.394,435.203L380.873,435.391L380.664,433.438L382.382,431.56L379.993,430.62L379.28,428.664L380.747,425.69L380.412,420.714L378.694,416.749L376.933,413.875L374.46,412.059L370.185,413.913L367.293,412.399L361.718,407.398L361.718,405.501L357.024,404.514L352.036,404.552L348.432,407.019L342.983,405.425L342.438,403.451L344.743,400.449L348.222,398.053L352.581,395.883L354.593,395.883L357.192,391.766L361.216,389.247L365.533,387.261L365.784,385.618L368.676,386.076L372.993,383.973L374.167,382.825L378.903,381.217L380.706,379.455L383.053,378.918L384.939,376.963L381.292,376.425L380.664,374.084L380.496,369.087L382.089,365.044L385.107,367.124L387.538,366.508L389.633,367.355L392.609,369.741L393.196,371.318L394.914,371.741Z" fill="rgb(207, 225, 242)" stroke="white" stroke-opacity="0.3" stroke-width="0.5"/><path aria-label="value: 7076" role="graphics-symbol" aria-roledescription="geoshape" transform="translate(0,0)" d="M428.781,219.548L433.727,219.671L433.978,221.505L441.942,226.552L443.912,228.421L446.553,228.828L450.702,228.34L454.097,230.858L454.726,229.64L460.091,228.015L461.222,234.995L464.366,236.615L465.204,237.83L464.995,241.147L469.228,243.975L468.516,246.679L472.455,248.897L475.641,243.895L480.168,247.042L482.85,245.63L484.317,245.671L487.042,248.776L489.053,249.461L487.083,252.964L487.461,256.222L486.539,257.105L486.539,261.561L488.299,261.32L489.682,262.563L490.562,267.009L488.467,267.849L489.598,273.164L488.299,274.88L485.449,274.202L481.551,272.006L479.497,272.845L479.707,279.026L481.299,280.817L478.365,281.892L479.623,284.874L475.515,286.503L472.707,285.589L471.198,286.701L467.51,286.344L467.007,284.874L464.659,285.669L464.031,281.255L463.192,281.255L461.809,275L460.342,275.239L459.294,273.164L454.6,274.8L454.39,273.004L452.085,272.964L450.995,271.127L445.672,274.242L439.679,272.326L437.96,271.367L435.11,271.287L429.577,272.326L427.775,273.763L425.176,273.683L422.494,275.678L422.955,279.265L420.775,283.045L423.248,286.344L422.829,289.598L424.841,289.36L424.715,291.7L423.206,294.037L424.254,296.412L423.877,299.061L424.632,301.431L422.578,301.944L419.141,301.865L415.494,299.97L412.644,299.891L403.381,302.221L398.435,303.799L393.741,305.061L390.975,301.747L387.16,302.734L381.921,303.365L379.951,301.826L379.783,297.48L376.849,297.915L376.514,299.93L375.005,301.313L372.658,301.51L371.736,303.207L367.712,300.72L367.167,299.259L363.395,298.231L363.437,297.361L359.958,296.372L359.455,291.462L360.629,290.312L362.683,290.392L362.473,286.026L363.437,281.693L361.09,281.335L361.425,277.83L366.203,274.162L370.353,272.565L371.275,270.208L375.718,268.889L379.616,266.369L377.897,264.246L376.766,260.959L377.436,257.748L377.311,250.348L383.556,248.736L386.867,246.72L386.909,244.056L384.31,241.915L382.508,241.834L381.083,240.015L383.514,237.385L387.663,238.113L388.837,239.327L390.681,235.805L391.352,232.806L393.406,234.346L395.459,234.711L398.687,236.615L399.525,238.72L401.872,239.368L403.884,240.905L405.728,239.165L404.597,236.737L406.147,234.995L404.722,232.846L406.692,226.877L408.537,224.518L413.566,224.64L414.237,221.912L418.428,221.138L419.686,219.018L422.075,217.876L427.063,218.611Z" fill="rgb(40, 119, 183)" stroke="white" stroke-opacity="0.3" stroke-width="0.5"/><path aria-label="value: 933" role="graphics-symbol" aria-roledescription="geoshape" transform="translate(0,0)" d="M561.565,283.363L557.248,283.085L554.23,283.801L551.757,292.175L548.781,291.541L548.362,293.205L546.476,294.473L541.53,294.473L541.865,295.858L538.68,295.779L536.668,298.231L535.997,300.246L536.71,303.641L536.249,307.347L534.74,307.741L533.818,310.418L537.171,311.047L537.464,313.367L534.53,314.585L534.153,319.53L530.968,322.273L529.584,320.275L527.237,321.294L523.255,320.314L516.507,322.038L512.483,321.294L510.052,322.548L507.37,327.321L503.514,331.969L502.885,329.548L500.747,328.454L498.023,330.212L495.131,331.344L494.125,329.548L494.796,328.142L497.73,326.696L497.059,324.309L493.245,321.764L493.119,319.726L489.012,316.706L491.946,315.685L490.856,310.457L494.544,311.205L496.975,309.591L496.808,308.174L499.448,307.15L501.46,303.523L498.275,303.602L495.76,302.023L493.664,299.338L491.401,298.35L489.892,299.456L487.251,295.898L484.191,294.314L482.263,288.726L479.413,288.051L479.623,284.874L478.365,281.892L481.299,280.817L479.707,279.026L479.497,272.845L481.551,272.006L485.449,274.202L488.299,274.88L489.598,273.164L488.467,267.849L490.562,267.009L489.682,262.563L488.299,261.32L486.539,261.561L486.539,257.105L487.461,256.222L487.083,252.964L489.053,249.461L487.042,248.776L484.317,245.671L483.353,242.36L484.275,241.794L482.724,237.83L490.479,236.656L492.742,237.628L495.927,234.184L498.023,234.306L500.915,230.858L503.388,229.193L503.22,227.405L505.693,226.023L506.196,223.663L510.136,222.727L509.675,220.894L512.441,219.589L511.729,216.815L510.346,215.509L512.274,213.834L514.956,213.997L519.315,215.223L521.705,215.1L522.166,213.302L524.345,215.876L523.297,217.958L525.016,218.978L529.123,219.875L528.243,223.134L529.249,225.657L526.608,228.746L533.399,229.274L533.315,234.103L535.578,235.481L534.488,237.79L536.081,240.298L535.913,242.4L533.734,243.733L536.039,251.676L535.327,253.125L536.668,254.694L540.105,255.578L540.272,257.387L542.2,258.993L540.021,260.317L539.769,262.964L544.464,263.044L545.931,266.128L545.805,267.929L548.027,269.289L552.93,270.568L553.643,275.638L560.894,276.196L560.936,278.548L561.984,279.185Z" fill="rgb(190, 216, 236)" stroke="white" stroke-opacity="0.3" stroke-width="0.5"/><path aria-label="value: 2333" role="graphics-symbol" aria-roledescription="geoshape" transform="translate(0,0)" d="M84.96,201.092L86.636,206.385L88.187,206.836L89.277,208.884L88.271,210.767L88.774,212.812L90.744,215.059L89.193,217.264L91.247,220.078L93.678,220.486L92.965,222.645L91.373,224.274L95.69,226.308L97.786,226.43L98.456,229.965L101.977,229.721L102.773,234.995L103.863,236.98L105.875,233.008L108.809,232.522L109.27,234.549L112.749,236.413L115.683,239.165L115.431,242.764L113.881,245.186L114.719,250.75L114.384,253.407L115.892,256.824L111.952,255.9L108.432,256.101L105.875,257.186L101.097,262.764L99.085,263.485L96.654,268.969L94.055,269.729L94.265,271.766L92.379,273.683L91.247,277.033L91.54,279.663L92.798,282.21L94.893,284.317L94.81,285.51L92.421,289.916L91.163,290.154L89.109,285.708L84.96,283.92L83.786,281.016L80.517,278.269L80.224,274.92L81.816,273.643L81.271,271.367L78.715,269.009L77.918,267.049L79.092,264.326L77.206,263.325L77.29,261.28L73.14,257.869L71.757,255.98L70.248,258.19L67.524,257.306L66.098,255.096L66.098,249.502L61.236,250.952L59.769,253.447L57.925,252.522L58.093,248.655L56.039,248.897L54.069,246.76L53.524,244.42L50.926,244.742L48.453,241.188L46.315,240.258L46.86,237.506L46.315,235.198L46.399,230.696L47.95,226.023L50.59,223.297L50.465,221.831L52.937,220.038L54.488,220.731L58.386,220.894L60.272,219.141L62.2,220.445L63.206,218.814L69.158,218.774L70.835,217.427L74.02,216.815L72.637,211.83L73.978,210.194L74.9,207.41L73.433,204.499L74.817,203.76L74.23,200.805L75.99,200.353L77.29,198.421L80.056,199.407L82.277,201.01Z" fill="rgb(156, 200, 226)" stroke="white" stroke-opacity="0.3" stroke-width="0.5"/><path aria-label="value: 4148" role="graphics-symbol" aria-roledescription="geoshape" transform="translate(0,0)" d="M527.489,179.269L528.83,181.298L526.902,183.285L527.992,184.897L525.77,186.303L525.058,188.12L527.363,189.193L527.405,192.287L524.848,194.264L523.926,198.174L522.417,198.709L521.537,202.324L523.004,202.693L523.13,208.515L525.1,210.194L524.974,211.667L522.166,213.302L521.705,215.1L519.315,215.223L514.956,213.997L512.274,213.834L510.346,215.509L511.729,216.815L512.441,219.589L509.675,220.894L510.136,222.727L506.196,223.663L505.693,226.023L503.22,227.405L503.388,229.193L500.915,230.858L498.023,234.306L495.927,234.184L492.742,237.628L490.479,236.656L482.724,237.83L484.275,241.794L483.353,242.36L484.317,245.671L482.85,245.63L480.168,247.042L475.641,243.895L472.455,248.897L468.516,246.679L469.228,243.975L464.995,241.147L465.204,237.83L464.366,236.615L461.222,234.995L460.091,228.015L454.726,229.64L454.097,230.858L450.702,228.34L446.553,228.828L443.912,228.421L441.942,226.552L433.978,221.505L433.727,219.671L428.781,219.548L427.188,215.264L427.565,212.239L428.823,210.44L430.541,211.994L434.607,212.403L437.625,210.358L440.433,206.795L439.93,204.622L438.212,203.35L438.882,201.256L443.577,202.283L443.66,200.435L441.313,200.065L441.062,198.256L443.744,198.297L442.696,194.882L441.02,192.41L436.284,191.668L434.9,189.193L434.188,184.277L432.469,182.705L429.829,182.623L426.601,181.34L423.709,178.854L423.165,176.657L424.464,173.918L426.308,172.09L425.554,167.764L427.063,165.932L429.787,165.057L432.847,162.597L435.487,163.848L437.709,159.843L440.727,158.631L443.409,159.926L444.625,158.673L448.606,156.625L450.995,156.667L453.636,154.449L454.39,151.937L457.827,152.147L459.169,151.35L462.396,151.225L465.079,151.979L466.001,153.78L468.977,156.332L470.402,160.051L472.707,159.968L474.174,158.464L476.312,158.339L479.749,162.973L481.844,163.431L483.563,160.97L489.095,157.712L490.688,157.294L494.921,157.963L498.694,157.168L502.885,155.286L504.31,153.445L506.741,153.989L509.508,153.026L509.13,156.959L512.232,159.467L514.621,159.467L513.908,163.848L514.831,166.14L518.393,170.302L524.177,172.838L524.638,174.291L527.95,177.569Z" fill="rgb(106, 172, 212)" stroke="white" stroke-opacity="0.3" stroke-width="0.5"/><path aria-label="value: 323" role="graphics-symbol" aria-roledescription="geoshape" transform="translate(0,0)" d="M350.36,372.509L352.875,373.162L355.431,371.817L357.988,372.74L357.988,374.122L354.593,373.738ZM410.129,372.048L413.902,372.394L414.069,370.049L412.099,368.433L410.758,371.318L407.698,369.087L404.429,372.624L400.531,372.586L395.837,371.625L395.417,373.393L394.914,371.741L393.196,371.318L392.609,369.741L389.633,367.355L387.538,366.508L385.107,367.124L382.089,365.044L380.496,369.087L378.778,368.702L376.808,370.818L374.293,372.125L371.191,369.164L365.575,367.625L363.856,368.972L361.341,367.201L359.916,369.703L357.695,369.895L352.33,368.895L347.552,369.587L344.743,371.126L341.935,370.741L334.055,367.856L333.804,365.044L330.157,363.734L329.025,361.728L319.218,360.03L320.894,357.481L325.756,357.365L326.888,356.863L328.187,354.117L328.02,352.375L325.086,353.15L324.038,351.678L319.176,350.09L316.745,352.22L312.847,347.337L318.17,347.531L324.205,349.121L327.559,350.4L333.259,350.284L334.055,351.175L337.157,351.291L337.576,347.337L335.941,345.862L331.959,347.415L331.457,345.707L327.307,342.989L330.451,341.706L330.786,339.45L333.091,338.127L334.81,336.18L336.78,335.089L339.043,336.297L340.217,334.348L343.025,334.153L345.288,335.089L345.623,333.373L350.444,333.88L351.282,335.05L355.012,334.933L359.036,333.958L358.826,331.11L359.246,326.852L361.844,327.79L363.311,325.874L357.946,321.921L359.79,318.55L362.683,317.53L364.485,315.606L366.245,315.096L363.73,311.244L364.904,310.418L364.988,306.125L364.485,302.063L363.395,298.231L367.167,299.259L367.712,300.72L371.736,303.207L372.658,301.51L375.005,301.313L376.514,299.93L376.849,297.915L379.783,297.48L379.951,301.826L381.921,303.365L387.16,302.734L390.975,301.747L393.741,305.061L398.435,303.799L401.788,306.559L402.501,310.378L403.8,314.271L409.584,312.699L411.177,315.685L409.752,315.96L410.674,320.941L412.057,323.057L412.518,325.992L413.566,328.376L416.333,330.525L418.638,330.603L419.35,334.153L420.775,334.192L421.278,336.842L419.56,337.076L419.434,340.306L415.997,341.395L415.368,343.144L416.752,344.387L419.308,344.426L419.518,347.686L418.302,349.431L419.686,350.942L422.578,350.129L424.17,353.382L425.889,352.801L429.242,354.233L429.955,358.293L430.122,362.5L431.212,362.654L427.775,365.391L424.464,366.2L422.242,368.318L421.53,371.433L417.883,369.703L415.243,370.164L415.578,373.47L413.524,376.425L410.842,377.269L408.746,374.929L408.914,372.97Z" fill="rgb(201, 222, 240)" stroke="white" stroke-opacity="0.3" stroke-width="0.5"/><path aria-label="value: 2925" role="graphics-symbol" aria-roledescription="geoshape" transform="translate(0,0)" d="M167.614,145.855L167.992,147.366L171.261,149.674L169.417,154.742L172.015,156.458L172.057,157.712L174.614,158.757L174.782,160.928L178.009,163.515L180.733,161.805L180.859,164.265L183.835,167.473L181.739,168.847L181.865,170.968L183.793,171.799L181.488,174.997L179.308,174.831L180.063,177.237L179.308,180.387L181.488,180.843L182.703,185.972L185.218,186.716L188.446,188.987L186.811,193.07L188.404,193.852L186.685,196.734L187.482,199.695L186.015,201.01L189.955,211.994L189.913,217.713L187.733,216.652L186.057,219.141L182.955,218.162L181.111,218.243L180.021,220.445L177.883,219.956L177.464,223.297L175.327,223.419L173.985,226.796L174.991,228.259L173.902,230.127L174.949,233.333L174.53,242.279L173.482,245.025L171.47,246.639L168.746,245.913L168.578,248.292L166.189,247.284L164.513,248.857L158.896,247.809L157.848,249.34L155.711,248.373L152.777,248.897L151.687,250.186L151.897,252.28L149.508,252.441L148.418,253.97L146.28,253.487L144.813,250.307L142.382,249.824L138.945,248.252L138.736,245.873L135.76,242.764L136.011,238.316L134.712,237.182L136.095,235.603L134.418,233.617L134.209,227.365L134.712,226.104L133.832,222.279L134.712,217.999L134.167,214.733L135.844,212.812L135.089,210.726L134.921,204.704L134.46,202.283L132.49,200.928L134.754,198.01L134.293,195.911L136.263,193.976L136.095,191.215L134.754,190.101L135.844,188.203L133.371,183.16L134.209,182.209L132.784,179.849L132.574,176.491L134.628,175.412L134.251,170.178L136.095,170.053L135.215,166.099L137.311,165.641L140.454,162.013L144.143,161.763L148.711,156.165L149.34,156.458L153.322,150.889L153.825,148.961L157.429,147.156L160.866,147.87L161.705,146.233L165.351,144.426Z" fill="rgb(140, 191, 221)" stroke="white" stroke-opacity="0.3" stroke-width="0.5"/><path aria-label="value: 4848" role="graphics-symbol" aria-roledescription="geoshape" transform="translate(0,0)" d="M278.435,108.786L277.932,112.578L276.465,113.812L277.765,117.256L276.926,120.356L277.597,121.629L280.028,121.629L281.956,123.155L283.339,128.152L286.189,130.012L285.393,133.687L288.872,135.586L295.704,135.586L298.512,136.26L301.404,139.673L300.901,144.258L302.829,147.66L305.009,148.625L306.56,147.702L309.368,149.883L311.841,148.038L314.942,149.003L317.415,146.569L320.517,146.905L320.475,144.426L322.026,143.207L325.798,145.393L327.056,147.87L329.864,147.912L328.648,152.188L328.942,154.617L330.828,157.085L333.007,158.339L332.379,160.803L331.163,161.679L331.792,164.432L329.948,165.641L328.103,165.307L326.888,169.887L325.044,171.383L324.75,174.748L325.379,177.777L321.439,178.647L318.715,183.491L315.362,183.45L313.182,182.54L310.458,183.119L309.2,181.588L308.865,179.144L309.452,176.74L308.236,175.786L304.548,176.366L307.063,180.967L304.632,181.547L301.32,183.657L301.069,186.344L301.698,189.069L301.446,191.792L299.099,196.323L297.045,202.324L294.949,203.514L294.991,204.991L292.267,205.565L292.015,208.27L289.333,209.171L286.902,208.843L284.806,209.744L283.255,207.942L281.746,207.942L279.357,209.744L276.633,208.229L272.525,213.016L267.37,212.158L266.699,209.498L264.352,211.299L263.723,209.826L260.412,209.58L259.071,214.692L253.203,216.897L252.239,214.201L249.263,213.384L247.964,210.153L245.91,209.621L244.611,206.959L247.754,203.268L246.581,202.693L246.161,198.174L244.569,195.5L246.036,193.976L244.485,192.822L244.694,190.06L243.227,190.142L243.395,186.468L248.634,182.705L250.646,178.979L252.365,177.113L250.814,175.039L251.317,171.342L250.059,169.845L249.934,165.266L251.065,163.098L250.395,160.97L251.233,158.172L249.724,157.921L249.347,155.788L247.167,153.068L244.694,151.56L244.904,148.457L243.647,147.87L244.736,143.544L243.982,140.136L247.293,138.494L247.503,136.007L244.401,133.898L245.114,129.167L243.185,125.739L243.605,120.992L244.736,119.082L241.257,115.343L237.779,112.876L237.066,110.022L237.611,107.72L239.413,107.677L240.838,105.031L239.497,102.082L241.174,100.286L244.359,101.227L244.82,96.946L247.167,97.889L251.401,95.017L253.538,99.516L256.891,98.959L258.526,97.075L260.454,97.417L261.334,95.618L267.37,96.218L269.005,96.903L272.232,100.158L272.693,103.023L274.621,106.525L276.088,106.183ZM272.777,144.132L271.939,146.905L269.843,148.457L268.795,152.775L270.304,153.068L272.064,151.518L277.806,158.589L279.106,161.93L281.621,163.807L283.381,161.345L282.124,160.427L281.16,157.67L283.926,157.67L287.531,154.952L285.938,152.482L285.519,149.422L287.363,148.206L287.279,145.729L284.177,145.729L282.71,147.576L278.393,147.87L276.172,144.468Z" fill="rgb(87, 160, 206)" stroke="white" stroke-opacity="0.3" stroke-width="0.5"/><path aria-label="value: 9392" role="graphics-symbol" aria-roledescription="geoshape" transform="translate(0,0)" d="M272.777,144.132L276.172,144.468L278.393,147.87L282.71,147.576L284.177,145.729L287.279,145.729L287.363,148.206L285.519,149.422L285.938,152.482L287.531,154.952L283.926,157.67L281.16,157.67L282.124,160.427L283.381,161.345L281.621,163.807L279.106,161.93L277.806,158.589L272.064,151.518L270.304,153.068L268.795,152.775L269.843,148.457L271.939,146.905Z" fill="rgb(10, 74, 144)" stroke="white" stroke-opacity="0.3" stroke-width="0.5"/><path aria-label="value: 1801" role="graphics-symbol" aria-roledescription="geoshape" transform="translate(0,0)" d="M391.352,232.806L390.681,235.805L388.837,239.327L387.663,238.113L383.514,237.385L381.083,240.015L382.508,241.834L384.31,241.915L386.909,244.056L386.867,246.72L383.556,248.736L377.311,250.348L377.436,257.748L376.766,260.959L377.897,264.246L379.616,266.369L375.718,268.889L371.275,270.208L370.353,272.565L366.203,274.162L361.425,277.83L360.88,275.758L357.653,276.555L355.851,278.548L354.384,277.91L351.156,278.109L349.354,280.698L350.486,283.642L349.019,285.907L346.629,287.019L344.911,286.701L341.684,287.495L339.043,287.138L337.576,285.669L334.977,285.907L334.349,288.805L331.163,289.003L330.576,287.297L328.523,286.105L325.337,287.217L322.11,287.456L322.403,283.681L323.283,281.693L322.403,279.065L319.176,278.747L318.882,275.518L320.643,275.239L320.056,272.605L318.002,272.605L315.613,270.528L312.679,271.966L310.038,270.488L305.637,271.327L302.703,271.287L302.368,268.369L300.608,267.769L299.392,265.728L295.243,265.408L294.404,267.449L291.764,268.569L288.495,268.569L284.932,266.769L283.465,268.529L281.411,268.809L279.022,267.889L273.992,268.169L271.352,269.329L262.759,268.809L259.155,263.886L257.73,265.928L253.622,264.847L253.79,259.595L254.293,256.985L257.143,254.01L260.035,251.918L264.813,253.326L266.532,251.274L268.627,252.119L269.508,250.952L273.322,250.066L274.495,247.405L280.154,248.01L278.896,245.065L280.95,243.289L281.495,240.338L283.255,238.599L288.327,238.599L290.423,239.489L292.183,238.316L295.788,238.639L297.883,240.419L300.524,238.68L302.62,238.397L305.637,240.5L310.667,237.587L313.35,235.522L313.014,231.67L315.99,231.386L317.793,230.249L321.691,229.965L325.295,231.791L327.978,231.832L328.858,230.939L331.54,232.157L333.049,230.127L332.462,228.909L334.852,226.552L336.947,223.012L339.378,223.338L341.767,226.064L342.648,225.169L345.037,227.893L345.33,230.574L347.426,229.437L350.444,229.802L355.515,228.706L355.599,223.907L357.401,221.546L354.719,220.934L352.917,219.1L356.27,215.264L360.796,215.631L360.754,217.142L365.868,218.733L367,223.256L369.095,223.582L368.55,219.997L369.766,219.426L371.526,221.831L370.604,223.338L372.365,225.454L371.443,226.958L371.987,229.924L374.67,231.183L379.155,231.304L381.544,231.954L383.388,229.315L385.735,230.858L387.831,230.939Z" fill="rgb(170, 207, 230)" stroke="white" stroke-opacity="0.3" stroke-width="0.5"/><path aria-label="value: 0" role="graphics-symbol" aria-roledescription="geoshape" transform="translate(0,0)" d="M561.565,283.363L561.984,279.185L560.936,278.548L560.894,276.196L553.643,275.638L552.93,270.568L548.027,269.289L545.805,267.929L545.931,266.128L544.464,263.044L539.769,262.964L540.021,260.317L542.2,258.993L540.272,257.387L540.105,255.578L536.668,254.694L535.327,253.125L536.039,251.676L533.734,243.733L535.913,242.4L536.081,240.298L534.488,237.79L535.578,235.481L533.315,234.103L533.399,229.274L526.608,228.746L529.249,225.657L528.243,223.134L529.123,219.875L525.016,218.978L523.297,217.958L524.345,215.876L522.166,213.302L524.974,211.667L525.1,210.194L523.13,208.515L523.004,202.693L521.537,202.324L522.417,198.709L523.926,198.174L524.848,194.264L527.405,192.287L527.363,189.193L525.058,188.12L525.77,186.303L527.992,184.897L526.902,183.285L528.83,181.298L527.489,179.269L529.123,177.777L532.393,177.403L532.979,171.383L534.446,171.924L537.632,170.843L538.764,175.08L540.44,175.993L542.2,175.329L543.081,176.947L546.685,176.449L549.535,177.611L550.961,179.724L554.565,181.96L556.954,182.043L556.996,184.07L558.673,185.187L560.601,184.029L562.068,184.567L565.295,181.505L566.972,183.036L568.397,187.17L572.085,188.698L574.6,187.377L579.588,188.533L579.42,190.349L581.39,194.511L583.486,195.047L585.959,197.434L589.899,197.886L591.366,195.952L594.803,195.459L598.156,196.076L599.707,197.845L600,200.64L598.198,203.145L598.156,206.139L599.413,212.689L595.306,216.897L593.881,217.264L591.491,220.323L590.611,223.215L586.629,222.849L584.324,224.152L584.408,226.796L587.132,232.075L589.731,230.858L592.749,232.643L593.797,230.98L595.389,230.817L595.306,233.738L592.497,236.494L586.043,234.022L585.498,236.899L584.198,237.628L583.109,243.612L581.39,245.671L582.438,247.042L585.582,246.962L587.803,248.051L588.474,250.629L587.845,253.005L590.821,257.306L590.737,258.632L587.803,260.518L589.983,261.601L592.33,260.839L593.294,263.285L592.665,265.448L590.863,265.768L589.605,270.088L586.755,276.156L587.719,276.914L586.671,279.265L586.671,282.369L583.695,284.993L580.51,284.476L577.157,285.033L574.726,283.403L572.169,282.727L570.073,283.363L567.056,283.204L563.744,284.516Z" fill="rgb(207, 225, 242)" stroke="white" stroke-opacity="0.3" stroke-width="0.5"/><path aria-label="value: 4616" role="graphics-symbol" aria-roledescription="geoshape" transform="translate(0,0)" d="M98.414,159.258L101.558,160.552L100.258,163.431L101.348,165.516L101.348,169.221L105.791,175.039L108.013,176.408L107.426,180.429L106.085,182.664L103.444,184.401L100.049,183.74L96.78,184.608L97.031,187.625L96.319,190.142L94.474,189.358L92.546,195.294L90.157,195.5L86.72,197.31L84.876,197.146L84.96,201.092L82.277,201.01L80.056,199.407L77.29,198.421L75.99,200.353L74.23,200.805L74.817,203.76L73.433,204.499L74.9,207.41L73.978,210.194L72.637,211.83L74.02,216.815L70.835,217.427L69.158,218.774L63.206,218.814L62.2,220.445L60.272,219.141L58.386,220.894L54.488,220.731L52.937,220.038L50.465,221.831L50.59,223.297L47.95,226.023L46.399,230.696L46.315,235.198L46.86,237.506L46.315,240.258L43.968,240.541L40.657,239.772L40.196,238.316L37.89,238.599L34.328,238.154L34.16,236.656L32.358,233.576L27.496,234.428L26.951,232.4L24.813,230.817L24.394,229.031L25.568,227.446L24.813,225.698L23.43,220.812L20.999,218.651L19.825,214.242L21.711,211.79L21.795,209.498L18.149,203.801L18.233,201.297L17.143,199.613L17.478,197.557L20.328,194.223L21.376,191.256L24.687,188.368L24.981,187.005L28.627,182.747L37.429,171.716L37.974,170.136L41.369,167.265L43.8,164.349L50.884,158.13L51.932,155.37L55.075,153.445L59.518,153.947L62.871,152.23L63.667,150.428L64.799,142.703L64.38,141.778L66.308,140.894L69.284,144.006L71.757,144.637L72.595,143.292L75.403,143.922L76.535,146.611L78.295,145.813L79.762,148.751L81.02,148.961L81.02,152.691L85.169,155.119L85.044,156.959L87.517,157.377L88.942,156.332L92.379,156.625L93.175,155.035L96.235,158.798Z" fill="rgb(93, 164, 208)" stroke="white" stroke-opacity="0.3" stroke-width="0.5"/><path aria-label="value: 2459" role="graphics-symbol" aria-roledescription="geoshape" transform="translate(0,0)" d="M361.425,277.83L361.09,281.335L363.437,281.693L362.473,286.026L362.683,290.392L360.629,290.312L359.455,291.462L359.958,296.372L363.437,297.361L363.395,298.231L364.485,302.063L364.988,306.125L364.904,310.418L363.73,311.244L366.245,315.096L364.485,315.606L362.683,317.53L359.79,318.55L357.946,321.921L363.311,325.874L361.844,327.79L359.246,326.852L358.826,331.11L359.036,333.958L355.012,334.933L351.282,335.05L350.444,333.88L345.623,333.373L345.288,335.089L343.025,334.153L340.217,334.348L339.043,336.297L336.78,335.089L334.81,336.18L333.091,338.127L330.786,339.45L330.451,341.706L327.307,342.989L326.846,339.917L325.756,338.205L326.133,333.763L323.577,335.673L323.535,337.621L324.625,339.022L323.66,343.455L320.768,344.465L315.529,342.445L314.02,342.717L312.511,344.62L310.122,343.649L309.829,341.745L306.853,343.338L305.847,344.775L300.775,343.494L300.985,340.073L300.482,334.153L298.973,333.295L295.704,329.626L295.368,327.36L303.332,326.617L304.715,324.661L304.632,321.529L303.416,317.53L299.057,318.354L299.267,312.895L294.614,313.996L293.692,311.716L291.303,311.952L289.501,309.67L290.968,308.528L289.752,306.795L290.339,305.377L289.123,303.917L289.333,299.338L287.531,298.152L285.393,293.8L284.261,295.818L281.872,295.779L282.166,294.077L275.669,294.908L273.573,293.76L272.567,288.527L274.621,286.503L273.406,284.755L270.765,285.073L270.346,279.225L268.837,277.791L268.502,275.758L269.885,271.687L271.687,271.367L271.352,269.329L273.992,268.169L279.022,267.889L281.411,268.809L283.465,268.529L284.932,266.769L288.495,268.569L291.764,268.569L294.404,267.449L295.243,265.408L299.392,265.728L300.608,267.769L302.368,268.369L302.703,271.287L305.637,271.327L310.038,270.488L312.679,271.966L315.613,270.528L318.002,272.605L320.056,272.605L320.643,275.239L318.882,275.518L319.176,278.747L322.403,279.065L323.283,281.693L322.403,283.681L322.11,287.456L325.337,287.217L328.523,286.105L330.576,287.297L331.163,289.003L334.349,288.805L334.977,285.907L337.576,285.669L339.043,287.138L341.684,287.495L344.911,286.701L346.629,287.019L349.019,285.907L350.486,283.642L349.354,280.698L351.156,278.109L354.384,277.91L355.851,278.548L357.653,276.555L360.88,275.758Z" fill="rgb(153, 198, 225)" stroke="white" stroke-opacity="0.3" stroke-width="0.5"/><path aria-label="value: 4896" role="graphics-symbol" aria-roledescription="geoshape" transform="translate(0,0)" d="M271.352,269.329L271.687,271.367L269.885,271.687L268.502,275.758L268.837,277.791L270.346,279.225L270.765,285.073L273.406,284.755L274.621,286.503L272.567,288.527L273.573,293.76L275.669,294.908L282.166,294.077L281.872,295.779L284.261,295.818L285.393,293.8L287.531,298.152L289.333,299.338L289.123,303.917L290.339,305.377L289.752,306.795L290.968,308.528L289.501,309.67L291.303,311.952L293.692,311.716L294.614,313.996L299.267,312.895L299.057,318.354L303.416,317.53L304.632,321.529L304.715,324.661L303.332,326.617L295.368,327.36L295.704,329.626L298.973,333.295L300.482,334.153L300.985,340.073L300.775,343.494L299.392,343.571L288.872,347.764L287.195,347.531L285.854,350.361L286.902,351.446L286.776,354.31L285.854,356.592L284.094,358.331L280.866,364.042L276.591,370.626L271.729,375.466L267.538,380.872L255.173,390.927L251.233,390.774L249.682,388.598L250.185,387.49L250.311,383.552L249.012,383.629L248.173,385.885L248.634,387.796L247.293,388.942L247.251,395.883L248.341,396.378L247.042,399.194L248.676,400.791L251.065,399.651L252.197,400.715L252.365,405.957L251.443,410.392L249.305,410.998L249.095,406.298L247.545,404.135L245.239,402.388L241.174,401.095L239.455,401.666L235.725,401.438L233.671,402.312L230.863,404.401L225.959,406.298L225.54,408.877L220.594,406.374L219.42,408.915L219.881,410.998L217.199,411.112L213.343,410.165L211.121,408.915L205.714,406.867L203.954,403.603L203.535,400.829L200.978,399.879L203.199,396.302L204.541,395.616L207.726,396.835L208.732,398.357L211.415,397.52L210.912,394.549L212.462,393.787L211.792,389.934L210.744,389.438L212.462,386.497L214.39,385.006L218.079,383.896L217.911,382.595L220.51,381.294L219.672,377.691L220.636,375.044L225.959,373.7L227.09,372.816L227.426,370.664L226.085,368.779L229.396,364.312L225.749,360.648L227.09,358.331L225.288,351.833L230.444,348.617L232.455,348.733L235.515,346.91L235.264,353.498L238.198,353.885L237.904,351.33L239.12,349.625L240.796,351.833L242.515,350.09L244.024,352.685L246.078,354.349L247.167,356.476L250.059,356.515L249.808,352.917L251.946,353.111L252.532,351.136L255.005,355.626L256.891,356.476L258.903,354.62L261.041,355.626L263.137,354.62L260.496,349.741L258.903,349.896L257.143,347.841L259.113,346.91L259.574,345.436L258.945,342.6L259.783,340.695L259.993,337.192L256.766,333.217L256.472,331.344L253.915,332.398L252.365,332.086L251.862,329.626L249.137,329.314L247.545,327.204L248.048,320.706L245.826,321.803L244.569,319.334L247.083,318.785L246.078,313.799L247.545,312.856L247.042,307.82L244.191,307.898L243.772,310.3L242.18,311.047L240.503,310.142L240.335,306.835L238.743,306.953L238.323,304.272L235.851,304.864L234.384,304.194L233.922,302.142L231.911,298.824L234.132,297.717L235.515,294.354L234.845,290.233L236.353,288.527L235.431,286.582L234.425,282.13L233.713,276.834L231.114,277.352L230.024,279.424L227.09,277.591L225.582,278.747L222.689,274.92L222.689,272.525L226.001,271.647L226.42,268.289L229.102,269.289L230.402,266.128L233.084,268.329L236.856,270.648L240.629,270.568L241.509,269.409L244.149,270.208L246.748,270.168L247.586,269.009L250.227,268.929L250.185,266.369L253.622,264.847L257.73,265.928L259.155,263.886L262.759,268.809Z" fill="rgb(86, 159, 205)" stroke="white" stroke-opacity="0.3" stroke-width="0.5"/><path aria-label="value: 3065" role="graphics-symbol" aria-roledescription="geoshape" transform="translate(0,0)" d="M425.554,167.764L426.308,172.09L424.464,173.918L423.165,176.657L423.709,178.854L426.601,181.34L429.829,182.623L432.469,182.705L434.188,184.277L434.9,189.193L436.284,191.668L441.02,192.41L442.696,194.882L443.744,198.297L441.062,198.256L441.313,200.065L443.66,200.435L443.577,202.283L438.882,201.256L438.212,203.35L439.93,204.622L440.433,206.795L437.625,210.358L434.607,212.403L430.541,211.994L428.823,210.44L427.565,212.239L427.188,215.264L428.781,219.548L427.063,218.611L422.075,217.876L419.686,219.018L418.428,221.138L414.237,221.912L413.566,224.64L408.537,224.518L406.692,226.877L404.722,232.846L406.147,234.995L404.597,236.737L405.728,239.165L403.884,240.905L401.872,239.368L399.525,238.72L398.687,236.615L395.459,234.711L393.406,234.346L391.352,232.806L387.831,230.939L385.735,230.858L383.388,229.315L381.544,231.954L379.155,231.304L374.67,231.183L371.987,229.924L371.443,226.958L372.365,225.454L370.604,223.338L371.526,221.831L369.766,219.426L368.55,219.997L369.095,223.582L367,223.256L365.868,218.733L360.754,217.142L360.796,215.631L356.27,215.264L353.545,216.121L352.665,214.896L350.234,214.855L345.121,212.076L343.318,209.948L344.24,207.573L349.983,209.744L353,209.785L351.198,207.369L350.611,203.76L353.378,200.188L353.378,198.38L352.204,195.335L349.773,192.864L347.049,191.916L346.755,188.285L342.522,185.517L340.384,182.788L342.228,182.498L342.228,178.564L337.66,173.959L336.738,169.055L334.558,168.139L331.792,164.432L331.163,161.679L332.379,160.803L333.007,158.339L336.402,158.088L338.875,154.115L340.72,155.035L343.821,155.37L344.743,157.837L353.713,157.628L356.815,156.416L358.365,153.989L362.138,151.56L363.395,149.422L366.161,150.093L369.598,149.799L369.598,147.66L373.915,149.254L375.76,151.099L380.077,150.554L384.394,152.147L387.789,152.188L389.675,150.638L389.382,149.087L392.148,148.835L393.447,147.618L395.837,150.093L398.896,149.841L401.705,148.289L402.878,149.548L403.381,153.277L407.572,156.708L408.075,159.174L409.878,161.053L411.387,161.095L411.596,163.556L413.357,165.766L411.512,166.973L413.524,169.762L417.716,170.136L418.093,168.264L421.404,167.39Z" fill="rgb(136, 189, 220)" stroke="white" stroke-opacity="0.3" stroke-width="0.5"/><path aria-label="value: 2682" role="graphics-symbol" aria-roledescription="geoshape" transform="translate(0,0)" d="M183.626,95.275L180.147,97.203L181.362,100.928L178.722,99.901L177.255,102.296L178.638,103.749L175.662,106.183L176.584,110.576L174.53,112.322L173.147,115.258L173.273,117.469L171.932,120.398L170.339,120.526L167.992,122.562L169.542,127.179L169.081,130.055L170.506,137.525L168.159,140.178L168.495,145.141L167.614,145.855L165.351,144.426L161.705,146.233L160.866,147.87L157.429,147.156L153.825,148.961L153.322,150.889L149.34,156.458L148.711,156.165L144.143,161.763L140.454,162.013L137.311,165.641L135.215,166.099L132.826,163.181L129.64,161.554L128.55,163.515L125.952,161.846L124.485,162.848L122.557,165.766L117.024,165.891L115.892,167.182L114.006,166.39L110.527,169.429L108.054,172.713L105.917,173.17L105.791,175.039L101.348,169.221L101.348,165.516L100.258,163.431L101.558,160.552L98.414,159.258L101.474,155.286L99.672,151.686L99.756,148.877L98.372,146.779L100.803,146.275L103.654,147.324L105.414,146.233L104.827,142.829L107.216,141.693L108.641,140.01L110.527,140.221L114.09,138.368L118.03,137.441L118.868,140.221L122.305,140.894L123.73,139.252L123.982,133.898L125.03,131.618L128.802,132.294L127.712,129.843L127.377,124.808L130.101,124.299L131.568,122.604L131.401,120.738L129.431,118.658L126.622,118.53L125.826,116.364L128.928,116.151L130.269,113.174L128.215,110.448L126.664,109.937L125.533,107.464L122.85,104.475L123.06,102.852L118.952,102.168L116.982,100.714L116.06,96.603L113.797,95.489L115.054,91.241L113,89.136L115.725,87.631L118.449,81.731L116.437,79.704L116.605,77.545L118.994,74.693L116.102,74.261L115.431,73.093L121.425,73.352L122.976,72.054L126.539,73.612L129.431,72.833L131.694,73.568L134.251,76.163L139.993,76.379L144.52,80.006L145.777,80.222L148.627,78.538L153.699,79.1L155.292,82.033L156.633,81.515L160.573,82.421L160.992,81.472L167.489,81.171L167.656,86.727L169.752,88.233L168.704,91.069L172.644,89.909L176.249,90.124L179.392,88.921L181.069,90.081L184.967,90.167L184.799,92.658Z" fill="rgb(147, 195, 223)" stroke="white" stroke-opacity="0.3" stroke-width="0.5"/><path aria-label="value: 0" role="graphics-symbol" aria-roledescription="geoshape" transform="translate(0,0)" d="M386.448,450.212L384.478,449.914L381.376,447.86L380.496,445.281L376.053,444.682L373.79,442.662L374.879,440.19L378.023,437.492L378.191,434.19L377.813,430.846L379.28,428.664L379.993,430.62L382.382,431.56L380.664,433.438L380.873,435.391L384.394,435.203L385.987,436.629L385.316,439.104L382.508,440.715L384.017,443.972L386.783,444.832L388.921,443.598L391.1,448.009L386.699,449.652Z" fill="rgb(207, 225, 242)" stroke="white" stroke-opacity="0.3" stroke-width="0.5"/><path aria-label="value: 1670" role="graphics-symbol" aria-roledescription="geoshape" transform="translate(0,0)" d="M448.606,156.625L444.625,158.673L443.409,159.926L440.727,158.631L437.709,159.843L435.487,163.848L432.847,162.597L429.787,165.057L427.063,165.932L425.554,167.764L421.404,167.39L418.093,168.264L417.716,170.136L413.524,169.762L411.512,166.973L413.357,165.766L411.596,163.556L411.387,161.095L409.878,161.053L408.075,159.174L407.572,156.708L403.381,153.277L402.878,149.548L401.705,148.289L398.896,149.841L395.837,150.093L393.447,147.618L392.148,148.835L389.382,149.087L389.675,150.638L387.789,152.188L384.394,152.147L380.077,150.554L375.76,151.099L373.915,149.254L369.598,147.66L369.598,149.799L366.161,150.093L363.395,149.422L364.359,146.695L364.736,142.072L366.581,141.146L365.994,139.294L368.509,136.851L367,135.291L366.748,130.351L368.341,128.829L368.048,126.332L363.06,124.426L364.024,122.265L363.73,120.398L359.958,117.851L360.922,116.024L360,114.45L362.221,112.918L363.185,110.405L363.521,104.176L365.114,103.877L364.778,100.414L365.449,97.589L366.706,97.289L367.67,93.173L365.114,88.448L366.413,86.555L364.233,82.076L365.868,79.876L365.91,76.984L369.85,73.871L373.413,74.217L374.502,71.664L371.652,69.758L373.496,67.981L375.047,68.978L377.185,68.372L377.185,66.159L375.341,65.812L372.323,62.164L371.107,59.293L373.245,55.635L374.502,51.098L377.939,50.792L379.28,52.713L382.34,52.102L384.394,50.53L387.957,50.792L388.334,53.28L390.975,53.411L391.352,55.722L397.304,62.468L395.795,65.986L396.591,68.892L398.729,72.054L402.333,74.65L407.405,79.359L406.65,81.429L407.866,83.8L406.902,84.747L403.716,84.92L402.166,85.996L397.723,86.555L396.549,87.803L401.872,91.799L404.094,95.017L400.992,101.869L404.89,104.134L402.501,109.34L405.603,110.746L407.279,108.914L410.674,110.022L415.285,109.979L416.374,113.131L420.733,113.769L421.153,112.535L425.931,110.533L430.835,111.385L431.002,115.088L433.224,119.974L436.074,119.549L437.122,118.488L440.81,120.229L440.852,121.332L438.505,123.409L438.128,125.782L440.182,126.629L439.846,129.125L440.894,130.351L440.936,132.843L443.032,135.122L442.403,136.893L443.367,139.463L440.559,141.988L440.433,144.637L442.068,147.912L444.331,150.596L446.092,151.057L446.259,154.366Z" fill="rgb(173, 208, 231)" stroke="white" stroke-opacity="0.3" stroke-width="0.5"/><path aria-label="value: 1512" role="graphics-symbol" aria-roledescription="geoshape" transform="translate(0,0)" d="M135.215,166.099L136.095,170.053L134.251,170.178L134.628,175.412L132.574,176.491L132.784,179.849L134.209,182.209L133.371,183.16L135.844,188.203L134.754,190.101L136.095,191.215L136.263,193.976L134.293,195.911L134.754,198.01L132.49,200.928L134.46,202.283L134.921,204.704L135.089,210.726L135.844,212.812L134.167,214.733L134.712,217.999L133.832,222.279L134.712,226.104L134.209,227.365L134.418,233.617L136.095,235.603L134.712,237.182L136.011,238.316L135.76,242.764L138.736,245.873L138.945,248.252L142.382,249.824L139.783,251.153L137.269,249.824L133.706,250.307L132.7,248.897L132.826,246.8L126.706,245.671L125.072,247.244L120.796,243.046L118.156,243.491L115.431,242.764L115.683,239.165L112.749,236.413L109.27,234.549L108.809,232.522L105.875,233.008L103.863,236.98L102.773,234.995L101.977,229.721L98.456,229.965L97.786,226.43L95.69,226.308L91.373,224.274L92.965,222.645L93.678,220.486L91.247,220.078L89.193,217.264L90.744,215.059L88.774,212.812L88.271,210.767L89.277,208.884L88.187,206.836L86.636,206.385L84.96,201.092L84.876,197.146L86.72,197.31L90.157,195.5L92.546,195.294L94.474,189.358L96.319,190.142L97.031,187.625L96.78,184.608L100.049,183.74L103.444,184.401L106.085,182.664L107.426,180.429L108.013,176.408L105.791,175.039L105.917,173.17L108.054,172.713L110.527,169.429L114.006,166.39L115.892,167.182L117.024,165.891L122.557,165.766L124.485,162.848L125.952,161.846L128.55,163.515L129.64,161.554L132.826,163.181Z" fill="rgb(177, 210, 232)" stroke="white" stroke-opacity="0.3" stroke-width="0.5"/><path aria-label="value: 1859" role="graphics-symbol" aria-roledescription="geoshape" transform="translate(0,0)" d="M24.813,225.698L25.568,227.446L24.394,229.031L24.813,230.817L26.951,232.4L27.496,234.428L32.358,233.576L34.16,236.656L34.328,238.154L37.89,238.599L40.196,238.316L40.657,239.772L43.968,240.541L46.315,240.258L48.453,241.188L50.926,244.742L53.524,244.42L54.069,246.76L56.039,248.897L58.093,248.655L57.925,252.522L59.769,253.447L61.236,250.952L66.098,249.502L66.098,255.096L67.524,257.306L70.248,258.19L71.757,255.98L73.14,257.869L77.29,261.28L77.206,263.325L79.092,264.326L77.918,267.049L78.715,269.009L81.271,271.367L81.816,273.643L80.224,274.92L80.517,278.269L78.254,278.826L75.487,277.671L73.559,280.618L68.823,281.295L65.637,280.897L64.506,279.384L59.811,278.07L56.542,279.543L55.41,277.352L52.309,276.714L50.339,277.552L48.369,275.997L46.608,276.236L44.345,277.95L42.166,277.631L37.094,273.843L36.884,271.806L32.903,271.087L31.813,272.086L30.723,276.077L25.693,275.638L25.065,278.468L23.095,277.113L24.226,274.521L22.424,270.608L19.742,270.408L17.52,271.846L14.879,270.928L14.67,268.649L12.323,264.767L9.682,263.966L7.377,264.687L6.287,261.641L2.305,255.257L0,256.101L0.754,248.252L1.383,246.437L2.934,245.55L5.03,242.44L6.748,241.713L7.754,232.806L10.856,226.511L12.993,226.186L13.622,222.075L15.005,221.627L17.394,224.233L21.502,223.948Z" fill="rgb(168, 206, 229)" stroke="white" stroke-opacity="0.3" stroke-width="0.5"/><path aria-label="value: 3362" role="graphics-symbol" aria-roledescription="geoshape" transform="translate(0,0)" d="M244.485,192.822L246.036,193.976L244.569,195.5L246.161,198.174L246.581,202.693L247.754,203.268L244.611,206.959L245.91,209.621L247.964,210.153L249.263,213.384L252.239,214.201L252.323,216.897L249.473,221.138L249.556,223.541L251.107,226.145L249.724,229.153L252.407,230.574L252.155,232.643L253.413,234.387L253.454,236.453L256.724,237.587L256.514,239.934L259.49,242.238L261.041,244.581L262.047,249.864L260.035,251.918L257.143,254.01L254.293,256.985L253.79,259.595L253.622,264.847L250.185,266.369L250.227,268.929L247.586,269.009L246.748,270.168L244.149,270.208L241.509,269.409L240.629,270.568L236.856,270.648L233.084,268.329L230.402,266.128L229.102,269.289L226.42,268.289L226.001,271.647L222.689,272.525L222.648,270.528L216.025,269.329L213.426,268.009L211.959,270.248L209.193,272.166L208.397,267.809L206.93,267.809L205.756,264.166L201.481,266.168L200.517,263.846L197.834,264.927L197.457,261.521L195.906,260.277L191.841,260.197L189.661,258.23L190.499,257.105L186.392,253.689L183.709,254.453L179.853,252.924L178.764,253.407L176.668,251.113L176.249,246.962L173.482,245.025L174.53,242.279L174.949,233.333L173.902,230.127L174.991,228.259L173.985,226.796L175.327,223.419L177.464,223.297L177.883,219.956L180.021,220.445L181.111,218.243L182.955,218.162L186.057,219.141L187.733,216.652L189.913,217.713L189.955,211.994L186.015,201.01L187.482,199.695L186.685,196.734L188.404,193.852L186.811,193.07L188.446,188.987L190.835,187.294L194.481,186.468L196.367,187.253L199.721,186.137L205.84,185.765L207.097,186.922L208.858,184.36L210.995,185.187L212.84,184.773L215.019,186.509L215.564,184.649L219.546,185.641L220.091,183.202L223.36,182.126L223.905,180.553L226.755,183.781L227.51,187.707L228.474,188.574L227.007,190.761L227.09,192.575L228.432,196.158L233.252,195.952L237.443,196.364L237.359,193.976L239.79,194.47L242.683,192.575Z" fill="rgb(127, 184, 218)" stroke="white" stroke-opacity="0.3" stroke-width="0.5"/><path aria-label="value: 1791" role="graphics-symbol" aria-roledescription="geoshape" transform="translate(0,0)" d="M115.431,73.093L116.102,74.261L118.994,74.693L116.605,77.545L116.437,79.704L118.449,81.731L115.725,87.631L113,89.136L115.054,91.241L113.797,95.489L116.06,96.603L116.982,100.714L118.952,102.168L123.06,102.852L122.85,104.475L125.533,107.464L126.664,109.937L128.215,110.448L130.269,113.174L128.928,116.151L125.826,116.364L126.622,118.53L129.431,118.658L131.401,120.738L131.568,122.604L130.101,124.299L127.377,124.808L127.712,129.843L128.802,132.294L125.03,131.618L123.982,133.898L123.73,139.252L122.305,140.894L118.868,140.221L118.03,137.441L114.09,138.368L110.527,140.221L108.641,140.01L107.216,141.693L104.827,142.829L105.414,146.233L103.654,147.324L100.803,146.275L98.372,146.779L99.756,148.877L99.672,151.686L101.474,155.286L98.414,159.258L96.235,158.798L93.175,155.035L92.379,156.625L88.942,156.332L87.517,157.377L85.044,156.959L85.169,155.119L81.02,152.691L81.02,148.961L79.762,148.751L78.295,145.813L76.535,146.611L75.403,143.922L72.595,143.292L71.757,144.637L69.284,144.006L66.308,140.894L64.38,141.778L62.033,137.567L62.2,135.206L60.566,134.869L61.236,131.365L64.967,131.576L66.476,130.477L62.368,127.602L60.608,125.358L59.141,121.968L58.512,118.87L57.171,118.743L57.129,115.131L53.063,111.811L52.267,108.914L50.045,108.103L49.501,106.61L51.47,100.714L50.339,96.132L51.135,91.756L50.716,88.749L56.039,88.061L56.249,89.136L59.602,89.136L59.853,91.67L62.326,92.057L65.386,90.081L66.727,87.459L70.751,84.747L73.182,81.171L72.553,78.625L74.272,74.563L77.709,74.434L81.481,73.482L88.397,74.909L92.84,73.655L94.474,74.477L97.492,71.751L104.073,70.625L106.923,72.53L111.03,73.395L113.503,72.314Z" fill="rgb(170, 207, 230)" stroke="white" stroke-opacity="0.3" stroke-width="0.5"/><path aria-label="value: 2205" role="graphics-symbol" aria-roledescription="geoshape" transform="translate(0,0)" d="M438.715,360.223L436.535,359.837L436.451,355.51L435.068,355.278L434.397,358.64L432.092,360.725L431.212,362.654L430.122,362.5L429.955,358.293L429.242,354.233L425.889,352.801L424.17,353.382L422.578,350.129L419.686,350.942L418.302,349.431L419.518,347.686L419.308,344.426L416.752,344.387L415.368,343.144L415.997,341.395L419.434,340.306L419.56,337.076L421.278,336.842L420.775,334.192L419.35,334.153L418.638,330.603L416.333,330.525L413.566,328.376L412.518,325.992L412.057,323.057L410.674,320.941L409.752,315.96L411.177,315.685L409.584,312.699L403.8,314.271L402.501,310.378L401.788,306.559L398.435,303.799L403.381,302.221L412.644,299.891L415.494,299.97L419.141,301.865L422.578,301.944L424.632,301.431L423.877,299.061L424.254,296.412L423.206,294.037L424.715,291.7L424.841,289.36L422.829,289.598L423.248,286.344L420.775,283.045L422.955,279.265L422.494,275.678L425.176,273.683L427.775,273.763L429.577,272.326L435.11,271.287L437.96,271.367L439.679,272.326L445.672,274.242L450.995,271.127L452.085,272.964L454.39,273.004L454.6,274.8L459.294,273.164L460.342,275.239L461.809,275L463.192,281.255L464.031,281.255L464.659,285.669L467.007,284.874L467.51,286.344L471.198,286.701L472.707,285.589L475.515,286.503L479.623,284.874L479.413,288.051L482.263,288.726L484.191,294.314L487.251,295.898L489.892,299.456L491.401,298.35L493.664,299.338L495.76,302.023L498.275,303.602L501.46,303.523L499.448,307.15L496.808,308.174L496.975,309.591L494.544,311.205L490.856,310.457L491.946,315.685L489.012,316.706L493.119,319.726L493.245,321.764L497.059,324.309L497.73,326.696L494.796,328.142L494.125,329.548L495.131,331.344L492.197,332.788L490.101,334.582L488.215,338.594L487.042,339.1L483.73,336.53L481.76,336.452L473.587,339.372L468.432,344.387L465.498,342.406L463.528,343.261L457.995,343.338L451.205,347.415L449.109,350.826L447.642,352.22L442.277,355.2Z" fill="rgb(159, 201, 227)" stroke="white" stroke-opacity="0.3" stroke-width="0.5"/><path aria-label="value: 2717" role="graphics-symbol" aria-roledescription="geoshape" transform="translate(0,0)" d="M239.497,102.082L240.838,105.031L239.413,107.677L237.611,107.72L237.066,110.022L237.779,112.876L241.257,115.343L244.736,119.082L243.605,120.992L243.185,125.739L245.114,129.167L244.401,133.898L247.503,136.007L247.293,138.494L243.982,140.136L244.736,143.544L243.647,147.87L244.904,148.457L244.694,151.56L247.167,153.068L249.347,155.788L249.724,157.921L251.233,158.172L250.395,160.97L251.065,163.098L249.934,165.266L250.059,169.845L251.317,171.342L250.814,175.039L252.365,177.113L250.646,178.979L248.634,182.705L243.395,186.468L243.227,190.142L244.694,190.06L244.485,192.822L242.683,192.575L239.79,194.47L237.359,193.976L237.443,196.364L233.252,195.952L228.432,196.158L227.09,192.575L227.007,190.761L228.474,188.574L227.51,187.707L226.755,183.781L223.905,180.553L223.36,182.126L220.091,183.202L219.546,185.641L215.564,184.649L215.019,186.509L212.84,184.773L210.995,185.187L208.858,184.36L207.097,186.922L205.84,185.765L199.721,186.137L196.367,187.253L194.481,186.468L190.835,187.294L188.446,188.987L185.218,186.716L182.703,185.972L181.488,180.843L179.308,180.387L180.063,177.237L179.308,174.831L181.488,174.997L183.793,171.799L181.865,170.968L181.739,168.847L183.835,167.473L180.859,164.265L180.733,161.805L178.009,163.515L174.782,160.928L174.614,158.757L172.057,157.712L172.015,156.458L169.417,154.742L171.261,149.674L167.992,147.366L167.614,145.855L168.495,145.141L168.159,140.178L170.506,137.525L169.081,130.055L169.542,127.179L167.992,122.562L170.339,120.526L171.932,120.398L173.273,117.469L173.147,115.258L174.53,112.322L176.584,110.576L175.662,106.183L178.638,103.749L177.255,102.296L178.722,99.901L181.362,100.928L180.147,97.203L183.626,95.275L186.308,96.946L188.278,91.885L188.739,89.05L191.002,89.265L191.757,91.928L193.14,92.872L196.996,92.787L199.972,88.491L203.367,85.996L204.122,89.437L206.511,92.958L208.187,93.087L210.492,91.327L214.223,93.13L216.863,93.216L216.528,95.66L217.953,99.43L220.3,97.375L221.642,94.288L224.324,92.572L228.767,92.271L230.905,89.565L232.791,88.491L234.677,92.443L236.27,93.859L235.473,96.689L237.988,99.259Z" fill="rgb(146, 194, 223)" stroke="white" stroke-opacity="0.3" stroke-width="0.5"/></g><g class="mark-text role-mark layer_1_marks" role="graphics-object" aria-roledescription="text mark container"><text aria-label="lon: 24.0297; lat: 49.8397; short_region: " role="graphics-symbol" aria-roledescription="text mark" text-anchor="middle" transform="translate(62.40042217020107,186.56301925716116)" font-family="sans-serif" font-size="11px" fill="#111"></text><text aria-label="lon: 24.7105; lat: 48.7226; short_region: " role="graphics-symbol" aria-roledescription="text mark" text-anchor="middle" transform="translate(85.01004087808849,243.43678684555198)" font-family="sans-serif" font-size="11px" fill="#111"></text><text aria-label="lon: 25.5948; lat: 49.3535; short_region: " role="graphics-symbol" aria-roledescription="text mark" text-anchor="middle" transform="translate(114.37796952583358,211.47497991636487)" font-family="sans-serif" font-size="11px" fill="#111"></text><text aria-label="lon: 30.5234; lat: 50.4501; short_region: ." role="graphics-symbol" aria-roledescription="text mark" text-anchor="middle" transform="translate(278.05859050658296,154.92997666318024)" font-family="sans-serif" font-size="11px" fill="#111">.</text><text aria-label="lon: 25; lat: 51.3424; short_region: " role="graphics-symbol" aria-roledescription="text mark" text-anchor="middle" transform="translate(94.62444248786142,107.94477283316814)" font-family="sans-serif" font-size="11px" fill="#111"></text><text aria-label="lon: 26.8; lat: 51; short_region: " role="graphics-symbol" aria-roledescription="text mark" text-anchor="middle" transform="translate(154.40310534655328,126.08094732704058)" font-family="sans-serif" font-size="11px" fill="#111"></text><text aria-label="lon: 23; lat: 48.4; short_region: " role="graphics-symbol" aria-roledescription="text mark" text-anchor="middle" transform="translate(28.203705978203857,259.62508824691554)" font-family="sans-serif" font-size="11px" fill="#111"></text><text aria-label="lon: 25.9403; lat: 48.2915; short_region: " role="graphics-symbol" aria-roledescription="text mark" text-anchor="middle" transform="translate(125.8521517578771,265.0466090640464)" font-family="sans-serif" font-size="11px" fill="#111"></text><text aria-label="lon: 30.57; lat: 49.92; short_region: ." role="graphics-symbol" aria-roledescription="text mark" text-anchor="middle" transform="translate(279.606193667258,182.4245586322536)" font-family="sans-serif" font-size="11px" fill="#111">.</text><text aria-label="lon: 36.5304; lat: 49.5935; short_region: " role="graphics-symbol" aria-roledescription="text mark" text-anchor="middle" transform="translate(477.5532726133399,199.20887629971617)" font-family="sans-serif" font-size="11px" fill="#111"></text><text aria-label="lon: 31.4; lat: 49.2; short_region: " role="graphics-symbol" aria-roledescription="text mark" text-anchor="middle" transform="translate(307.17079931876583,219.28882163906792)" font-family="sans-serif" font-size="11px" fill="#111"></text><text aria-label="lon: 35.0462; lat: 48.4647; short_region: " role="graphics-symbol" aria-roledescription="text mark" text-anchor="middle" transform="translate(428.26244404952286,256.38665775034065)" font-family="sans-serif" font-size="11px" fill="#111"></text><text aria-label="lon: 34.4981; lat: 50.8077; short_region: " role="graphics-symbol" aria-roledescription="text mark" text-anchor="middle" transform="translate(410.0598412090512,136.20801090451323)" font-family="sans-serif" font-size="11px" fill="#111"></text><text aria-label="lon: 34.0514; lat: 49.5883; short_region: " role="graphics-symbol" aria-roledescription="text mark" text-anchor="middle" transform="translate(395.22476970961907,199.47528024000803)" font-family="sans-serif" font-size="11px" fill="#111"></text><text aria-label="lon: 35.5396; lat: 47.1388; short_region: " role="graphics-symbol" aria-roledescription="text mark" text-anchor="middle" transform="translate(444.6484397464553,321.947375690492)" font-family="sans-serif" font-size="11px" fill="#111"></text><text aria-label="lon: 33.5169; lat: 46.6354; short_region: " role="graphics-symbol" aria-roledescription="text mark" text-anchor="middle" transform="translate(377.4738278774132,346.40939297975)" font-family="sans-serif" font-size="11px" fill="#111"></text><text aria-label="lon: 28.6682; lat: 49.0331; short_region: " role="graphics-symbol" aria-roledescription="text mark" text-anchor="middle" transform="translate(216.44671532022448,227.75731281887374)" font-family="sans-serif" font-size="11px" fill="#111"></text><text aria-label="lon: 28.6767; lat: 50.2649; short_region: " role="graphics-symbol" aria-roledescription="text mark" text-anchor="middle" transform="translate(216.72900345039068,164.5704397804468)" font-family="sans-serif" font-size="11px" fill="#111"></text><text aria-label="lon: 26.9871; lat: 49.4228; short_region: " role="graphics-symbol" aria-roledescription="text mark" text-anchor="middle" transform="translate(160.61676524703194,207.939308387374)" font-family="sans-serif" font-size="11px" fill="#111"></text><text aria-label="lon: 30.3233; lat: 46.9825; short_region: " role="graphics-symbol" aria-roledescription="text mark" text-anchor="middle" transform="translate(271.4131958187917,329.56717085024025)" font-family="sans-serif" font-size="11px" fill="#111"></text><text aria-label="lon: 32.2623; lat: 48.5079; short_region: " role="graphics-symbol" aria-roledescription="text mark" text-anchor="middle" transform="translate(335.808099864905,254.22206820423116)" font-family="sans-serif" font-size="11px" fill="#111"></text><text aria-label="lon: 33.58; lat: 44.58; short_region: " role="graphics-symbol" aria-roledescription="text mark" text-anchor="middle" transform="translate(379.56940211429264,444.0009911325467)" font-family="sans-serif" font-size="11px" fill="#111"></text><text aria-label="lon: 31.8893; lat: 51.2982; short_region: " role="graphics-symbol" aria-roledescription="text mark" text-anchor="middle" transform="translate(323.42063250585375,110.2935376786636)" font-family="sans-serif" font-size="11px" fill="#111"></text><text aria-label="lon: 37.8028; lat: 48.0159; short_region: " role="graphics-symbol" aria-roledescription="text mark" text-anchor="middle" transform="translate(519.8101451807838,278.7661904848055)" font-family="sans-serif" font-size="11px" fill="#111"></text><text aria-label="lon: 31.9946; lat: 47.275; short_region: " role="graphics-symbol" aria-roledescription="text mark" text-anchor="middle" transform="translate(326.91768428308706,315.28919339084086)" font-family="sans-serif" font-size="11px" fill="#111"></text><text aria-label="lon: 39.0078; lat: 48.974; short_region: " role="graphics-symbol" aria-roledescription="text mark" text-anchor="middle" transform="translate(559.8286389278528,230.7492280334816)" font-family="sans-serif" font-size="11px" fill="#111"></text><text aria-label="lon: 34.4708; lat: 45.3657; short_region: " role="graphics-symbol" aria-roledescription="text mark" text-anchor="middle" transform="translate(409.1531981556941,407.1159780091434)" font-family="sans-serif" font-size="11px" fill="#111"></text></g><g class="mark-group role-legend" role="graphics-symbol" aria-roledescription="legend" aria-label="Gradient legend for fill color with values from 0 to 9,392"><g transform="translate(0,-86)"><path class="background" aria-hidden="true" d="M0,0h340v68h-340Z" pointer-events="none"/><g><g class="mark-group role-legend-entry"><g transform="translate(20,20)"><path class="background" aria-hidden="true" d="M0,0h0v0h0Z" pointer-events="none"/><g><g class="mark-rect role-legend-gradient" pointer-events="none"><path d="M0,0h300v16h-300Z" fill="url(#gradient_1)" stroke="#ddd" stroke-width="0" opacity="1"/></g><g class="mark-text role-legend-label" pointer-events="none"><text text-anchor="start" transform="translate(0,26)" font-family="sans-serif" font-size="10px" fill="#000" opacity="1">0</text><text text-anchor="middle" transform="translate(63.88415672913118,26)" font-family="sans-serif" font-size="10px" fill="#000" opacity="1">2,000</text><text text-anchor="middle" transform="translate(127.76831345826236,26)" font-family="sans-serif" font-size="10px" fill="#000" opacity="1">4,000</text><text text-anchor="middle" transform="translate(191.65247018739353,26)" font-family="sans-serif" font-size="10px" fill="#000" opacity="1">6,000</text><text text-anchor="middle" transform="translate(255.5366269165247,26)" font-family="sans-serif" font-size="10px" fill="#000" opacity="1">8,000</text></g></g><path class="foreground" aria-hidden="true" d="" pointer-events="none" display="none"/></g></g></g><path class="foreground" aria-hidden="true" d="" pointer-events="none" display="none"/></g></g><g class="mark-group role-title"><g transform="translate(300,-103)"><path class="background" aria-hidden="true" d="M0,0h0v0h0Z" pointer-events="none"/><g><g class="mark-text role-title-text" role="graphics-symbol" aria-roledescription="title" aria-label="Title text '     2024 .'" pointer-events="none"><text text-anchor="middle" transform="translate(0,10)" font-family="sans-serif" font-size="13px" font-weight="bold" fill="#000" opacity="1">     2024 .</text></g></g><path class="foreground" aria-hidden="true" d="" pointer-events="none" display="none"/></g></g></g><path class="foreground" aria-hidden="true" d="" display="none"/></g></g></g><defs><linearGradient id="gradient_1" x1="0" x2="1" y1="0" y2="0"><stop offset="0" stop-color="rgb(207, 225, 242)"/><stop offset="0.05323679727427598" stop-color="rgb(198, 220, 239)"/><stop offset="0.10647359454855196" stop-color="rgb(189, 215, 236)"/><stop offset="0.15971039182282795" stop-color="rgb(177, 210, 232)"/><stop offset="0.21294718909710392" stop-color="rgb(165, 204, 228)"/><stop offset="0.2661839863713799" stop-color="rgb(151, 197, 224)"/><stop offset="0.3194207836456559" stop-color="rgb(138, 190, 221)"/><stop offset="0.37265758091993184" stop-color="rgb(123, 182, 217)"/><stop offset="0.42589437819420783" stop-color="rgb(110, 174, 213)"/><stop offset="0.4791311754684838" stop-color="rgb(96, 166, 209)"/><stop offset="0.5323679727427598" stop-color="rgb(84, 157, 204)"/><stop offset="0.5856047700170358" stop-color="rgb(72, 148, 199)"/><stop offset="0.6388415672913118" stop-color="rgb(61, 139, 195)"/><stop offset="0.6920783645655877" stop-color="rgb(51, 130, 190)"/><stop offset="0.7453151618398637" stop-color="rgb(41, 121, 184)"/><stop offset="0.7985519591141397" stop-color="rgb(32, 111, 178)"/><stop offset="0.8517887563884157" stop-color="rgb(25, 101, 171)"/><stop offset="0.9050255536626917" stop-color="rgb(18, 91, 163)"/><stop offset="0.9582623509369677" stop-color="rgb(13, 82, 152)"/><stop offset="1" stop-color="rgb(10, 74, 144)"/></linearGradient></defs></svg>