<svg xmlns="http://www.w3.org/2000/svg" xmlns:xlink="http://www.w3.org/1999/xlink" version="1.1" class="marks" width="648" height="469" viewBox="0 0 648 469"><rect width="648" height="469" fill="white"/><g fill="none" stroke-miterlimit="10" transform="translate(42,31)"><g class="mark-group role-frame root" role="graphics-object" aria-roledescription="group mark container"><g transform="translate(0,0)"><path class="background" aria-hidden="true" d="M0,0h600v400h-600Z"/><g><g class="mark-group role-axis" aria-hidden="true"><g transform="translate(0.5,400.5)"><path class="background" aria-hidden="true" d="M0,0h0v0h0Z" pointer-events="none"/><g><g class="mark-rule role-axis-grid" pointer-events="none"><line transform="translate(17,-400)" x2="0" y2="400" stroke="#ddd" stroke-opacity="0.5" stroke-width="1" stroke-dasharray="1,1" opacity="1"/><line transform="translate(51,-400)" x2="0" y2="400" stroke="#ddd" stroke-opacity="0.5" stroke-width="1" stroke-dasharray="1,1" opacity="1"/><line transform="translate(86,-400)" x2="0" y2="400" stroke="#ddd" stroke-opacity="0.5" stroke-width="1" stroke-dasharray="1,1" opacity="1"/><line transform="translate(120,-400)" x2="0" y2="400" stroke="#ddd" stroke-opacity="0.5" stroke-width="1" stroke-dasharray="1,1" opacity="1"/><line transform="translate(154,-400)" x2="0" y2="400" stroke="#ddd" stroke-opacity="0.5" stroke-width="1" stroke-dasharray="1,1" opacity="1"/><line transform="translate(189,-400)" x2="0" y2="400" stroke="#ddd" stroke-opacity="0.5" stroke-width="1" stroke-dasharray="1,1" opacity="1"/><line transform="translate(223,-400)" x2="0" y2="400" stroke="#ddd" stroke-opacity="0.5" stroke-width="1" stroke-dasharray="1,1" opacity="1"/><line transform="translate(257,-400)" x2="0" y2="400" stroke="#ddd" stroke-opacity="0.5" stroke-width="1" stroke-dasharray="1,1" opacity="1"/><line transform="translate(291,-400)" x2="0" y2="400" stroke="#ddd" stroke-opacity="0.5" stroke-width="1" stroke-dasharray="1,1" opacity="1"/><line transform="translate(326,-400)" x2="0" y2="400" stroke="#ddd" stroke-opacity="0.5" stroke-width="1" stroke-dasharray="1,1" opacity="1"/><line transform="translate(360,-400)" x2="0" y2="400" stroke="#ddd" stroke-opacity="0.5" stroke-width="1" stroke-dasharray="1,1" opacity="1"/><line transform="translate(394,-400)" x2="0" y2="400" stroke="#ddd" stroke-opacity="0.5" stroke-width="1" stroke-dasharray="1,1" opacity="1"/><line transform="translate(429,-400)" x2="0" y2="400" stroke="#ddd" stroke-opacity="0.5" stroke-width="1" stroke-dasharray="1,1" opacity="1"/><line transform="translate(463,-400)" x2="0" y2="400" stroke="#ddd" stroke-opacity="0.5" stroke-width="1" stroke-dasharray="1,1" opacity="1"/><line transform="translate(497,-400)" x2="0" y2="400" stroke="#ddd" stroke-opacity="0.5" stroke-width="1" stroke-dasharray="1,1" opacity="1"/><line transform="translate(531,-400)" x2="0" y2="400" stroke="#ddd" stroke-opacity="0.5" stroke-width="1" stroke-dasharray="1,1" opacity="1"/><line transform="translate(566,-400)" x2="0" y2="400" stroke="#ddd" stroke-opacity="0.5" stroke-width="1" stroke-dasharray="1,1" opacity="1"/><line transform="translate(600,-400)" x2="0" y2="400" stroke="#ddd" stroke-opacity="0.5" stroke-width="1" stroke-dasharray="1,1" opacity="1"/></g></g><path class="foreground" aria-hidden="true" d="" pointer-events="none" display="none"/></g></g><g class="mark-group role-axis" aria-hidden="true"><g transform="translate(0.5,0.5)"><path class="background" aria-hidden="true" d="M0,0h0v0h0Z" pointer-events="none"/><g><g class="mark-rule role-axis-grid" pointer-events="none"><line transform="translate(0,400)" x2="600" y2="0" stroke="#ddd" stroke-opacity="0.5" stroke-width="1" stroke-dasharray="1,1" opacity="1"/><line transform="translate(0,343)" x2="600" y2="0" stroke="#ddd" stroke-opacity="0.5" stroke-width="1" stroke-dasharray="1,1" opacity="1"/><line transform="translate(0,286)" x2="600" y2="0" stroke="#ddd" stroke-opacity="0.5" stroke-width="1" stroke-dasharray="1,1" opacity="1"/><line transform="translate(0,229)" x2="600" y2="0" stroke="#ddd" stroke-opacity="0.5" stroke-width="1" stroke-dasharray="1,1" opacity="1"/><line transform="translate(0,171)" x2="600" y2="0" stroke="#ddd" stroke-opacity="0.5" stroke-width="1" stroke-dasharray="1,1" opacity="1"/><line transform="translate(0,114)" x2="600" y2="0" stroke="#ddd" stroke-opacity="0.5" stroke-width="1" stroke-dasharray="1,1" opacity="1"/><line transform="translate(0,57)" x2="600" y2="0" stroke="#ddd" stroke-opacity="0.5" stroke-width="1" stroke-dasharray="1,1" opacity="1"/><line transform="translate(0,0)" x2="600" y2="0" stroke="#ddd" stroke-opacity="0.5" stroke-width="1" stroke-dasharray="1,1" opacity="1"/></g></g><path class="foreground" aria-hidden="true" d="" pointer-events="none" display="none"/></g></g><g class="mark-group role-axis" role="graphics-symbol" aria-roledescription="axis" aria-label="X-axis titled 'Зріст (см)' for a linear scale with values from 155 to 190"><g transform="translate(0.5,400.5)"><path class="background" aria-hidden="true" d="M0,0h0v0h0Z" pointer-events="none"/><g><g class="mark-rule role-axis-tick" pointer-events="none"><line transform="translate(17,0)" x2="0" y2="5" stroke="#888" stroke-width="1" opacity="1"/><line transform="translate(51,0)" x2="0" y2="5" stroke="#888" stroke-width="1" opacity="1"/><line transform="translate(86,0)" x2="0" y2="5" stroke="#888" stroke-width="1" opacity="1"/><line transform="translate(120,0)" x2="0" y2="5" stroke="#888" stroke-width="1" opacity="1"/><line transform="translate(154,0)" x2="0" y2="5" stroke="#888" stroke-width="1" opacity="1"/><line transform="translate(189,0)" x2="0" y2="5" stroke="#888" stroke-width="1" opacity="1"/><line transform="translate(223,0)" x2="0" y2="5" stroke="#888" stroke-width="1" opacity="1"/><line transform="translate(257,0)" x2="0" y2="5" stroke="#888" stroke-width="1" opacity="1"/><line transform="translate(291,0)" x2="0" y2="5" stroke="#888" stroke-width="1" opacity="1"/><line transform="translate(326,0)" x2="0" y2="5" stroke="#888" stroke-width="1" opacity="1"/><line transform="translate(360,0)" x2="0" y2="5" stroke="#888" stroke-width="1" opacity="1"/><line transform="translate(394,0)" x2="0" y2="5" stroke="#888" stroke-width="1" opacity="1"/><line transform="translate(429,0)" x2="0" y2="5" stroke="#888" stroke-width="1" opacity="1"/><line transform="translate(463,0)" x2="0" y2="5" stroke="#888" stroke-width="1" opacity="1"/><line transform="translate(497,0)" x2="0" y2="5" stroke="#888" stroke-width="1" opacity="1"/><line transform="translate(531,0)" x2="0" y2="5" stroke="#888" stroke-width="1" opacity="1"/><line transform="translate(566,0)" x2="0" y2="5" stroke="#888" stroke-width="1" opacity="1"/><line transform="translate(600,0)" x2="0" y2="5" stroke="#888" stroke-width="1" opacity="1"/></g><g class="mark-text role-axis-label" pointer-events="none"><text text-anchor="middle" transform="translate(17.142857142857142,16)" font-family="sans-serif" font-size="11px" fill="#000" opacity="1">156</text><text text-anchor="middle" transform="translate(51.42857142857143,16)" font-family="sans-serif" font-size="11px" fill="#000" opacity="1">158</text><text text-anchor="middle" transform="translate(85.71428571428571,16)" font-family="sans-serif" font-size="11px" fill="#000" opacity="1">160</text><text text-anchor="middle" transform="translate(120,16)" font-family="sans-serif" font-size="11px" fill="#000" opacity="1">162</text><text text-anchor="middle" transform="translate(154.28571428571428,16)" font-family="sans-serif" font-size="11px" fill="#000" opacity="1">164</text><text text-anchor="middle" transform="translate(188.57142857142856,16)" font-family="sans-serif" font-size="11px" fill="#000" opacity="1">166</text><text text-anchor="middle" transform="translate(222.85714285714286,16)" font-family="sans-serif" font-size="11px" fill="#000" opacity="1">168</text><text text-anchor="middle" transform="translate(257.1428571428571,16)" font-family="sans-serif" font-size="11px" fill="#000" opacity="1">170</text><text text-anchor="middle" transform="translate(291.42857142857144,16)" font-family="sans-serif" font-size="11px" fill="#000" opacity="1">172</text><text text-anchor="middle" transform="translate(325.71428571428567,16)" font-family="sans-serif" font-size="11px" fill="#000" opacity="1">174</text><text text-anchor="middle" transform="translate(360,16)" font-family="sans-serif" font-size="11px" fill="#000" opacity="1">176</text><text text-anchor="middle" transform="translate(394.2857142857143,16)" font-family="sans-serif" font-size="11px" fill="#000" opacity="1">178</text><text text-anchor="middle" transform="translate(428.57142857142856,16)" font-family="sans-serif" font-size="11px" fill="#000" opacity="1">180</text><text text-anchor="middle" transform="translate(462.8571428571429,16)" font-family="sans-serif" font-size="11px" fill="#000" opacity="1">182</text><text text-anchor="middle" transform="translate(497.14285714285717,16)" font-family="sans-serif" font-size="11px" fill="#000" opacity="1">184</text><text text-anchor="middle" transform="translate(531.4285714285714,16)" font-family="sans-serif" font-size="11px" fill="#000" opacity="1">186</text><text text-anchor="middle" transform="translate(565.7142857142857,16)" font-family="sans-serif" font-size="11px" fill="#000" opacity="1">188</text><text text-anchor="end" transform="translate(600,16)" font-family="sans-serif" font-size="11px" fill="#000" opacity="1">190</text></g><g class="mark-rule role-axis-domain" pointer-events="none"><line transform="translate(0,0)" x2="600" y2="0" stroke="#888" stroke-width="1" opacity="1"/></g><g class="mark-text role-axis-title" pointer-events="none"><text text-anchor="middle" transform="translate(300,31)" font-family="sans-serif" font-size="12px" font-weight="bold" fill="#000" opacity="1">Зріст (см)</text></g></g><path class="foreground" aria-hidden="true" d="" pointer-events="none" display="none"/></g></g><g class="mark-group role-axis" role="graphics-symbol" aria-roledescription="axis" aria-label="Y-axis titled 'Вага (кг)' for a linear scale with values from 40 to 75"><g transform="translate(0.5,0.5)"><path class="background" aria-hidden="true" d="M0,0h0v0h0Z" pointer-events="none"/><g><g class="mark-rule role-axis-tick" pointer-events="none"><line transform="translate(0,400)" x2="-5" y2="0" stroke="#888" stroke-width="1" opacity="1"/><line transform="translate(0,343)" x2="-5" y2="0" stroke="#888" stroke-width="1" opacity="1"/><line transform="translate(0,286)" x2="-5" y2="0" stroke="#888" stroke-width="1" opacity="1"/><line transform="translate(0,229)" x2="-5" y2="0" stroke="#888" stroke-width="1" opacity="1"/><line transform="translate(0,171)" x2="-5" y2="0" stroke="#888" stroke-width="1" opacity="1"/><line transform="translate(0,114)" x2="-5" y2="0" stroke="#888" stroke-width="1" opacity="1"/><line transform="translate(0,57)" x2="-5" y2="0" stroke="#888" stroke-width="1" opacity="1"/><line transform="translate(0,0)" x2="-5" y2="0" stroke="#888" stroke-width="1" opacity="1"/></g><g class="mark-text role-axis-label" pointer-events="none"><text text-anchor="end" transform="translate(-7,403)" font-family="sans-serif" font-size="11px" fill="#000" opacity="1">40</text><text text-anchor="end" transform="translate(-7,345.8571428571429)" font-family="sans-serif" font-size="11px" fill="#000" opacity="1">45</text><text text-anchor="end" transform="translate(-7,288.7142857142857)" font-family="sans-serif" font-size="11px" fill="#000" opacity="1">50</text><text text-anchor="end" transform="translate(-7,231.57142857142856)" font-family="sans-serif" font-size="11px" fill="#000" opacity="1">55</text><text text-anchor="end" transform="translate(-7,174.42857142857144)" font-family="sans-serif" font-size="11px" fill="#000" opacity="1">60</text><text text-anchor="end" transform="translate(-7,117.28571428571428)" font-family="sans-serif" font-size="11px" fill="#000" opacity="1">65</text><text text-anchor="end" transform="translate(-7,60.14285714285716)" font-family="sans-serif" font-size="11px" fill="#000" opacity="1">70</text><text text-anchor="end" transform="translate(-7,3)" font-family="sans-serif" font-size="11px" fill="#000" opacity="1">75</text></g><g class="mark-rule role-axis-domain" pointer-events="none"><line transform="translate(0,400)" x2="0" y2="-400" stroke="#888" stroke-width="1" opacity="1"/></g><g class="mark-text role-axis-title" pointer-events="none"><text text-anchor="middle" transform="translate(-23.2353515625,200) rotate(-90) translate(0,-3)" font-family="sans-serif" font-size="12px" font-weight="bold" fill="#000" opacity="1">Вага (кг)</text></g></g><path class="foreground" aria-hidden="true" d="" pointer-events="none" display="none"/></g></g><g class="mark-symbol role-mark marks" role="graphics-object" aria-roledescription="symbol mark container"><path aria-label="Height: 167.0812; Weight: 51.25136008; Зріст: 167.1; Вага: 51.3" role="graphics-symbol" aria-roledescription="circle" transform="translate(207.10628571428563,271.4130276571429)" d="M3.162,0A3.162,3.162,0,1,1,-3.162,0A3.162,3.162,0,1,1,3.162,0" fill="#3182bd" stroke-width="2" opacity="1"/><path aria-label="Height: 181.6608; Weight: 61.91077208; Зріст: 181.7; Вага: 61.9" role="graphics-symbol" aria-roledescription="circle" transform="translate(457.0422857142856,149.5911762285714)" d="M3.162,0A3.162,3.162,0,1,1,-3.162,0A3.162,3.162,0,1,1,3.162,0" fill="#3182bd" stroke-width="2" opacity="1"/><path aria-label="Height: 176.276; Weight: 69.41318376; Зріст: 176.3; Вага: 69.4" role="graphics-symbol" aria-roledescription="circle" transform="translate(364.73142857142875,63.8493284571429)" d="M3.162,0A3.162,3.162,0,1,1,-3.162,0A3.162,3.162,0,1,1,3.162,0" fill="#3182bd" stroke-width="2" opacity="1"/><path aria-label="Height: 173.2788; Weight: 64.56428528; Зріст: 173.3; Вага: 64.6" role="graphics-symbol" aria-roledescription="circle" transform="translate(313.35085714285697,119.26531108571439)" d="M3.162,0A3.162,3.162,0,1,1,-3.162,0A3.162,3.162,0,1,1,3.162,0" fill="#3182bd" stroke-width="2" opacity="1"/><path aria-label="Height: 172.1866; Weight: 65.4533256; Зріст: 172.2; Вага: 65.5" role="graphics-symbol" aria-roledescription="circle" transform="translate(294.62742857142854,109.10485028571428)" d="M3.162,0A3.162,3.162,0,1,1,-3.162,0A3.162,3.162,0,1,1,3.162,0" fill="#3182bd" stroke-width="2" opacity="1"/><path aria-label="Height: 174.498; Weight: 55.9278936; Зріст: 174.5; Вага: 55.9" role="graphics-symbol" aria-roledescription="circle" transform="translate(334.2514285714284,217.96693028571434)" d="M3.162,0A3.162,3.162,0,1,1,-3.162,0A3.162,3.162,0,1,1,3.162,0" fill="#3182bd" stroke-width="2" opacity="1"/><path aria-label="Height: 177.292; Weight: 64.17873208; Зріст: 177.3; Вага: 64.2" role="graphics-symbol" aria-roledescription="circle" transform="translate(382.1485714285715,123.67163337142854)" d="M3.162,0A3.162,3.162,0,1,1,-3.162,0A3.162,3.162,0,1,1,3.162,0" fill="#3182bd" stroke-width="2" opacity="1"/><path aria-label="Height: 177.8254; Weight: 61.89716432; Зріст: 177.8; Вага: 61.9" role="graphics-symbol" aria-roledescription="circle" transform="translate(391.2925714285715,149.74669348571425)" d="M3.162,0A3.162,3.162,0,1,1,-3.162,0A3.162,3.162,0,1,1,3.162,0" fill="#3182bd" stroke-width="2" opacity="1"/><path aria-label="Height: 172.466; Weight: 50.97013304; Зріст: 172.5; Вага: 51.0" role="graphics-symbol" aria-roledescription="circle" transform="translate(299.417142857143,274.6270509714286)" d="M3.162,0A3.162,3.162,0,1,1,-3.162,0A3.162,3.162,0,1,1,3.162,0" fill="#3182bd" stroke-width="2" opacity="1"/><path aria-label="Height: 169.6212; Weight: 54.73494664; Зріст: 169.6; Вага: 54.7" role="graphics-symbol" aria-roledescription="circle" transform="translate(250.64914285714264,231.60060982857144)" d="M3.162,0A3.162,3.162,0,1,1,-3.162,0A3.162,3.162,0,1,1,3.162,0" fill="#3182bd" stroke-width="2" opacity="1"/><path aria-label="Height: 168.8846; Weight: 57.8103004; Зріст: 168.9; Вага: 57.8" role="graphics-symbol" aria-roledescription="circle" transform="translate(238.02171428571438,196.45370971428568)" d="M3.162,0A3.162,3.162,0,1,1,-3.162,0A3.162,3.162,0,1,1,3.162,0" fill="#3182bd" stroke-width="2" opacity="1"/><path aria-label="Height: 171.7548; Weight: 51.77299088; Зріст: 171.8; Вага: 51.8" role="graphics-symbol" aria-roledescription="circle" transform="translate(287.22514285714266,265.45153279999994)" d="M3.162,0A3.162,3.162,0,1,1,-3.162,0A3.162,3.162,0,1,1,3.162,0" fill="#3182bd" stroke-width="2" opacity="1"/><path aria-label="Height: 173.482; Weight: 56.97569112; Зріст: 173.5; Вага: 57.0" role="graphics-symbol" aria-roledescription="circle" transform="translate(316.8342857142857,205.99210148571427)" d="M3.162,0A3.162,3.162,0,1,1,-3.162,0A3.162,3.162,0,1,1,3.162,0" fill="#3182bd" stroke-width="2" opacity="1"/><path aria-label="Height: 170.4848; Weight: 55.54687632; Зріст: 170.5; Вага: 55.5" role="graphics-symbol" aria-roledescription="circle" transform="translate(265.4537142857144,222.3214134857143)" d="M3.162,0A3.162,3.162,0,1,1,-3.162,0A3.162,3.162,0,1,1,3.162,0" fill="#3182bd" stroke-width="2" opacity="1"/><path aria-label="Height: 173.4312; Weight: 52.65749528; Зріст: 173.4; Вага: 52.7" role="graphics-symbol" aria-roledescription="circle" transform="translate(315.9634285714284,255.3429110857143)" d="M3.162,0A3.162,3.162,0,1,1,-3.162,0A3.162,3.162,0,1,1,3.162,0" fill="#3182bd" stroke-width="2" opacity="1"/><path aria-label="Height: 180.5686; Weight: 63.50288; Зріст: 180.6; Вага: 63.5" role="graphics-symbol" aria-roledescription="circle" transform="translate(438.3188571428572,131.39565714285717)" d="M3.162,0A3.162,3.162,0,1,1,-3.162,0A3.162,3.162,0,1,1,3.162,0" fill="#3182bd" stroke-width="2" opacity="1"/><path aria-label="Height: 168.8084; Weight: 58.740164; Зріст: 168.8; Вага: 58.7" role="graphics-symbol" aria-roledescription="circle" transform="translate(236.71542857142867,185.82669714285714)" d="M3.162,0A3.162,3.162,0,1,1,-3.162,0A3.162,3.162,0,1,1,3.162,0" fill="#3182bd" stroke-width="2" opacity="1"/><path aria-label="Height: 174.371; Weight: 64.85004824; Зріст: 174.4; Вага: 64.9" role="graphics-symbol" aria-roledescription="circle" transform="translate(332.07428571428585,115.99944868571419)" d="M3.162,0A3.162,3.162,0,1,1,-3.162,0A3.162,3.162,0,1,1,3.162,0" fill="#3182bd" stroke-width="2" opacity="1"/><path aria-label="Height: 180.9242; Weight: 62.5503368; Зріст: 180.9; Вага: 62.6" role="graphics-symbol" aria-roledescription="circle" transform="translate(444.4148571428574,142.28186514285719)" d="M3.162,0A3.162,3.162,0,1,1,-3.162,0A3.162,3.162,0,1,1,3.162,0" fill="#3182bd" stroke-width="2" opacity="1"/><path aria-label="Height: 170.5102; Weight: 56.26355168; Зріст: 170.5; Вага: 56.3" role="graphics-symbol" aria-roledescription="circle" transform="translate(265.8891428571428,214.13083794285717)" d="M3.162,0A3.162,3.162,0,1,1,-3.162,0A3.162,3.162,0,1,1,3.162,0" fill="#3182bd" stroke-width="2" opacity="1"/><path aria-label="Height: 172.2882; Weight: 64.08347776; Зріст: 172.3; Вага: 64.1" role="graphics-symbol" aria-roledescription="circle" transform="translate(296.36914285714266,124.76025417142864)" d="M3.162,0A3.162,3.162,0,1,1,-3.162,0A3.162,3.162,0,1,1,3.162,0" fill="#3182bd" stroke-width="2" opacity="1"/><path aria-label="Height: 174.9552; Weight: 65.10859568; Зріст: 175.0; Вага: 65.1" role="graphics-symbol" aria-roledescription="circle" transform="translate(342.0891428571427,113.04462080000009)" d="M3.162,0A3.162,3.162,0,1,1,-3.162,0A3.162,3.162,0,1,1,3.162,0" fill="#3182bd" stroke-width="2" opacity="1"/><path aria-label="Height: 161.2392; Weight: 44.4066568; Зріст: 161.2; Вага: 44.4" role="graphics-symbol" aria-roledescription="circle" transform="translate(106.95771428571447,349.638208)" d="M3.162,0A3.162,3.162,0,1,1,-3.162,0A3.162,3.162,0,1,1,3.162,0" fill="#3182bd" stroke-width="2" opacity="1"/><path aria-label="Height: 173.7868; Weight: 58.740164; Зріст: 173.8; Вага: 58.7" role="graphics-symbol" aria-roledescription="circle" transform="translate(322.05942857142855,185.82669714285714)" d="M3.162,0A3.162,3.162,0,1,1,-3.162,0A3.162,3.162,0,1,1,3.162,0" fill="#3182bd" stroke-width="2" opacity="1"/><path aria-label="Height: 171.7802; Weight: 64.3420252; Зріст: 171.8; Вага: 64.3" role="graphics-symbol" aria-roledescription="circle" transform="translate(287.66057142857153,121.80542628571436)" d="M3.162,0A3.162,3.162,0,1,1,-3.162,0A3.162,3.162,0,1,1,3.162,0" fill="#3182bd" stroke-width="2" opacity="1"/><path aria-label="Height: 170.7134; Weight: 58.83995424; Зріст: 170.7; Вага: 58.8" role="graphics-symbol" aria-roledescription="circle" transform="translate(269.3725714285716,184.6862372571429)" d="M3.162,0A3.162,3.162,0,1,1,-3.162,0A3.162,3.162,0,1,1,3.162,0" fill="#3182bd" stroke-width="2" opacity="1"/><path aria-label="Height: 179.9336; Weight: 64.60057264; Зріст: 179.9; Вага: 64.6" role="graphics-symbol" aria-roledescription="circle" transform="translate(427.4331428571431,118.85059840000002)" d="M3.162,0A3.162,3.162,0,1,1,-3.162,0A3.162,3.162,0,1,1,3.162,0" fill="#3182bd" stroke-width="2" opacity="1"/><path aria-label="Height: 171.4246; Weight: 59.6700276; Зріст: 171.4; Вага: 59.7" role="graphics-symbol" aria-roledescription="circle" transform="translate(281.5645714285714,175.19968457142858)" d="M3.162,0A3.162,3.162,0,1,1,-3.162,0A3.162,3.162,0,1,1,3.162,0" fill="#3182bd" stroke-width="2" opacity="1"/><path aria-label="Height: 168.9862; Weight: 49.13762136; Зріст: 169.0; Вага: 49.1" role="graphics-symbol" aria-roledescription="circle" transform="translate(239.7634285714285,295.5700416)" d="M3.162,0A3.162,3.162,0,1,1,-3.162,0A3.162,3.162,0,1,1,3.162,0" fill="#3182bd" stroke-width="2" opacity="1"/><path aria-label="Height: 166.2176; Weight: 51.65959288; Зріст: 166.2; Вага: 51.7" role="graphics-symbol" aria-roledescription="circle" transform="translate(192.30171428571435,266.74750994285716)" d="M3.162,0A3.162,3.162,0,1,1,-3.162,0A3.162,3.162,0,1,1,3.162,0" fill="#3182bd" stroke-width="2" opacity="1"/><path aria-label="Height: 176.5808; Weight: 46.8560536; Зріст: 176.6; Вага: 46.9" role="graphics-symbol" aria-roledescription="circle" transform="translate(369.9565714285716,321.6451017142857)" d="M3.162,0A3.162,3.162,0,1,1,-3.162,0A3.162,3.162,0,1,1,3.162,0" fill="#3182bd" stroke-width="2" opacity="1"/><path aria-label="Height: 167.1574; Weight: 54.771234; Зріст: 167.2; Вага: 54.8" role="graphics-symbol" aria-roledescription="circle" transform="translate(208.41257142857134,231.18589714285713)" d="M3.162,0A3.162,3.162,0,1,1,-3.162,0A3.162,3.162,0,1,1,3.162,0" fill="#3182bd" stroke-width="2" opacity="1"/><path aria-label="Height: 172.2628; Weight: 57.05733768; Зріст: 172.3; Вага: 57.1" role="graphics-symbol" aria-roledescription="circle" transform="translate(295.9337142857143,205.0589979428571)" d="M3.162,0A3.162,3.162,0,1,1,-3.162,0A3.162,3.162,0,1,1,3.162,0" fill="#3182bd" stroke-width="2" opacity="1"/><path aria-label="Height: 179.324; Weight: 61.78830224; Зріст: 179.3; Вага: 61.8" role="graphics-symbol" aria-roledescription="circle" transform="translate(416.98285714285737,150.99083154285717)" d="M3.162,0A3.162,3.162,0,1,1,-3.162,0A3.162,3.162,0,1,1,3.162,0" fill="#3182bd" stroke-width="2" opacity="1"/><path aria-label="Height: 182.372; Weight: 63.5482392; Зріст: 182.4; Вага: 63.5" role="graphics-symbol" aria-roledescription="circle" transform="translate(469.23428571428593,130.8772662857143)" d="M3.162,0A3.162,3.162,0,1,1,-3.162,0A3.162,3.162,0,1,1,3.162,0" fill="#3182bd" stroke-width="2" opacity="1"/><path aria-label="Height: 175.7934; Weight: 58.39997; Зріст: 175.8; Вага: 58.4" role="graphics-symbol" aria-roledescription="circle" transform="translate(356.4582857142856,189.71462857142853)" d="M3.162,0A3.162,3.162,0,1,1,-3.162,0A3.162,3.162,0,1,1,3.162,0" fill="#3182bd" stroke-width="2" opacity="1"/><path aria-label="Height: 169.672; Weight: 64.3193456; Зріст: 169.7; Вага: 64.3" role="graphics-symbol" aria-roledescription="circle" transform="translate(251.51999999999995,122.06462171428565)" d="M3.162,0A3.162,3.162,0,1,1,-3.162,0A3.162,3.162,0,1,1,3.162,0" fill="#3182bd" stroke-width="2" opacity="1"/><path aria-label="Height: 171.8564; Weight: 54.98895816; Зріст: 171.9; Вага: 55.0" role="graphics-symbol" aria-roledescription="circle" transform="translate(288.9668571428573,228.69762102857143)" d="M3.162,0A3.162,3.162,0,1,1,-3.162,0A3.162,3.162,0,1,1,3.162,0" fill="#3182bd" stroke-width="2" opacity="1"/><path aria-label="Height: 172.2374; Weight: 59.5793092; Зріст: 172.2; Вага: 59.6" role="graphics-symbol" aria-roledescription="circle" transform="translate(295.4982857142858,176.23646628571433)" d="M3.162,0A3.162,3.162,0,1,1,-3.162,0A3.162,3.162,0,1,1,3.162,0" fill="#3182bd" stroke-width="2" opacity="1"/><path aria-label="Height: 162.687; Weight: 48.40280232; Зріст: 162.7; Вага: 48.4" role="graphics-symbol" aria-roledescription="circle" transform="translate(131.77714285714305,303.96797348571425)" d="M3.162,0A3.162,3.162,0,1,1,-3.162,0A3.162,3.162,0,1,1,3.162,0" fill="#3182bd" stroke-width="2" opacity="1"/><path aria-label="Height: 174.1678; Weight: 56.40870112; Зріст: 174.2; Вага: 56.4" role="graphics-symbol" aria-roledescription="circle" transform="translate(328.59085714285715,212.47198719999994)" d="M3.162,0A3.162,3.162,0,1,1,-3.162,0A3.162,3.162,0,1,1,3.162,0" fill="#3182bd" stroke-width="2" opacity="1"/><path aria-label="Height: 165.5572; Weight: 56.63549712; Зріст: 165.6; Вага: 56.6" role="graphics-symbol" aria-roledescription="circle" transform="translate(180.98057142857135,209.88003291428578)" d="M3.162,0A3.162,3.162,0,1,1,-3.162,0A3.162,3.162,0,1,1,3.162,0" fill="#3182bd" stroke-width="2" opacity="1"/><path aria-label="Height: 176.9364; Weight: 63.35319464; Зріст: 176.9; Вага: 63.4" role="graphics-symbol" aria-roledescription="circle" transform="translate(376.0525714285713,133.1063469714286)" d="M3.162,0A3.162,3.162,0,1,1,-3.162,0A3.162,3.162,0,1,1,3.162,0" fill="#3182bd" stroke-width="2" opacity="1"/><path aria-label="Height: 172.6438; Weight: 62.30993304; Зріст: 172.6; Вага: 62.3" role="graphics-symbol" aria-roledescription="circle" transform="translate(302.46514285714284,145.02933668571433)" d="M3.162,0A3.162,3.162,0,1,1,-3.162,0A3.162,3.162,0,1,1,3.162,0" fill="#3182bd" stroke-width="2" opacity="1"/><path aria-label="Height: 167.5892; Weight: 48.2848684; Зріст: 167.6; Вага: 48.3" role="graphics-symbol" aria-roledescription="circle" transform="translate(215.81485714285722,305.3157897142857)" d="M3.162,0A3.162,3.162,0,1,1,-3.162,0A3.162,3.162,0,1,1,3.162,0" fill="#3182bd" stroke-width="2" opacity="1"/><path aria-label="Height: 174.4218; Weight: 58.40450592; Зріст: 174.4; Вага: 58.4" role="graphics-symbol" aria-roledescription="circle" transform="translate(332.94514285714274,189.6627894857143)" d="M3.162,0A3.162,3.162,0,1,1,-3.162,0A3.162,3.162,0,1,1,3.162,0" fill="#3182bd" stroke-width="2" opacity="1"/><path aria-label="Height: 169.8752; Weight: 66.07928256; Зріст: 169.9; Вага: 66.1" role="graphics-symbol" aria-roledescription="circle" transform="translate(255.00342857142869,101.95105645714291)" d="M3.162,0A3.162,3.162,0,1,1,-3.162,0A3.162,3.162,0,1,1,3.162,0" fill="#3182bd" stroke-width="2" opacity="1"/><path aria-label="Height: 171.958; Weight: 52.98861744; Зріст: 172.0; Вага: 53.0" role="graphics-symbol" aria-roledescription="circle" transform="translate(290.7085714285714,251.55865782857143)" d="M3.162,0A3.162,3.162,0,1,1,-3.162,0A3.162,3.162,0,1,1,3.162,0" fill="#3182bd" stroke-width="2" opacity="1"/><path aria-label="Height: 177.3428; Weight: 65.14488304; Зріст: 177.3; Вага: 65.1" role="graphics-symbol" aria-roledescription="circle" transform="translate(383.01942857142876,112.62990811428577)" d="M3.162,0A3.162,3.162,0,1,1,-3.162,0A3.162,3.162,0,1,1,3.162,0" fill="#3182bd" stroke-width="2" opacity="1"/><path aria-label="Height: 175.4886; Weight: 61.20316856; Зріст: 175.5; Вага: 61.2" role="graphics-symbol" aria-roledescription="circle" transform="translate(351.2331428571427,157.6780736)" d="M3.162,0A3.162,3.162,0,1,1,-3.162,0A3.162,3.162,0,1,1,3.162,0" fill="#3182bd" stroke-width="2" opacity="1"/><path aria-label="Height: 177.5714; Weight: 66.68709584; Зріст: 177.6; Вага: 66.7" role="graphics-symbol" aria-roledescription="circle" transform="translate(386.9382857142859,95.0046189714286)" d="M3.162,0A3.162,3.162,0,1,1,-3.162,0A3.162,3.162,0,1,1,3.162,0" fill="#3182bd" stroke-width="2" opacity="1"/><path aria-label="Height: 171.0182; Weight: 57.30227736; Зріст: 171.0; Вага: 57.3" role="graphics-symbol" aria-roledescription="circle" transform="translate(274.5977142857144,202.25968731428577)" d="M3.162,0A3.162,3.162,0,1,1,-3.162,0A3.162,3.162,0,1,1,3.162,0" fill="#3182bd" stroke-width="2" opacity="1"/><path aria-label="Height: 178.4858; Weight: 56.91672416; Зріст: 178.5; Вага: 56.9" role="graphics-symbol" aria-roledescription="circle" transform="translate(402.6137142857145,206.66600959999997)" d="M3.162,0A3.162,3.162,0,1,1,-3.162,0A3.162,3.162,0,1,1,3.162,0" fill="#3182bd" stroke-width="2" opacity="1"/><path aria-label="Height: 175.514; Weight: 52.48513032; Зріст: 175.5; Вага: 52.5" role="graphics-symbol" aria-roledescription="circle" transform="translate(351.6685714285716,257.3127963428571)" d="M3.162,0A3.162,3.162,0,1,1,-3.162,0A3.162,3.162,0,1,1,3.162,0" fill="#3182bd" stroke-width="2" opacity="1"/><path aria-label="Height: 166.0652; Weight: 56.01407608; Зріст: 166.1; Вага: 56.0" role="graphics-symbol" aria-roledescription="circle" transform="translate(189.68914285714294,216.98198765714284)" d="M3.162,0A3.162,3.162,0,1,1,-3.162,0A3.162,3.162,0,1,1,3.162,0" fill="#3182bd" stroke-width="2" opacity="1"/><path aria-label="Height: 178.2572; Weight: 67.08172088; Зріст: 178.3; Вага: 67.1" role="graphics-symbol" aria-roledescription="circle" transform="translate(398.69485714285736,90.49461851428563)" d="M3.162,0A3.162,3.162,0,1,1,-3.162,0A3.162,3.162,0,1,1,3.162,0" fill="#3182bd" stroke-width="2" opacity="1"/><path aria-label="Height: 178.8414; Weight: 70.7149928; Зріст: 178.8; Вага: 70.7" role="graphics-symbol" aria-roledescription="circle" transform="translate(408.7097142857142,48.97151085714282)" d="M3.162,0A3.162,3.162,0,1,1,-3.162,0A3.162,3.162,0,1,1,3.162,0" fill="#3182bd" stroke-width="2" opacity="1"/><path aria-label="Height: 169.0116; Weight: 58.09152744; Зріст: 169.0; Вага: 58.1" role="graphics-symbol" aria-roledescription="circle" transform="translate(240.19885714285692,193.23968639999998)" d="M3.162,0A3.162,3.162,0,1,1,-3.162,0A3.162,3.162,0,1,1,3.162,0" fill="#3182bd" stroke-width="2" opacity="1"/><path aria-label="Height: 168.5544; Weight: 54.14527704; Зріст: 168.6; Вага: 54.1" role="graphics-symbol" aria-roledescription="circle" transform="translate(232.36114285714265,238.33969097142855)" d="M3.162,0A3.162,3.162,0,1,1,-3.162,0A3.162,3.162,0,1,1,3.162,0" fill="#3182bd" stroke-width="2" opacity="1"/><path aria-label="Height: 171.5516; Weight: 60.69514552; Зріст: 171.6; Вага: 60.7" role="graphics-symbol" aria-roledescription="circle" transform="translate(283.7417142857144,163.4840512)" d="M3.162,0A3.162,3.162,0,1,1,-3.162,0A3.162,3.162,0,1,1,3.162,0" fill="#3182bd" stroke-width="2" opacity="1"/><path aria-label="Height: 168.91; Weight: 58.39089816; Зріст: 168.9; Вага: 58.4" role="graphics-symbol" aria-roledescription="circle" transform="translate(238.4571428571428,189.81830674285715)" d="M3.162,0A3.162,3.162,0,1,1,-3.162,0A3.162,3.162,0,1,1,3.162,0" fill="#3182bd" stroke-width="2" opacity="1"/><path aria-label="Height: 175.26; Weight: 62.3915796; Зріст: 175.3; Вага: 62.4" role="graphics-symbol" aria-roledescription="circle" transform="translate(347.3142857142856,144.09623314285716)" d="M3.162,0A3.162,3.162,0,1,1,-3.162,0A3.162,3.162,0,1,1,3.162,0" fill="#3182bd" stroke-width="2" opacity="1"/><path aria-label="Height: 173.482; Weight: 58.85809792; Зріст: 173.5; Вага: 58.9" role="graphics-symbol" aria-roledescription="circle" transform="translate(316.8342857142857,184.47888091428575)" d="M3.162,0A3.162,3.162,0,1,1,-3.162,0A3.162,3.162,0,1,1,3.162,0" fill="#3182bd" stroke-width="2" opacity="1"/><path aria-label="Height: 170.2054; Weight: 58.43172144; Зріст: 170.2; Вага: 58.4" role="graphics-symbol" aria-roledescription="circle" transform="translate(260.664,189.35175497142862)" d="M3.162,0A3.162,3.162,0,1,1,-3.162,0A3.162,3.162,0,1,1,3.162,0" fill="#3182bd" stroke-width="2" opacity="1"/><path aria-label="Height: 179.8574; Weight: 61.38006944; Зріст: 179.9; Вага: 61.4" role="graphics-symbol" aria-roledescription="circle" transform="translate(426.1268571428574,155.65634925714286)" d="M3.162,0A3.162,3.162,0,1,1,-3.162,0A3.162,3.162,0,1,1,3.162,0" fill="#3182bd" stroke-width="2" opacity="1"/><path aria-label="Height: 173.2788; Weight: 49.71821912; Зріст: 173.3; Вага: 49.7" role="graphics-symbol" aria-roledescription="circle" transform="translate(313.35085714285697,288.9346386285714)" d="M3.162,0A3.162,3.162,0,1,1,-3.162,0A3.162,3.162,0,1,1,3.162,0" fill="#3182bd" stroke-width="2" opacity="1"/><path aria-label="Height: 175.4124; Weight: 64.62325224; Зріст: 175.4; Вага: 64.6" role="graphics-symbol" aria-roledescription="circle" transform="translate(349.926857142857,118.59140297142856)" d="M3.162,0A3.162,3.162,0,1,1,-3.162,0A3.162,3.162,0,1,1,3.162,0" fill="#3182bd" stroke-width="2" opacity="1"/><path aria-label="Height: 172.0342; Weight: 60.214338; Зріст: 172.0; Вага: 60.2" role="graphics-symbol" aria-roledescription="circle" transform="translate(292.0148571428571,168.97899428571432)" d="M3.162,0A3.162,3.162,0,1,1,-3.162,0A3.162,3.162,0,1,1,3.162,0" fill="#3182bd" stroke-width="2" opacity="1"/><path aria-label="Height: 170.7388; Weight: 73.96037976; Зріст: 170.7; Вага: 74.0" role="graphics-symbol" aria-roledescription="circle" transform="translate(269.80799999999994,11.881374171428627)" d="M3.162,0A3.162,3.162,0,1,1,-3.162,0A3.162,3.162,0,1,1,3.162,0" fill="#3182bd" stroke-width="2" opacity="1"/><path aria-label="Height: 171.1198; Weight: 56.57653016; Зріст: 171.1; Вага: 56.6" role="graphics-symbol" aria-roledescription="circle" transform="translate(276.3394285714285,210.55394102857144)" d="M3.162,0A3.162,3.162,0,1,1,-3.162,0A3.162,3.162,0,1,1,3.162,0" fill="#3182bd" stroke-width="2" opacity="1"/><path aria-label="Height: 165.7858; Weight: 58.65398152; Зріст: 165.8; Вага: 58.7" role="graphics-symbol" aria-roledescription="circle" transform="translate(184.8994285714285,186.81163977142856)" d="M3.162,0A3.162,3.162,0,1,1,-3.162,0A3.162,3.162,0,1,1,3.162,0" fill="#3182bd" stroke-width="2" opacity="1"/><path aria-label="Height: 179.9336; Weight: 60.79039984; Зріст: 179.9; Вага: 60.8" role="graphics-symbol" aria-roledescription="circle" transform="translate(427.4331428571431,162.3954304)" d="M3.162,0A3.162,3.162,0,1,1,-3.162,0A3.162,3.162,0,1,1,3.162,0" fill="#3182bd" stroke-width="2" opacity="1"/><path aria-label="Height: 177.5968; Weight: 63.6843168; Зріст: 177.6; Вага: 63.7" role="graphics-symbol" aria-roledescription="circle" transform="translate(387.3737142857143,129.32209371428573)" d="M3.162,0A3.162,3.162,0,1,1,-3.162,0A3.162,3.162,0,1,1,3.162,0" fill="#3182bd" stroke-width="2" opacity="1"/><path aria-label="Height: 163.2966; Weight: 46.64740128; Зріст: 163.3; Вага: 46.6" role="graphics-symbol" aria-roledescription="circle" transform="translate(142.2274285714288,324.0296996571429)" d="M3.162,0A3.162,3.162,0,1,1,-3.162,0A3.162,3.162,0,1,1,3.162,0" fill="#3182bd" stroke-width="2" opacity="1"/><path aria-label="Height: 173.355; Weight: 58.29564384; Зріст: 173.4; Вага: 58.3" role="graphics-symbol" aria-roledescription="circle" transform="translate(314.6571428571427,190.90692754285718)" d="M3.162,0A3.162,3.162,0,1,1,-3.162,0A3.162,3.162,0,1,1,3.162,0" fill="#3182bd" stroke-width="2" opacity="1"/><path aria-label="Height: 168.5544; Weight: 54.5671176; Зріст: 168.6; Вага: 54.6" role="graphics-symbol" aria-roledescription="circle" transform="translate(232.36114285714265,233.51865599999994)" d="M3.162,0A3.162,3.162,0,1,1,-3.162,0A3.162,3.162,0,1,1,3.162,0" fill="#3182bd" stroke-width="2" opacity="1"/><path aria-label="Height: 173.6344; Weight: 62.8678512; Зріст: 173.6; Вага: 62.9" role="graphics-symbol" aria-roledescription="circle" transform="translate(319.44685714285714,138.65312914285715)" d="M3.162,0A3.162,3.162,0,1,1,-3.162,0A3.162,3.162,0,1,1,3.162,0" fill="#3182bd" stroke-width="2" opacity="1"/><path aria-label="Height: 166.3192; Weight: 60.30959232; Зріст: 166.3; Вага: 60.3" role="graphics-symbol" aria-roledescription="circle" transform="translate(194.04342857142848,167.89037348571426)" d="M3.162,0A3.162,3.162,0,1,1,-3.162,0A3.162,3.162,0,1,1,3.162,0" fill="#3182bd" stroke-width="2" opacity="1"/><path aria-label="Height: 177.0888; Weight: 52.44430704; Зріст: 177.1; Вага: 52.4" role="graphics-symbol" aria-roledescription="circle" transform="translate(378.66514285714277,257.7793481142857)" d="M3.162,0A3.162,3.162,0,1,1,-3.162,0A3.162,3.162,0,1,1,3.162,0" fill="#3182bd" stroke-width="2" opacity="1"/><path aria-label="Height: 172.0342; Weight: 55.57409184; Зріст: 172.0; Вага: 55.6" role="graphics-symbol" aria-roledescription="circle" transform="translate(292.0148571428571,222.0103789714286)" d="M3.162,0A3.162,3.162,0,1,1,-3.162,0A3.162,3.162,0,1,1,3.162,0" fill="#3182bd" stroke-width="2" opacity="1"/><path aria-label="Height: 174.3456; Weight: 61.06709096; Зріст: 174.3; Вага: 61.1" role="graphics-symbol" aria-roledescription="circle" transform="translate(331.638857142857,159.23324617142853)" d="M3.162,0A3.162,3.162,0,1,1,-3.162,0A3.162,3.162,0,1,1,3.162,0" fill="#3182bd" stroke-width="2" opacity="1"/><path aria-label="Height: 169.6212; Weight: 55.2928648; Зріст: 169.6; Вага: 55.3" role="graphics-symbol" aria-roledescription="circle" transform="translate(250.64914285714264,225.2244022857143)" d="M3.162,0A3.162,3.162,0,1,1,-3.162,0A3.162,3.162,0,1,1,3.162,0" fill="#3182bd" stroke-width="2" opacity="1"/><path aria-label="Height: 177.927; Weight: 70.47912496; Зріст: 177.9; Вага: 70.5" role="graphics-symbol" aria-roledescription="circle" transform="translate(393.0342857142856,51.66714331428581)" d="M3.162,0A3.162,3.162,0,1,1,-3.162,0A3.162,3.162,0,1,1,3.162,0" fill="#3182bd" stroke-width="2" opacity="1"/><path aria-label="Height: 168.3512; Weight: 58.48615248; Зріст: 168.4; Вага: 58.5" role="graphics-symbol" aria-roledescription="circle" transform="translate(228.8777142857144,188.72968594285715)" d="M3.162,0A3.162,3.162,0,1,1,-3.162,0A3.162,3.162,0,1,1,3.162,0" fill="#3182bd" stroke-width="2" opacity="1"/><path aria-label="Height: 175.768; Weight: 58.5587272; Зріст: 175.8; Вага: 58.6" role="graphics-symbol" aria-roledescription="circle" transform="translate(356.0228571428571,187.90026057142856)" d="M3.162,0A3.162,3.162,0,1,1,-3.162,0A3.162,3.162,0,1,1,3.162,0" fill="#3182bd" stroke-width="2" opacity="1"/></g><g class="mark-group role-title"><g transform="translate(300,-26)"><path class="background" aria-hidden="true" d="M0,0h0v0h0Z" pointer-events="none"/><g><g class="mark-text role-title-text" role="graphics-symbol" aria-roledescription="title" aria-label="Title text 'Вага та зріст 85 осіб'" pointer-events="none"><text text-anchor="middle" transform="translate(0,13)" font-family="sans-serif" font-size="16px" font-weight="bold" fill="#000" opacity="1">Вага та зріст 85 осіб</text></g></g><path class="foreground" aria-hidden="true" d="" pointer-events="none" display="none"/></g></g></g><path class="foreground" aria-hidden="true" d="" display="none"/></g></g></g></svg>