<svg xmlns="http://www.w3.org/2000/svg" xmlns:xlink="http://www.w3.org/1999/xlink" version="1.1" class="marks" width="848" height="469" viewBox="0 0 848 469"><rect width="848" height="469" fill="white"/><g fill="none" stroke-miterlimit="10" transform="translate(42,31)"><g class="mark-group role-frame root" role="graphics-object" aria-roledescription="group mark container"><g transform="translate(0,0)"><path class="background" aria-hidden="true" d="M0,0h800v400h-800Z"/><g><g class="mark-group role-axis" aria-hidden="true"><g transform="translate(0.5,400.5)"><path class="background" aria-hidden="true" d="M0,0h0v0h0Z" pointer-events="none"/><g><g class="mark-rule role-axis-grid" pointer-events="none"><line transform="translate(23,-400)" x2="0" y2="400" stroke="#ddd" stroke-opacity="0.5" stroke-width="1" stroke-dasharray="1,1" opacity="1"/><line transform="translate(69,-400)" x2="0" y2="400" stroke="#ddd" stroke-opacity="0.5" stroke-width="1" stroke-dasharray="1,1" opacity="1"/><line transform="translate(114,-400)" x2="0" y2="400" stroke="#ddd" stroke-opacity="0.5" stroke-width="1" stroke-dasharray="1,1" opacity="1"/><line transform="translate(160,-400)" x2="0" y2="400" stroke="#ddd" stroke-opacity="0.5" stroke-width="1" stroke-dasharray="1,1" opacity="1"/><line transform="translate(206,-400)" x2="0" y2="400" stroke="#ddd" stroke-opacity="0.5" stroke-width="1" stroke-dasharray="1,1" opacity="1"/><line transform="translate(251,-400)" x2="0" y2="400" stroke="#ddd" stroke-opacity="0.5" stroke-width="1" stroke-dasharray="1,1" opacity="1"/><line transform="translate(297,-400)" x2="0" y2="400" stroke="#ddd" stroke-opacity="0.5" stroke-width="1" stroke-dasharray="1,1" opacity="1"/><line transform="translate(343,-400)" x2="0" y2="400" stroke="#ddd" stroke-opacity="0.5" stroke-width="1" stroke-dasharray="1,1" opacity="1"/><line transform="translate(389,-400)" x2="0" y2="400" stroke="#ddd" stroke-opacity="0.5" stroke-width="1" stroke-dasharray="1,1" opacity="1"/><line transform="translate(434,-400)" x2="0" y2="400" stroke="#ddd" stroke-opacity="0.5" stroke-width="1" stroke-dasharray="1,1" opacity="1"/><line transform="translate(480,-400)" x2="0" y2="400" stroke="#ddd" stroke-opacity="0.5" stroke-width="1" stroke-dasharray="1,1" opacity="1"/><line transform="translate(526,-400)" x2="0" y2="400" stroke="#ddd" stroke-opacity="0.5" stroke-width="1" stroke-dasharray="1,1" opacity="1"/><line transform="translate(571,-400)" x2="0" y2="400" stroke="#ddd" stroke-opacity="0.5" stroke-width="1" stroke-dasharray="1,1" opacity="1"/><line transform="translate(617,-400)" x2="0" y2="400" stroke="#ddd" stroke-opacity="0.5" stroke-width="1" stroke-dasharray="1,1" opacity="1"/><line transform="translate(663,-400)" x2="0" y2="400" stroke="#ddd" stroke-opacity="0.5" stroke-width="1" stroke-dasharray="1,1" opacity="1"/><line transform="translate(709,-400)" x2="0" y2="400" stroke="#ddd" stroke-opacity="0.5" stroke-width="1" stroke-dasharray="1,1" opacity="1"/><line transform="translate(754,-400)" x2="0" y2="400" stroke="#ddd" stroke-opacity="0.5" stroke-width="1" stroke-dasharray="1,1" opacity="1"/><line transform="translate(800,-400)" x2="0" y2="400" stroke="#ddd" stroke-opacity="0.5" stroke-width="1" stroke-dasharray="1,1" opacity="1"/></g></g><path class="foreground" aria-hidden="true" d="" pointer-events="none" display="none"/></g></g><g class="mark-group role-axis" aria-hidden="true"><g transform="translate(0.5,0.5)"><path class="background" aria-hidden="true" d="M0,0h0v0h0Z" pointer-events="none"/><g><g class="mark-rule role-axis-grid" pointer-events="none"><line transform="translate(0,400)" x2="800" y2="0" stroke="#ddd" stroke-opacity="0.5" stroke-width="1" stroke-dasharray="1,1" opacity="1"/><line transform="translate(0,343)" x2="800" y2="0" stroke="#ddd" stroke-opacity="0.5" stroke-width="1" stroke-dasharray="1,1" opacity="1"/><line transform="translate(0,286)" x2="800" y2="0" stroke="#ddd" stroke-opacity="0.5" stroke-width="1" stroke-dasharray="1,1" opacity="1"/><line transform="translate(0,229)" x2="800" y2="0" stroke="#ddd" stroke-opacity="0.5" stroke-width="1" stroke-dasharray="1,1" opacity="1"/><line transform="translate(0,171)" x2="800" y2="0" stroke="#ddd" stroke-opacity="0.5" stroke-width="1" stroke-dasharray="1,1" opacity="1"/><line transform="translate(0,114)" x2="800" y2="0" stroke="#ddd" stroke-opacity="0.5" stroke-width="1" stroke-dasharray="1,1" opacity="1"/><line transform="translate(0,57)" x2="800" y2="0" stroke="#ddd" stroke-opacity="0.5" stroke-width="1" stroke-dasharray="1,1" opacity="1"/><line transform="translate(0,0)" x2="800" y2="0" stroke="#ddd" stroke-opacity="0.5" stroke-width="1" stroke-dasharray="1,1" opacity="1"/></g></g><path class="foreground" aria-hidden="true" d="" pointer-events="none" display="none"/></g></g><g class="mark-group role-axis" role="graphics-symbol" aria-roledescription="axis" aria-label="X-axis titled 'Зріст (см)' for a linear scale with values from 155 to 190"><g transform="translate(0.5,400.5)"><path class="background" aria-hidden="true" d="M0,0h0v0h0Z" pointer-events="none"/><g><g class="mark-rule role-axis-tick" pointer-events="none"><line transform="translate(23,0)" x2="0" y2="5" stroke="#888" stroke-width="1" opacity="1"/><line transform="translate(69,0)" x2="0" y2="5" stroke="#888" stroke-width="1" opacity="1"/><line transform="translate(114,0)" x2="0" y2="5" stroke="#888" stroke-width="1" opacity="1"/><line transform="translate(160,0)" x2="0" y2="5" stroke="#888" stroke-width="1" opacity="1"/><line transform="translate(206,0)" x2="0" y2="5" stroke="#888" stroke-width="1" opacity="1"/><line transform="translate(251,0)" x2="0" y2="5" stroke="#888" stroke-width="1" opacity="1"/><line transform="translate(297,0)" x2="0" y2="5" stroke="#888" stroke-width="1" opacity="1"/><line transform="translate(343,0)" x2="0" y2="5" stroke="#888" stroke-width="1" opacity="1"/><line transform="translate(389,0)" x2="0" y2="5" stroke="#888" stroke-width="1" opacity="1"/><line transform="translate(434,0)" x2="0" y2="5" stroke="#888" stroke-width="1" opacity="1"/><line transform="translate(480,0)" x2="0" y2="5" stroke="#888" stroke-width="1" opacity="1"/><line transform="translate(526,0)" x2="0" y2="5" stroke="#888" stroke-width="1" opacity="1"/><line transform="translate(571,0)" x2="0" y2="5" stroke="#888" stroke-width="1" opacity="1"/><line transform="translate(617,0)" x2="0" y2="5" stroke="#888" stroke-width="1" opacity="1"/><line transform="translate(663,0)" x2="0" y2="5" stroke="#888" stroke-width="1" opacity="1"/><line transform="translate(709,0)" x2="0" y2="5" stroke="#888" stroke-width="1" opacity="1"/><line transform="translate(754,0)" x2="0" y2="5" stroke="#888" stroke-width="1" opacity="1"/><line transform="translate(800,0)" x2="0" y2="5" stroke="#888" stroke-width="1" opacity="1"/></g><g class="mark-text role-axis-label" pointer-events="none"><text text-anchor="middle" transform="translate(22.857142857142858,16)" font-family="sans-serif" font-size="11px" fill="#000" opacity="1">156</text><text text-anchor="middle" transform="translate(68.57142857142857,16)" font-family="sans-serif" font-size="11px" fill="#000" opacity="1">158</text><text text-anchor="middle" transform="translate(114.28571428571428,16)" font-family="sans-serif" font-size="11px" fill="#000" opacity="1">160</text><text text-anchor="middle" transform="translate(160,16)" font-family="sans-serif" font-size="11px" fill="#000" opacity="1">162</text><text text-anchor="middle" transform="translate(205.7142857142857,16)" font-family="sans-serif" font-size="11px" fill="#000" opacity="1">164</text><text text-anchor="middle" transform="translate(251.42857142857142,16)" font-family="sans-serif" font-size="11px" fill="#000" opacity="1">166</text><text text-anchor="middle" transform="translate(297.14285714285717,16)" font-family="sans-serif" font-size="11px" fill="#000" opacity="1">168</text><text text-anchor="middle" transform="translate(342.85714285714283,16)" font-family="sans-serif" font-size="11px" fill="#000" opacity="1">170</text><text text-anchor="middle" transform="translate(388.57142857142856,16)" font-family="sans-serif" font-size="11px" fill="#000" opacity="1">172</text><text text-anchor="middle" transform="translate(434.2857142857143,16)" font-family="sans-serif" font-size="11px" fill="#000" opacity="1">174</text><text text-anchor="middle" transform="translate(480,16)" font-family="sans-serif" font-size="11px" fill="#000" opacity="1">176</text><text text-anchor="middle" transform="translate(525.7142857142857,16)" font-family="sans-serif" font-size="11px" fill="#000" opacity="1">178</text><text text-anchor="middle" transform="translate(571.4285714285714,16)" font-family="sans-serif" font-size="11px" fill="#000" opacity="1">180</text><text text-anchor="middle" transform="translate(617.1428571428572,16)" font-family="sans-serif" font-size="11px" fill="#000" opacity="1">182</text><text text-anchor="middle" transform="translate(662.8571428571429,16)" font-family="sans-serif" font-size="11px" fill="#000" opacity="1">184</text><text text-anchor="middle" transform="translate(708.5714285714286,16)" font-family="sans-serif" font-size="11px" fill="#000" opacity="1">186</text><text text-anchor="middle" transform="translate(754.2857142857142,16)" font-family="sans-serif" font-size="11px" fill="#000" opacity="1">188</text><text text-anchor="end" transform="translate(800,16)" font-family="sans-serif" font-size="11px" fill="#000" opacity="1">190</text></g><g class="mark-rule role-axis-domain" pointer-events="none"><line transform="translate(0,0)" x2="800" y2="0" stroke="#888" stroke-width="1" opacity="1"/></g><g class="mark-text role-axis-title" pointer-events="none"><text text-anchor="middle" transform="translate(400,31)" font-family="sans-serif" font-size="12px" font-weight="bold" fill="#000" opacity="1">Зріст (см)</text></g></g><path class="foreground" aria-hidden="true" d="" pointer-events="none" display="none"/></g></g><g class="mark-group role-axis" role="graphics-symbol" aria-roledescription="axis" aria-label="Y-axis titled 'Вага (кг)' for a linear scale with values from 40 to 75"><g transform="translate(0.5,0.5)"><path class="background" aria-hidden="true" d="M0,0h0v0h0Z" pointer-events="none"/><g><g class="mark-rule role-axis-tick" pointer-events="none"><line transform="translate(0,400)" x2="-5" y2="0" stroke="#888" stroke-width="1" opacity="1"/><line transform="translate(0,343)" x2="-5" y2="0" stroke="#888" stroke-width="1" opacity="1"/><line transform="translate(0,286)" x2="-5" y2="0" stroke="#888" stroke-width="1" opacity="1"/><line transform="translate(0,229)" x2="-5" y2="0" stroke="#888" stroke-width="1" opacity="1"/><line transform="translate(0,171)" x2="-5" y2="0" stroke="#888" stroke-width="1" opacity="1"/><line transform="translate(0,114)" x2="-5" y2="0" stroke="#888" stroke-width="1" opacity="1"/><line transform="translate(0,57)" x2="-5" y2="0" stroke="#888" stroke-width="1" opacity="1"/><line transform="translate(0,0)" x2="-5" y2="0" stroke="#888" stroke-width="1" opacity="1"/></g><g class="mark-text role-axis-label" pointer-events="none"><text text-anchor="end" transform="translate(-7,403)" font-family="sans-serif" font-size="11px" fill="#000" opacity="1">40</text><text text-anchor="end" transform="translate(-7,345.8571428571429)" font-family="sans-serif" font-size="11px" fill="#000" opacity="1">45</text><text text-anchor="end" transform="translate(-7,288.7142857142857)" font-family="sans-serif" font-size="11px" fill="#000" opacity="1">50</text><text text-anchor="end" transform="translate(-7,231.57142857142856)" font-family="sans-serif" font-size="11px" fill="#000" opacity="1">55</text><text text-anchor="end" transform="translate(-7,174.42857142857144)" font-family="sans-serif" font-size="11px" fill="#000" opacity="1">60</text><text text-anchor="end" transform="translate(-7,117.28571428571428)" font-family="sans-serif" font-size="11px" fill="#000" opacity="1">65</text><text text-anchor="end" transform="translate(-7,60.14285714285716)" font-family="sans-serif" font-size="11px" fill="#000" opacity="1">70</text><text text-anchor="end" transform="translate(-7,3)" font-family="sans-serif" font-size="11px" fill="#000" opacity="1">75</text></g><g class="mark-rule role-axis-domain" pointer-events="none"><line transform="translate(0,400)" x2="0" y2="-400" stroke="#888" stroke-width="1" opacity="1"/></g><g class="mark-text role-axis-title" pointer-events="none"><text text-anchor="middle" transform="translate(-23.2353515625,200) rotate(-90) translate(0,-3)" font-family="sans-serif" font-size="12px" font-weight="bold" fill="#000" opacity="1">Вага (кг)</text></g></g><path class="foreground" aria-hidden="true" d="" pointer-events="none" display="none"/></g></g><g class="mark-symbol role-mark marks" role="graphics-object" aria-roledescription="symbol mark container"><path aria-label="Height: 167.0812; Weight: 51.25136008; Зріст: 167.1; Вага: 51.3" role="graphics-symbol" aria-roledescription="circle" transform="translate(276.1417142857142,271.4130276571429)" d="M3.162,0A3.162,3.162,0,1,1,-3.162,0A3.162,3.162,0,1,1,3.162,0" fill="#3182bd" stroke-width="2" opacity="1"/><path aria-label="Height: 181.6608; Weight: 61.91077208; Зріст: 181.7; Вага: 61.9" role="graphics-symbol" aria-roledescription="circle" transform="translate(609.3897142857141,149.5911762285714)" d="M3.162,0A3.162,3.162,0,1,1,-3.162,0A3.162,3.162,0,1,1,3.162,0" fill="#3182bd" stroke-width="2" opacity="1"/><path aria-label="Height: 176.276; Weight: 69.41318376; Зріст: 176.3; Вага: 69.4" role="graphics-symbol" aria-roledescription="circle" transform="translate(486.30857142857167,63.8493284571429)" d="M3.162,0A3.162,3.162,0,1,1,-3.162,0A3.162,3.162,0,1,1,3.162,0" fill="#3182bd" stroke-width="2" opacity="1"/><path aria-label="Height: 173.2788; Weight: 64.56428528; Зріст: 173.3; Вага: 64.6" role="graphics-symbol" aria-roledescription="circle" transform="translate(417.8011428571426,119.26531108571439)" d="M3.162,0A3.162,3.162,0,1,1,-3.162,0A3.162,3.162,0,1,1,3.162,0" fill="#3182bd" stroke-width="2" opacity="1"/><path aria-label="Height: 172.1866; Weight: 65.4533256; Зріст: 172.2; Вага: 65.5" role="graphics-symbol" aria-roledescription="circle" transform="translate(392.8365714285714,109.10485028571428)" d="M3.162,0A3.162,3.162,0,1,1,-3.162,0A3.162,3.162,0,1,1,3.162,0" fill="#3182bd" stroke-width="2" opacity="1"/><path aria-label="Height: 174.498; Weight: 55.9278936; Зріст: 174.5; Вага: 55.9" role="graphics-symbol" aria-roledescription="circle" transform="translate(445.66857142857117,217.96693028571434)" d="M3.162,0A3.162,3.162,0,1,1,-3.162,0A3.162,3.162,0,1,1,3.162,0" fill="#3182bd" stroke-width="2" opacity="1"/><path aria-label="Height: 177.292; Weight: 64.17873208; Зріст: 177.3; Вага: 64.2" role="graphics-symbol" aria-roledescription="circle" transform="translate(509.5314285714286,123.67163337142854)" d="M3.162,0A3.162,3.162,0,1,1,-3.162,0A3.162,3.162,0,1,1,3.162,0" fill="#3182bd" stroke-width="2" opacity="1"/><path aria-label="Height: 177.8254; Weight: 61.89716432; Зріст: 177.8; Вага: 61.9" role="graphics-symbol" aria-roledescription="circle" transform="translate(521.7234285714286,149.74669348571425)" d="M3.162,0A3.162,3.162,0,1,1,-3.162,0A3.162,3.162,0,1,1,3.162,0" fill="#3182bd" stroke-width="2" opacity="1"/><path aria-label="Height: 172.466; Weight: 50.97013304; Зріст: 172.5; Вага: 51.0" role="graphics-symbol" aria-roledescription="circle" transform="translate(399.2228571428573,274.6270509714286)" d="M3.162,0A3.162,3.162,0,1,1,-3.162,0A3.162,3.162,0,1,1,3.162,0" fill="#3182bd" stroke-width="2" opacity="1"/><path aria-label="Height: 169.6212; Weight: 54.73494664; Зріст: 169.6; Вага: 54.7" role="graphics-symbol" aria-roledescription="circle" transform="translate(334.19885714285687,231.60060982857144)" d="M3.162,0A3.162,3.162,0,1,1,-3.162,0A3.162,3.162,0,1,1,3.162,0" fill="#3182bd" stroke-width="2" opacity="1"/><path aria-label="Height: 168.8846; Weight: 57.8103004; Зріст: 168.9; Вага: 57.8" role="graphics-symbol" aria-roledescription="circle" transform="translate(317.36228571428586,196.45370971428568)" d="M3.162,0A3.162,3.162,0,1,1,-3.162,0A3.162,3.162,0,1,1,3.162,0" fill="#3182bd" stroke-width="2" opacity="1"/><path aria-label="Height: 171.7548; Weight: 51.77299088; Зріст: 171.8; Вага: 51.8" role="graphics-symbol" aria-roledescription="circle" transform="translate(382.9668571428569,265.45153279999994)" d="M3.162,0A3.162,3.162,0,1,1,-3.162,0A3.162,3.162,0,1,1,3.162,0" fill="#3182bd" stroke-width="2" opacity="1"/><path aria-label="Height: 173.482; Weight: 56.97569112; Зріст: 173.5; Вага: 57.0" role="graphics-symbol" aria-roledescription="circle" transform="translate(422.4457142857143,205.99210148571427)" d="M3.162,0A3.162,3.162,0,1,1,-3.162,0A3.162,3.162,0,1,1,3.162,0" fill="#3182bd" stroke-width="2" opacity="1"/><path aria-label="Height: 170.4848; Weight: 55.54687632; Зріст: 170.5; Вага: 55.5" role="graphics-symbol" aria-roledescription="circle" transform="translate(353.9382857142859,222.3214134857143)" d="M3.162,0A3.162,3.162,0,1,1,-3.162,0A3.162,3.162,0,1,1,3.162,0" fill="#3182bd" stroke-width="2" opacity="1"/><path aria-label="Height: 173.4312; Weight: 52.65749528; Зріст: 173.4; Вага: 52.7" role="graphics-symbol" aria-roledescription="circle" transform="translate(421.2845714285712,255.3429110857143)" d="M3.162,0A3.162,3.162,0,1,1,-3.162,0A3.162,3.162,0,1,1,3.162,0" fill="#3182bd" stroke-width="2" opacity="1"/><path aria-label="Height: 180.5686; Weight: 63.50288; Зріст: 180.6; Вага: 63.5" role="graphics-symbol" aria-roledescription="circle" transform="translate(584.425142857143,131.39565714285717)" d="M3.162,0A3.162,3.162,0,1,1,-3.162,0A3.162,3.162,0,1,1,3.162,0" fill="#3182bd" stroke-width="2" opacity="1"/><path aria-label="Height: 168.8084; Weight: 58.740164; Зріст: 168.8; Вага: 58.7" role="graphics-symbol" aria-roledescription="circle" transform="translate(315.62057142857157,185.82669714285714)" d="M3.162,0A3.162,3.162,0,1,1,-3.162,0A3.162,3.162,0,1,1,3.162,0" fill="#3182bd" stroke-width="2" opacity="1"/><path aria-label="Height: 174.371; Weight: 64.85004824; Зріст: 174.4; Вага: 64.9" role="graphics-symbol" aria-roledescription="circle" transform="translate(442.76571428571447,115.99944868571419)" d="M3.162,0A3.162,3.162,0,1,1,-3.162,0A3.162,3.162,0,1,1,3.162,0" fill="#3182bd" stroke-width="2" opacity="1"/><path aria-label="Height: 180.9242; Weight: 62.5503368; Зріст: 180.9; Вага: 62.6" role="graphics-symbol" aria-roledescription="circle" transform="translate(592.5531428571433,142.28186514285719)" d="M3.162,0A3.162,3.162,0,1,1,-3.162,0A3.162,3.162,0,1,1,3.162,0" fill="#3182bd" stroke-width="2" opacity="1"/><path aria-label="Height: 170.5102; Weight: 56.26355168; Зріст: 170.5; Вага: 56.3" role="graphics-symbol" aria-roledescription="circle" transform="translate(354.5188571428571,214.13083794285717)" d="M3.162,0A3.162,3.162,0,1,1,-3.162,0A3.162,3.162,0,1,1,3.162,0" fill="#3182bd" stroke-width="2" opacity="1"/><path aria-label="Height: 172.2882; Weight: 64.08347776; Зріст: 172.3; Вага: 64.1" role="graphics-symbol" aria-roledescription="circle" transform="translate(395.1588571428569,124.76025417142864)" d="M3.162,0A3.162,3.162,0,1,1,-3.162,0A3.162,3.162,0,1,1,3.162,0" fill="#3182bd" stroke-width="2" opacity="1"/><path aria-label="Height: 174.9552; Weight: 65.10859568; Зріст: 175.0; Вага: 65.1" role="graphics-symbol" aria-roledescription="circle" transform="translate(456.1188571428569,113.04462080000009)" d="M3.162,0A3.162,3.162,0,1,1,-3.162,0A3.162,3.162,0,1,1,3.162,0" fill="#3182bd" stroke-width="2" opacity="1"/><path aria-label="Height: 161.2392; Weight: 44.4066568; Зріст: 161.2; Вага: 44.4" role="graphics-symbol" aria-roledescription="circle" transform="translate(142.61028571428596,349.638208)" d="M3.162,0A3.162,3.162,0,1,1,-3.162,0A3.162,3.162,0,1,1,3.162,0" fill="#3182bd" stroke-width="2" opacity="1"/><path aria-label="Height: 173.7868; Weight: 58.740164; Зріст: 173.8; Вага: 58.7" role="graphics-symbol" aria-roledescription="circle" transform="translate(429.4125714285714,185.82669714285714)" d="M3.162,0A3.162,3.162,0,1,1,-3.162,0A3.162,3.162,0,1,1,3.162,0" fill="#3182bd" stroke-width="2" opacity="1"/><path aria-label="Height: 171.7802; Weight: 64.3420252; Зріст: 171.8; Вага: 64.3" role="graphics-symbol" aria-roledescription="circle" transform="translate(383.5474285714287,121.80542628571436)" d="M3.162,0A3.162,3.162,0,1,1,-3.162,0A3.162,3.162,0,1,1,3.162,0" fill="#3182bd" stroke-width="2" opacity="1"/><path aria-label="Height: 170.7134; Weight: 58.83995424; Зріст: 170.7; Вага: 58.8" role="graphics-symbol" aria-roledescription="circle" transform="translate(359.1634285714287,184.6862372571429)" d="M3.162,0A3.162,3.162,0,1,1,-3.162,0A3.162,3.162,0,1,1,3.162,0" fill="#3182bd" stroke-width="2" opacity="1"/><path aria-label="Height: 179.9336; Weight: 64.60057264; Зріст: 179.9; Вага: 64.6" role="graphics-symbol" aria-roledescription="circle" transform="translate(569.9108571428575,118.85059840000002)" d="M3.162,0A3.162,3.162,0,1,1,-3.162,0A3.162,3.162,0,1,1,3.162,0" fill="#3182bd" stroke-width="2" opacity="1"/><path aria-label="Height: 171.4246; Weight: 59.6700276; Зріст: 171.4; Вага: 59.7" role="graphics-symbol" aria-roledescription="circle" transform="translate(375.4194285714285,175.19968457142858)" d="M3.162,0A3.162,3.162,0,1,1,-3.162,0A3.162,3.162,0,1,1,3.162,0" fill="#3182bd" stroke-width="2" opacity="1"/><path aria-label="Height: 168.9862; Weight: 49.13762136; Зріст: 169.0; Вага: 49.1" role="graphics-symbol" aria-roledescription="circle" transform="translate(319.68457142857136,295.5700416)" d="M3.162,0A3.162,3.162,0,1,1,-3.162,0A3.162,3.162,0,1,1,3.162,0" fill="#3182bd" stroke-width="2" opacity="1"/><path aria-label="Height: 166.2176; Weight: 51.65959288; Зріст: 166.2; Вага: 51.7" role="graphics-symbol" aria-roledescription="circle" transform="translate(256.4022857142858,266.74750994285716)" d="M3.162,0A3.162,3.162,0,1,1,-3.162,0A3.162,3.162,0,1,1,3.162,0" fill="#3182bd" stroke-width="2" opacity="1"/><path aria-label="Height: 176.5808; Weight: 46.8560536; Зріст: 176.6; Вага: 46.9" role="graphics-symbol" aria-roledescription="circle" transform="translate(493.2754285714288,321.6451017142857)" d="M3.162,0A3.162,3.162,0,1,1,-3.162,0A3.162,3.162,0,1,1,3.162,0" fill="#3182bd" stroke-width="2" opacity="1"/><path aria-label="Height: 167.1574; Weight: 54.771234; Зріст: 167.2; Вага: 54.8" role="graphics-symbol" aria-roledescription="circle" transform="translate(277.88342857142845,231.18589714285713)" d="M3.162,0A3.162,3.162,0,1,1,-3.162,0A3.162,3.162,0,1,1,3.162,0" fill="#3182bd" stroke-width="2" opacity="1"/><path aria-label="Height: 172.2628; Weight: 57.05733768; Зріст: 172.3; Вага: 57.1" role="graphics-symbol" aria-roledescription="circle" transform="translate(394.5782857142857,205.0589979428571)" d="M3.162,0A3.162,3.162,0,1,1,-3.162,0A3.162,3.162,0,1,1,3.162,0" fill="#3182bd" stroke-width="2" opacity="1"/><path aria-label="Height: 179.324; Weight: 61.78830224; Зріст: 179.3; Вага: 61.8" role="graphics-symbol" aria-roledescription="circle" transform="translate(555.9771428571431,150.99083154285717)" d="M3.162,0A3.162,3.162,0,1,1,-3.162,0A3.162,3.162,0,1,1,3.162,0" fill="#3182bd" stroke-width="2" opacity="1"/><path aria-label="Height: 182.372; Weight: 63.5482392; Зріст: 182.4; Вага: 63.5" role="graphics-symbol" aria-roledescription="circle" transform="translate(625.6457142857146,130.8772662857143)" d="M3.162,0A3.162,3.162,0,1,1,-3.162,0A3.162,3.162,0,1,1,3.162,0" fill="#3182bd" stroke-width="2" opacity="1"/><path aria-label="Height: 175.7934; Weight: 58.39997; Зріст: 175.8; Вага: 58.4" role="graphics-symbol" aria-roledescription="circle" transform="translate(475.2777142857141,189.71462857142853)" d="M3.162,0A3.162,3.162,0,1,1,-3.162,0A3.162,3.162,0,1,1,3.162,0" fill="#3182bd" stroke-width="2" opacity="1"/><path aria-label="Height: 169.672; Weight: 64.3193456; Зріст: 169.7; Вага: 64.3" role="graphics-symbol" aria-roledescription="circle" transform="translate(335.3599999999999,122.06462171428565)" d="M3.162,0A3.162,3.162,0,1,1,-3.162,0A3.162,3.162,0,1,1,3.162,0" fill="#3182bd" stroke-width="2" opacity="1"/><path aria-label="Height: 171.8564; Weight: 54.98895816; Зріст: 171.9; Вага: 55.0" role="graphics-symbol" aria-roledescription="circle" transform="translate(385.289142857143,228.69762102857143)" d="M3.162,0A3.162,3.162,0,1,1,-3.162,0A3.162,3.162,0,1,1,3.162,0" fill="#3182bd" stroke-width="2" opacity="1"/><path aria-label="Height: 172.2374; Weight: 59.5793092; Зріст: 172.2; Вага: 59.6" role="graphics-symbol" aria-roledescription="circle" transform="translate(393.99771428571444,176.23646628571433)" d="M3.162,0A3.162,3.162,0,1,1,-3.162,0A3.162,3.162,0,1,1,3.162,0" fill="#3182bd" stroke-width="2" opacity="1"/><path aria-label="Height: 162.687; Weight: 48.40280232; Зріст: 162.7; Вага: 48.4" role="graphics-symbol" aria-roledescription="circle" transform="translate(175.7028571428574,303.96797348571425)" d="M3.162,0A3.162,3.162,0,1,1,-3.162,0A3.162,3.162,0,1,1,3.162,0" fill="#3182bd" stroke-width="2" opacity="1"/><path aria-label="Height: 174.1678; Weight: 56.40870112; Зріст: 174.2; Вага: 56.4" role="graphics-symbol" aria-roledescription="circle" transform="translate(438.12114285714284,212.47198719999994)" d="M3.162,0A3.162,3.162,0,1,1,-3.162,0A3.162,3.162,0,1,1,3.162,0" fill="#3182bd" stroke-width="2" opacity="1"/><path aria-label="Height: 165.5572; Weight: 56.63549712; Зріст: 165.6; Вага: 56.6" role="graphics-symbol" aria-roledescription="circle" transform="translate(241.30742857142846,209.88003291428578)" d="M3.162,0A3.162,3.162,0,1,1,-3.162,0A3.162,3.162,0,1,1,3.162,0" fill="#3182bd" stroke-width="2" opacity="1"/><path aria-label="Height: 176.9364; Weight: 63.35319464; Зріст: 176.9; Вага: 63.4" role="graphics-symbol" aria-roledescription="circle" transform="translate(501.4034285714284,133.1063469714286)" d="M3.162,0A3.162,3.162,0,1,1,-3.162,0A3.162,3.162,0,1,1,3.162,0" fill="#3182bd" stroke-width="2" opacity="1"/><path aria-label="Height: 172.6438; Weight: 62.30993304; Зріст: 172.6; Вага: 62.3" role="graphics-symbol" aria-roledescription="circle" transform="translate(403.28685714285706,145.02933668571433)" d="M3.162,0A3.162,3.162,0,1,1,-3.162,0A3.162,3.162,0,1,1,3.162,0" fill="#3182bd" stroke-width="2" opacity="1"/><path aria-label="Height: 167.5892; Weight: 48.2848684; Зріст: 167.6; Вага: 48.3" role="graphics-symbol" aria-roledescription="circle" transform="translate(287.75314285714296,305.3157897142857)" d="M3.162,0A3.162,3.162,0,1,1,-3.162,0A3.162,3.162,0,1,1,3.162,0" fill="#3182bd" stroke-width="2" opacity="1"/><path aria-label="Height: 174.4218; Weight: 58.40450592; Зріст: 174.4; Вага: 58.4" role="graphics-symbol" aria-roledescription="circle" transform="translate(443.92685714285693,189.6627894857143)" d="M3.162,0A3.162,3.162,0,1,1,-3.162,0A3.162,3.162,0,1,1,3.162,0" fill="#3182bd" stroke-width="2" opacity="1"/><path aria-label="Height: 169.8752; Weight: 66.07928256; Зріст: 169.9; Вага: 66.1" role="graphics-symbol" aria-roledescription="circle" transform="translate(340.0045714285716,101.95105645714291)" d="M3.162,0A3.162,3.162,0,1,1,-3.162,0A3.162,3.162,0,1,1,3.162,0" fill="#3182bd" stroke-width="2" opacity="1"/><path aria-label="Height: 171.958; Weight: 52.98861744; Зріст: 172.0; Вага: 53.0" role="graphics-symbol" aria-roledescription="circle" transform="translate(387.6114285714285,251.55865782857143)" d="M3.162,0A3.162,3.162,0,1,1,-3.162,0A3.162,3.162,0,1,1,3.162,0" fill="#3182bd" stroke-width="2" opacity="1"/><path aria-label="Height: 177.3428; Weight: 65.14488304; Зріст: 177.3; Вага: 65.1" role="graphics-symbol" aria-roledescription="circle" transform="translate(510.69257142857174,112.62990811428577)" d="M3.162,0A3.162,3.162,0,1,1,-3.162,0A3.162,3.162,0,1,1,3.162,0" fill="#3182bd" stroke-width="2" opacity="1"/><path aria-label="Height: 175.4886; Weight: 61.20316856; Зріст: 175.5; Вага: 61.2" role="graphics-symbol" aria-roledescription="circle" transform="translate(468.3108571428569,157.6780736)" d="M3.162,0A3.162,3.162,0,1,1,-3.162,0A3.162,3.162,0,1,1,3.162,0" fill="#3182bd" stroke-width="2" opacity="1"/><path aria-label="Height: 177.5714; Weight: 66.68709584; Зріст: 177.6; Вага: 66.7" role="graphics-symbol" aria-roledescription="circle" transform="translate(515.9177142857145,95.0046189714286)" d="M3.162,0A3.162,3.162,0,1,1,-3.162,0A3.162,3.162,0,1,1,3.162,0" fill="#3182bd" stroke-width="2" opacity="1"/><path aria-label="Height: 171.0182; Weight: 57.30227736; Зріст: 171.0; Вага: 57.3" role="graphics-symbol" aria-roledescription="circle" transform="translate(366.1302857142859,202.25968731428577)" d="M3.162,0A3.162,3.162,0,1,1,-3.162,0A3.162,3.162,0,1,1,3.162,0" fill="#3182bd" stroke-width="2" opacity="1"/><path aria-label="Height: 178.4858; Weight: 56.91672416; Зріст: 178.5; Вага: 56.9" role="graphics-symbol" aria-roledescription="circle" transform="translate(536.8182857142859,206.66600959999997)" d="M3.162,0A3.162,3.162,0,1,1,-3.162,0A3.162,3.162,0,1,1,3.162,0" fill="#3182bd" stroke-width="2" opacity="1"/><path aria-label="Height: 175.514; Weight: 52.48513032; Зріст: 175.5; Вага: 52.5" role="graphics-symbol" aria-roledescription="circle" transform="translate(468.89142857142883,257.3127963428571)" d="M3.162,0A3.162,3.162,0,1,1,-3.162,0A3.162,3.162,0,1,1,3.162,0" fill="#3182bd" stroke-width="2" opacity="1"/><path aria-label="Height: 166.0652; Weight: 56.01407608; Зріст: 166.1; Вага: 56.0" role="graphics-symbol" aria-roledescription="circle" transform="translate(252.91885714285723,216.98198765714284)" d="M3.162,0A3.162,3.162,0,1,1,-3.162,0A3.162,3.162,0,1,1,3.162,0" fill="#3182bd" stroke-width="2" opacity="1"/><path aria-label="Height: 178.2572; Weight: 67.08172088; Зріст: 178.3; Вага: 67.1" role="graphics-symbol" aria-roledescription="circle" transform="translate(531.5931428571432,90.49461851428563)" d="M3.162,0A3.162,3.162,0,1,1,-3.162,0A3.162,3.162,0,1,1,3.162,0" fill="#3182bd" stroke-width="2" opacity="1"/><path aria-label="Height: 178.8414; Weight: 70.7149928; Зріст: 178.8; Вага: 70.7" role="graphics-symbol" aria-roledescription="circle" transform="translate(544.9462857142856,48.97151085714282)" d="M3.162,0A3.162,3.162,0,1,1,-3.162,0A3.162,3.162,0,1,1,3.162,0" fill="#3182bd" stroke-width="2" opacity="1"/><path aria-label="Height: 169.0116; Weight: 58.09152744; Зріст: 169.0; Вага: 58.1" role="graphics-symbol" aria-roledescription="circle" transform="translate(320.26514285714256,193.23968639999998)" d="M3.162,0A3.162,3.162,0,1,1,-3.162,0A3.162,3.162,0,1,1,3.162,0" fill="#3182bd" stroke-width="2" opacity="1"/><path aria-label="Height: 168.5544; Weight: 54.14527704; Зріст: 168.6; Вага: 54.1" role="graphics-symbol" aria-roledescription="circle" transform="translate(309.81485714285685,238.33969097142855)" d="M3.162,0A3.162,3.162,0,1,1,-3.162,0A3.162,3.162,0,1,1,3.162,0" fill="#3182bd" stroke-width="2" opacity="1"/><path aria-label="Height: 171.5516; Weight: 60.69514552; Зріст: 171.6; Вага: 60.7" role="graphics-symbol" aria-roledescription="circle" transform="translate(378.3222857142859,163.4840512)" d="M3.162,0A3.162,3.162,0,1,1,-3.162,0A3.162,3.162,0,1,1,3.162,0" fill="#3182bd" stroke-width="2" opacity="1"/><path aria-label="Height: 168.91; Weight: 58.39089816; Зріст: 168.9; Вага: 58.4" role="graphics-symbol" aria-roledescription="circle" transform="translate(317.94285714285706,189.81830674285715)" d="M3.162,0A3.162,3.162,0,1,1,-3.162,0A3.162,3.162,0,1,1,3.162,0" fill="#3182bd" stroke-width="2" opacity="1"/><path aria-label="Height: 175.26; Weight: 62.3915796; Зріст: 175.3; Вага: 62.4" role="graphics-symbol" aria-roledescription="circle" transform="translate(463.0857142857141,144.09623314285716)" d="M3.162,0A3.162,3.162,0,1,1,-3.162,0A3.162,3.162,0,1,1,3.162,0" fill="#3182bd" stroke-width="2" opacity="1"/><path aria-label="Height: 173.482; Weight: 58.85809792; Зріст: 173.5; Вага: 58.9" role="graphics-symbol" aria-roledescription="circle" transform="translate(422.4457142857143,184.47888091428575)" d="M3.162,0A3.162,3.162,0,1,1,-3.162,0A3.162,3.162,0,1,1,3.162,0" fill="#3182bd" stroke-width="2" opacity="1"/><path aria-label="Height: 170.2054; Weight: 58.43172144; Зріст: 170.2; Вага: 58.4" role="graphics-symbol" aria-roledescription="circle" transform="translate(347.55199999999996,189.35175497142862)" d="M3.162,0A3.162,3.162,0,1,1,-3.162,0A3.162,3.162,0,1,1,3.162,0" fill="#3182bd" stroke-width="2" opacity="1"/><path aria-label="Height: 179.8574; Weight: 61.38006944; Зріст: 179.9; Вага: 61.4" role="graphics-symbol" aria-roledescription="circle" transform="translate(568.1691428571431,155.65634925714286)" d="M3.162,0A3.162,3.162,0,1,1,-3.162,0A3.162,3.162,0,1,1,3.162,0" fill="#3182bd" stroke-width="2" opacity="1"/><path aria-label="Height: 173.2788; Weight: 49.71821912; Зріст: 173.3; Вага: 49.7" role="graphics-symbol" aria-roledescription="circle" transform="translate(417.8011428571426,288.9346386285714)" d="M3.162,0A3.162,3.162,0,1,1,-3.162,0A3.162,3.162,0,1,1,3.162,0" fill="#3182bd" stroke-width="2" opacity="1"/><path aria-label="Height: 175.4124; Weight: 64.62325224; Зріст: 175.4; Вага: 64.6" role="graphics-symbol" aria-roledescription="circle" transform="translate(466.5691428571426,118.59140297142856)" d="M3.162,0A3.162,3.162,0,1,1,-3.162,0A3.162,3.162,0,1,1,3.162,0" fill="#3182bd" stroke-width="2" opacity="1"/><path aria-label="Height: 172.0342; Weight: 60.214338; Зріст: 172.0; Вага: 60.2" role="graphics-symbol" aria-roledescription="circle" transform="translate(389.35314285714287,168.97899428571432)" d="M3.162,0A3.162,3.162,0,1,1,-3.162,0A3.162,3.162,0,1,1,3.162,0" fill="#3182bd" stroke-width="2" opacity="1"/><path aria-label="Height: 170.7388; Weight: 73.96037976; Зріст: 170.7; Вага: 74.0" role="graphics-symbol" aria-roledescription="circle" transform="translate(359.7439999999999,11.881374171428627)" d="M3.162,0A3.162,3.162,0,1,1,-3.162,0A3.162,3.162,0,1,1,3.162,0" fill="#3182bd" stroke-width="2" opacity="1"/><path aria-label="Height: 171.1198; Weight: 56.57653016; Зріст: 171.1; Вага: 56.6" role="graphics-symbol" aria-roledescription="circle" transform="translate(368.4525714285714,210.55394102857144)" d="M3.162,0A3.162,3.162,0,1,1,-3.162,0A3.162,3.162,0,1,1,3.162,0" fill="#3182bd" stroke-width="2" opacity="1"/><path aria-label="Height: 165.7858; Weight: 58.65398152; Зріст: 165.8; Вага: 58.7" role="graphics-symbol" aria-roledescription="circle" transform="translate(246.53257142857132,186.81163977142856)" d="M3.162,0A3.162,3.162,0,1,1,-3.162,0A3.162,3.162,0,1,1,3.162,0" fill="#3182bd" stroke-width="2" opacity="1"/><path aria-label="Height: 179.9336; Weight: 60.79039984; Зріст: 179.9; Вага: 60.8" role="graphics-symbol" aria-roledescription="circle" transform="translate(569.9108571428575,162.3954304)" d="M3.162,0A3.162,3.162,0,1,1,-3.162,0A3.162,3.162,0,1,1,3.162,0" fill="#3182bd" stroke-width="2" opacity="1"/><path aria-label="Height: 177.5968; Weight: 63.6843168; Зріст: 177.6; Вага: 63.7" role="graphics-symbol" aria-roledescription="circle" transform="translate(516.4982857142858,129.32209371428573)" d="M3.162,0A3.162,3.162,0,1,1,-3.162,0A3.162,3.162,0,1,1,3.162,0" fill="#3182bd" stroke-width="2" opacity="1"/><path aria-label="Height: 163.2966; Weight: 46.64740128; Зріст: 163.3; Вага: 46.6" role="graphics-symbol" aria-roledescription="circle" transform="translate(189.6365714285717,324.0296996571429)" d="M3.162,0A3.162,3.162,0,1,1,-3.162,0A3.162,3.162,0,1,1,3.162,0" fill="#3182bd" stroke-width="2" opacity="1"/><path aria-label="Height: 173.355; Weight: 58.29564384; Зріст: 173.4; Вага: 58.3" role="graphics-symbol" aria-roledescription="circle" transform="translate(419.5428571428569,190.90692754285718)" d="M3.162,0A3.162,3.162,0,1,1,-3.162,0A3.162,3.162,0,1,1,3.162,0" fill="#3182bd" stroke-width="2" opacity="1"/><path aria-label="Height: 168.5544; Weight: 54.5671176; Зріст: 168.6; Вага: 54.6" role="graphics-symbol" aria-roledescription="circle" transform="translate(309.81485714285685,233.51865599999994)" d="M3.162,0A3.162,3.162,0,1,1,-3.162,0A3.162,3.162,0,1,1,3.162,0" fill="#3182bd" stroke-width="2" opacity="1"/><path aria-label="Height: 173.6344; Weight: 62.8678512; Зріст: 173.6; Вага: 62.9" role="graphics-symbol" aria-roledescription="circle" transform="translate(425.92914285714284,138.65312914285715)" d="M3.162,0A3.162,3.162,0,1,1,-3.162,0A3.162,3.162,0,1,1,3.162,0" fill="#3182bd" stroke-width="2" opacity="1"/><path aria-label="Height: 166.3192; Weight: 60.30959232; Зріст: 166.3; Вага: 60.3" role="graphics-symbol" aria-roledescription="circle" transform="translate(258.7245714285713,167.89037348571426)" d="M3.162,0A3.162,3.162,0,1,1,-3.162,0A3.162,3.162,0,1,1,3.162,0" fill="#3182bd" stroke-width="2" opacity="1"/><path aria-label="Height: 177.0888; Weight: 52.44430704; Зріст: 177.1; Вага: 52.4" role="graphics-symbol" aria-roledescription="circle" transform="translate(504.88685714285697,257.7793481142857)" d="M3.162,0A3.162,3.162,0,1,1,-3.162,0A3.162,3.162,0,1,1,3.162,0" fill="#3182bd" stroke-width="2" opacity="1"/><path aria-label="Height: 172.0342; Weight: 55.57409184; Зріст: 172.0; Вага: 55.6" role="graphics-symbol" aria-roledescription="circle" transform="translate(389.35314285714287,222.0103789714286)" d="M3.162,0A3.162,3.162,0,1,1,-3.162,0A3.162,3.162,0,1,1,3.162,0" fill="#3182bd" stroke-width="2" opacity="1"/><path aria-label="Height: 174.3456; Weight: 61.06709096; Зріст: 174.3; Вага: 61.1" role="graphics-symbol" aria-roledescription="circle" transform="translate(442.18514285714264,159.23324617142853)" d="M3.162,0A3.162,3.162,0,1,1,-3.162,0A3.162,3.162,0,1,1,3.162,0" fill="#3182bd" stroke-width="2" opacity="1"/><path aria-label="Height: 169.6212; Weight: 55.2928648; Зріст: 169.6; Вага: 55.3" role="graphics-symbol" aria-roledescription="circle" transform="translate(334.19885714285687,225.2244022857143)" d="M3.162,0A3.162,3.162,0,1,1,-3.162,0A3.162,3.162,0,1,1,3.162,0" fill="#3182bd" stroke-width="2" opacity="1"/><path aria-label="Height: 177.927; Weight: 70.47912496; Зріст: 177.9; Вага: 70.5" role="graphics-symbol" aria-roledescription="circle" transform="translate(524.0457142857141,51.66714331428581)" d="M3.162,0A3.162,3.162,0,1,1,-3.162,0A3.162,3.162,0,1,1,3.162,0" fill="#3182bd" stroke-width="2" opacity="1"/><path aria-label="Height: 168.3512; Weight: 58.48615248; Зріст: 168.4; Вага: 58.5" role="graphics-symbol" aria-roledescription="circle" transform="translate(305.17028571428585,188.72968594285715)" d="M3.162,0A3.162,3.162,0,1,1,-3.162,0A3.162,3.162,0,1,1,3.162,0" fill="#3182bd" stroke-width="2" opacity="1"/><path aria-label="Height: 175.768; Weight: 58.5587272; Зріст: 175.8; Вага: 58.6" role="graphics-symbol" aria-roledescription="circle" transform="translate(474.69714285714286,187.90026057142856)" d="M3.162,0A3.162,3.162,0,1,1,-3.162,0A3.162,3.162,0,1,1,3.162,0" fill="#3182bd" stroke-width="2" opacity="1"/></g><g class="mark-group role-title"><g transform="translate(400,-26)"><path class="background" aria-hidden="true" d="M0,0h0v0h0Z" pointer-events="none"/><g><g class="mark-text role-title-text" role="graphics-symbol" aria-roledescription="title" aria-label="Title text 'Вага та зріст 85 осіб'" pointer-events="none"><text text-anchor="middle" transform="translate(0,13)" font-family="sans-serif" font-size="16px" font-weight="bold" fill="#000" opacity="1">Вага та зріст 85 осіб</text></g></g><path class="foreground" aria-hidden="true" d="" pointer-events="none" display="none"/></g></g></g><path class="foreground" aria-hidden="true" d="" display="none"/></g></g></g></svg>