<svg xmlns="http://www.w3.org/2000/svg" xmlns:xlink="http://www.w3.org/1999/xlink" version="1.1" class="marks" width="722" height="499" viewBox="0 0 722 499"><rect width="722" height="499" fill="white"/><g fill="none" stroke-miterlimit="10" transform="translate(39,27)"><g class="mark-group role-frame root" role="graphics-object" aria-roledescription="group mark container"><g transform="translate(0,0)"><path class="background" aria-hidden="true" d="M0,0h600v400h-600Z"/><g><g class="mark-group role-axis" aria-hidden="true"><g transform="translate(0.5,400.5)"><path class="background" aria-hidden="true" d="M0,0h0v0h0Z" pointer-events="none"/><g><g class="mark-rule role-axis-grid" pointer-events="none"><line transform="translate(30,-400)" x2="0" y2="400" stroke="#ddd" stroke-width="1" opacity="1"/><line transform="translate(90,-400)" x2="0" y2="400" stroke="#ddd" stroke-width="1" opacity="1"/><line transform="translate(150,-400)" x2="0" y2="400" stroke="#ddd" stroke-width="1" opacity="1"/><line transform="translate(210,-400)" x2="0" y2="400" stroke="#ddd" stroke-width="1" opacity="1"/><line transform="translate(270,-400)" x2="0" y2="400" stroke="#ddd" stroke-width="1" opacity="1"/><line transform="translate(330,-400)" x2="0" y2="400" stroke="#ddd" stroke-width="1" opacity="1"/><line transform="translate(390,-400)" x2="0" y2="400" stroke="#ddd" stroke-width="1" opacity="1"/><line transform="translate(450,-400)" x2="0" y2="400" stroke="#ddd" stroke-width="1" opacity="1"/><line transform="translate(510,-400)" x2="0" y2="400" stroke="#ddd" stroke-width="1" opacity="1"/><line transform="translate(570,-400)" x2="0" y2="400" stroke="#ddd" stroke-width="1" opacity="1"/></g></g><path class="foreground" aria-hidden="true" d="" pointer-events="none" display="none"/></g></g><g class="mark-group role-axis" aria-hidden="true"><g transform="translate(0.5,0.5)"><path class="background" aria-hidden="true" d="M0,0h0v0h0Z" pointer-events="none"/><g><g class="mark-rule role-axis-grid" pointer-events="none"><line transform="translate(0,400)" x2="600" y2="0" stroke="#ddd" stroke-width="1" stroke-dasharray="1,0" opacity="1"/><line transform="translate(0,371)" x2="600" y2="0" stroke="#ddd" stroke-width="1" stroke-dasharray="1,0" opacity="1"/><line transform="translate(0,343)" x2="600" y2="0" stroke="#ddd" stroke-width="1" stroke-dasharray="1,0" opacity="1"/><line transform="translate(0,314)" x2="600" y2="0" stroke="#ddd" stroke-width="1" stroke-dasharray="1,0" opacity="1"/><line transform="translate(0,286)" x2="600" y2="0" stroke="#ddd" stroke-width="1" stroke-dasharray="1,0" opacity="1"/><line transform="translate(0,257)" x2="600" y2="0" stroke="#ddd" stroke-width="1" stroke-dasharray="1,0" opacity="1"/><line transform="translate(0,229)" x2="600" y2="0" stroke="#ddd" stroke-width="1" stroke-dasharray="1,0" opacity="1"/><line transform="translate(0,200)" x2="600" y2="0" stroke="#ddd" stroke-width="1" stroke-dasharray="1,0" opacity="1"/><line transform="translate(0,171)" x2="600" y2="0" stroke="#ddd" stroke-width="1" stroke-dasharray="1,0" opacity="1"/><line transform="translate(0,143)" x2="600" y2="0" stroke="#ddd" stroke-width="1" stroke-dasharray="1,0" opacity="1"/><line transform="translate(0,114)" x2="600" y2="0" stroke="#ddd" stroke-width="1" stroke-dasharray="1,0" opacity="1"/><line transform="translate(0,86)" x2="600" y2="0" stroke="#ddd" stroke-width="1" stroke-dasharray="1,0" opacity="1"/><line transform="translate(0,57)" x2="600" y2="0" stroke="#ddd" stroke-width="1" stroke-dasharray="1,0" opacity="1"/><line transform="translate(0,29)" x2="600" y2="0" stroke="#ddd" stroke-width="1" stroke-dasharray="1,0" opacity="1"/><line transform="translate(0,0)" x2="600" y2="0" stroke="#ddd" stroke-width="1" stroke-dasharray="1,0" opacity="1"/></g></g><path class="foreground" aria-hidden="true" d="" pointer-events="none" display="none"/></g></g><g class="mark-group role-axis" role="graphics-symbol" aria-roledescription="axis" aria-label="X-axis titled 'Cities' for a discrete scale with 10 values: Copenhagen, Helsinki, N.Y.C., Oslo, Paris, ending with Zurich"><g transform="translate(0.5,400.5)"><path class="background" aria-hidden="true" d="M0,0h0v0h0Z" pointer-events="none"/><g><g class="mark-rule role-axis-tick" pointer-events="none"><line transform="translate(30,0)" x2="0" y2="5" stroke="#888" stroke-width="1" opacity="1"/><line transform="translate(90,0)" x2="0" y2="5" stroke="#888" stroke-width="1" opacity="1"/><line transform="translate(150,0)" x2="0" y2="5" stroke="#888" stroke-width="1" opacity="1"/><line transform="translate(210,0)" x2="0" y2="5" stroke="#888" stroke-width="1" opacity="1"/><line transform="translate(270,0)" x2="0" y2="5" stroke="#888" stroke-width="1" opacity="1"/><line transform="translate(330,0)" x2="0" y2="5" stroke="#888" stroke-width="1" opacity="1"/><line transform="translate(390,0)" x2="0" y2="5" stroke="#888" stroke-width="1" opacity="1"/><line transform="translate(450,0)" x2="0" y2="5" stroke="#888" stroke-width="1" opacity="1"/><line transform="translate(510,0)" x2="0" y2="5" stroke="#888" stroke-width="1" opacity="1"/><line transform="translate(570,0)" x2="0" y2="5" stroke="#888" stroke-width="1" opacity="1"/></g><g class="mark-text role-axis-label" pointer-events="none"><text text-anchor="start" transform="translate(29.5,7) rotate(40) translate(0,8)" font-family="sans-serif" font-size="10px" fill="#000" opacity="1">Copenhagen</text><text text-anchor="start" transform="translate(89.5,7) rotate(40) translate(0,8)" font-family="sans-serif" font-size="10px" fill="#000" opacity="1">Helsinki</text><text text-anchor="start" transform="translate(149.5,7) rotate(40) translate(0,8)" font-family="sans-serif" font-size="10px" fill="#000" opacity="1">N.Y.C.</text><text text-anchor="start" transform="translate(209.5,7) rotate(40) translate(0,8)" font-family="sans-serif" font-size="10px" fill="#000" opacity="1">Oslo</text><text text-anchor="start" transform="translate(269.5,7) rotate(40) translate(0,8)" font-family="sans-serif" font-size="10px" fill="#000" opacity="1">Paris</text><text text-anchor="start" transform="translate(329.5,7) rotate(40) translate(0,8)" font-family="sans-serif" font-size="10px" fill="#000" opacity="1">Seoul</text><text text-anchor="start" transform="translate(389.5,7) rotate(40) translate(0,8)" font-family="sans-serif" font-size="10px" fill="#000" opacity="1">Singapore</text><text text-anchor="start" transform="translate(449.5,7) rotate(40) translate(0,8)" font-family="sans-serif" font-size="10px" fill="#000" opacity="1">Stockholm</text><text text-anchor="start" transform="translate(509.5,7) rotate(40) translate(0,8)" font-family="sans-serif" font-size="10px" fill="#000" opacity="1">Toronto</text><text text-anchor="start" transform="translate(569.5,7) rotate(40) translate(0,8)" font-family="sans-serif" font-size="10px" fill="#000" opacity="1">Zurich</text></g><g class="mark-rule role-axis-domain" pointer-events="none"><line transform="translate(0,0)" x2="600" y2="0" stroke="#888" stroke-width="1" opacity="1"/></g><g class="mark-text role-axis-title" pointer-events="none"><text text-anchor="middle" transform="translate(300,64.47635586489636)" font-family="sans-serif" font-size="11px" font-weight="bold" fill="#000" opacity="1">Cities</text></g></g><path class="foreground" aria-hidden="true" d="" pointer-events="none" display="none"/></g></g><g class="mark-group role-axis" role="graphics-symbol" aria-roledescription="axis" aria-label="Y-axis titled 'Cost ($)' for a linear scale with values from 0 to 70"><g transform="translate(0.5,0.5)"><path class="background" aria-hidden="true" d="M0,0h0v0h0Z" pointer-events="none"/><g><g class="mark-rule role-axis-tick" pointer-events="none"><line transform="translate(0,400)" x2="-5" y2="0" stroke="#888" stroke-width="1" opacity="1"/><line transform="translate(0,371)" x2="-5" y2="0" stroke="#888" stroke-width="1" opacity="1"/><line transform="translate(0,343)" x2="-5" y2="0" stroke="#888" stroke-width="1" opacity="1"/><line transform="translate(0,314)" x2="-5" y2="0" stroke="#888" stroke-width="1" opacity="1"/><line transform="translate(0,286)" x2="-5" y2="0" stroke="#888" stroke-width="1" opacity="1"/><line transform="translate(0,257)" x2="-5" y2="0" stroke="#888" stroke-width="1" opacity="1"/><line transform="translate(0,229)" x2="-5" y2="0" stroke="#888" stroke-width="1" opacity="1"/><line transform="translate(0,200)" x2="-5" y2="0" stroke="#888" stroke-width="1" opacity="1"/><line transform="translate(0,171)" x2="-5" y2="0" stroke="#888" stroke-width="1" opacity="1"/><line transform="translate(0,143)" x2="-5" y2="0" stroke="#888" stroke-width="1" opacity="1"/><line transform="translate(0,114)" x2="-5" y2="0" stroke="#888" stroke-width="1" opacity="1"/><line transform="translate(0,86)" x2="-5" y2="0" stroke="#888" stroke-width="1" opacity="1"/><line transform="translate(0,57)" x2="-5" y2="0" stroke="#888" stroke-width="1" opacity="1"/><line transform="translate(0,29)" x2="-5" y2="0" stroke="#888" stroke-width="1" opacity="1"/><line transform="translate(0,0)" x2="-5" y2="0" stroke="#888" stroke-width="1" opacity="1"/></g><g class="mark-text role-axis-label" pointer-events="none"><text text-anchor="end" transform="translate(-7,403)" font-family="sans-serif" font-size="10px" fill="#000" opacity="1">0</text><text text-anchor="end" transform="translate(-7,374.42857142857144)" font-family="sans-serif" font-size="10px" fill="#000" opacity="1">5</text><text text-anchor="end" transform="translate(-7,345.8571428571429)" font-family="sans-serif" font-size="10px" fill="#000" opacity="1">10</text><text text-anchor="end" transform="translate(-7,317.2857142857143)" font-family="sans-serif" font-size="10px" fill="#000" opacity="1">15</text><text text-anchor="end" transform="translate(-7,288.7142857142857)" font-family="sans-serif" font-size="10px" fill="#000" opacity="1">20</text><text text-anchor="end" transform="translate(-7,260.1428571428571)" font-family="sans-serif" font-size="10px" fill="#000" opacity="1">25</text><text text-anchor="end" transform="translate(-7,231.57142857142856)" font-family="sans-serif" font-size="10px" fill="#000" opacity="1">30</text><text text-anchor="end" transform="translate(-7,203)" font-family="sans-serif" font-size="10px" fill="#000" opacity="1">35</text><text text-anchor="end" transform="translate(-7,174.42857142857144)" font-family="sans-serif" font-size="10px" fill="#000" opacity="1">40</text><text text-anchor="end" transform="translate(-7,145.85714285714283)" font-family="sans-serif" font-size="10px" fill="#000" opacity="1">45</text><text text-anchor="end" transform="translate(-7,117.28571428571428)" font-family="sans-serif" font-size="10px" fill="#000" opacity="1">50</text><text text-anchor="end" transform="translate(-7,88.71428571428572)" font-family="sans-serif" font-size="10px" fill="#000" opacity="1">55</text><text text-anchor="end" transform="translate(-7,60.14285714285716)" font-family="sans-serif" font-size="10px" fill="#000" opacity="1">60</text><text text-anchor="end" transform="translate(-7,31.57142857142856)" font-family="sans-serif" font-size="10px" fill="#000" opacity="1">65</text><text text-anchor="end" transform="translate(-7,3)" font-family="sans-serif" font-size="10px" fill="#000" opacity="1">70</text></g><g class="mark-rule role-axis-domain" pointer-events="none"><line transform="translate(0,400)" x2="0" y2="-400" stroke="#888" stroke-width="1" opacity="1"/></g><g class="mark-text role-axis-title" pointer-events="none"><text text-anchor="middle" transform="translate(-22.123046875,200) rotate(-90) translate(0,-2)" font-family="sans-serif" font-size="11px" font-weight="bold" fill="#000" opacity="1">Cost ($)</text></g></g><path class="foreground" aria-hidden="true" d="" pointer-events="none" display="none"/></g></g><g class="mark-rect role-mark marks" role="graphics-object" aria-roledescription="rect mark container"><path aria-label="City: Helsinki; value: 38.2; category: Sandwich; order: 5" role="graphics-symbol" aria-roledescription="bar" d="M63,181.71428571428572h54v218.28571428571428h-54Z" fill="#fb9a99"/><path aria-label="City: Helsinki; value: 6.4; category: Water; order: 4" role="graphics-symbol" aria-roledescription="bar" d="M63,145.14285714285714h54v36.571428571428584h-54Z" fill="#fdc086"/><path aria-label="City: Helsinki; value: 12.1; category: Peanut; order: 3" role="graphics-symbol" aria-roledescription="bar" d="M63,75.99999999999997h54v69.14285714285717h-54Z" fill="#beaed4"/><path aria-label="City: Helsinki; value: 6.4; category: Soda; order: 2" role="graphics-symbol" aria-roledescription="bar" d="M63,39.428571428571416h54v36.571428571428555h-54Z" fill="#7fc97f"/><path aria-label="City: Helsinki; value: 5.5; category: Vodka; order: 1" role="graphics-symbol" aria-roledescription="bar" d="M63,8.000000000000052h54v31.428571428571367h-54Z" fill="#386cb0"/><path aria-label="City: Oslo; value: 29.4; category: Sandwich; order: 5" role="graphics-symbol" aria-roledescription="bar" d="M183,232.00000000000003h54v167.99999999999997h-54Z" fill="#fb9a99"/><path aria-label="City: Oslo; value: 7.4; category: Water; order: 4" role="graphics-symbol" aria-roledescription="bar" d="M183,189.71428571428572h54v42.285714285714306h-54Z" fill="#fdc086"/><path aria-label="City: Oslo; value: 15.8; category: Peanut; order: 3" role="graphics-symbol" aria-roledescription="bar" d="M183,99.42857142857147h54v90.28571428571425h-54Z" fill="#beaed4"/><path aria-label="City: Oslo; value: 7.1; category: Soda; order: 2" role="graphics-symbol" aria-roledescription="bar" d="M183,58.8571428571429h54v40.57142857142858h-54Z" fill="#7fc97f"/><path aria-label="City: Oslo; value: 5.1; category: Vodka; order: 1" role="graphics-symbol" aria-roledescription="bar" d="M183,29.714285714285715h54v29.14285714285718h-54Z" fill="#386cb0"/><path aria-label="City: Seoul; value: 27.4; category: Sandwich; order: 5" role="graphics-symbol" aria-roledescription="bar" d="M303,243.42857142857142h54v156.57142857142858h-54Z" fill="#fb9a99"/><path aria-label="City: Seoul; value: 7.4; category: Water; order: 4" role="graphics-symbol" aria-roledescription="bar" d="M303,201.14285714285717h54v42.28571428571425h-54Z" fill="#fdc086"/><path aria-label="City: Seoul; value: 6.1; category: Peanut; order: 3" role="graphics-symbol" aria-roledescription="bar" d="M303,166.28571428571428h54v34.85714285714289h-54Z" fill="#beaed4"/><path aria-label="City: Seoul; value: 7.9; category: Soda; order: 2" role="graphics-symbol" aria-roledescription="bar" d="M303,121.14285714285717h54v45.14285714285711h-54Z" fill="#7fc97f"/><path aria-label="City: Seoul; value: 9.9; category: Vodka; order: 1" role="graphics-symbol" aria-roledescription="bar" d="M303,64.57142857142858h54v56.571428571428584h-54Z" fill="#386cb0"/><path aria-label="City: Zurich; value: 31.3; category: Sandwich; order: 5" role="graphics-symbol" aria-roledescription="bar" d="M543,221.14285714285714h54v178.85714285714286h-54Z" fill="#fb9a99"/><path aria-label="City: Zurich; value: 5.9; category: Water; order: 4" role="graphics-symbol" aria-roledescription="bar" d="M543,187.42857142857142h54v33.71428571428572h-54Z" fill="#fdc086"/><path aria-label="City: Zurich; value: 10.8; category: Peanut; order: 3" role="graphics-symbol" aria-roledescription="bar" d="M543,125.71428571428571h54v61.71428571428571h-54Z" fill="#beaed4"/><path aria-label="City: Zurich; value: 5.6; category: Soda; order: 2" role="graphics-symbol" aria-roledescription="bar" d="M543,93.71428571428572h54v31.999999999999986h-54Z" fill="#7fc97f"/><path aria-label="City: Zurich; value: 4.3; category: Vodka; order: 1" role="graphics-symbol" aria-roledescription="bar" d="M543,69.14285714285717h54v24.571428571428555h-54Z" fill="#386cb0"/><path aria-label="City: Stockholm; value: 28.4; category: Sandwich; order: 5" role="graphics-symbol" aria-roledescription="bar" d="M423,237.71428571428572h54v162.28571428571428h-54Z" fill="#fb9a99"/><path aria-label="City: Stockholm; value: 4.1; category: Water; order: 4" role="graphics-symbol" aria-roledescription="bar" d="M423,214.28571428571428h54v23.428571428571445h-54Z" fill="#fdc086"/><path aria-label="City: Stockholm; value: 11.3; category: Peanut; order: 3" role="graphics-symbol" aria-roledescription="bar" d="M423,149.71428571428572h54v64.57142857142856h-54Z" fill="#beaed4"/><path aria-label="City: Stockholm; value: 4.9; category: Soda; order: 2" role="graphics-symbol" aria-roledescription="bar" d="M423,121.71428571428575h54v27.99999999999997h-54Z" fill="#7fc97f"/><path aria-label="City: Stockholm; value: 5; category: Vodka; order: 1" role="graphics-symbol" aria-roledescription="bar" d="M423,93.14285714285715h54v28.571428571428598h-54Z" fill="#386cb0"/><path aria-label="City: Paris; value: 23.6; category: Sandwich; order: 5" role="graphics-symbol" aria-roledescription="bar" d="M243,265.1428571428571h54v134.8571428571429h-54Z" fill="#fb9a99"/><path aria-label="City: Paris; value: 6.8; category: Water; order: 4" role="graphics-symbol" aria-roledescription="bar" d="M243,226.28571428571425h54v38.85714285714286h-54Z" fill="#fdc086"/><path aria-label="City: Paris; value: 12.6; category: Peanut; order: 3" role="graphics-symbol" aria-roledescription="bar" d="M243,154.28571428571428h54v71.99999999999997h-54Z" fill="#beaed4"/><path aria-label="City: Paris; value: 6.8; category: Soda; order: 2" role="graphics-symbol" aria-roledescription="bar" d="M243,115.42857142857143h54v38.85714285714285h-54Z" fill="#7fc97f"/><path aria-label="City: Paris; value: 7; category: Vodka; order: 1" role="graphics-symbol" aria-roledescription="bar" d="M243,75.42857142857144h54v39.999999999999986h-54Z" fill="#386cb0"/><path aria-label="City: N.Y.C.; value: 24.2; category: Sandwich; order: 5" role="graphics-symbol" aria-roledescription="bar" d="M123,261.7142857142857h54v138.28571428571428h-54Z" fill="#fb9a99"/><path aria-label="City: N.Y.C.; value: 3.9; category: Water; order: 4" role="graphics-symbol" aria-roledescription="bar" d="M123,239.42857142857142h54v22.285714285714306h-54Z" fill="#fdc086"/><path aria-label="City: N.Y.C.; value: 16.8; category: Peanut; order: 3" role="graphics-symbol" aria-roledescription="bar" d="M123,143.42857142857142h54v96h-54Z" fill="#beaed4"/><path aria-label="City: N.Y.C.; value: 3.9; category: Soda; order: 2" role="graphics-symbol" aria-roledescription="bar" d="M123,121.14285714285717h54v22.28571428571425h-54Z" fill="#7fc97f"/><path aria-label="City: N.Y.C.; value: 7.1; category: Vodka; order: 1" role="graphics-symbol" aria-roledescription="bar" d="M123,80.57142857142856h54v40.57142857142861h-54Z" fill="#386cb0"/><path aria-label="City: Singapore; value: 19.4; category: Sandwich; order: 5" role="graphics-symbol" aria-roledescription="bar" d="M363,289.14285714285717h54v110.85714285714283h-54Z" fill="#fb9a99"/><path aria-label="City: Singapore; value: 5.2; category: Water; order: 4" role="graphics-symbol" aria-roledescription="bar" d="M363,259.42857142857144h54v29.714285714285722h-54Z" fill="#fdc086"/><path aria-label="City: Singapore; value: 14.8; category: Peanut; order: 3" role="graphics-symbol" aria-roledescription="bar" d="M363,174.85714285714286h54v84.57142857142858h-54Z" fill="#beaed4"/><path aria-label="City: Singapore; value: 6.6; category: Soda; order: 2" role="graphics-symbol" aria-roledescription="bar" d="M363,137.14285714285714h54v37.71428571428572h-54Z" fill="#7fc97f"/><path aria-label="City: Singapore; value: 6.2; category: Vodka; order: 1" role="graphics-symbol" aria-roledescription="bar" d="M363,101.7142857142857h54v35.428571428571445h-54Z" fill="#386cb0"/><path aria-label="City: Toronto; value: 20.8; category: Sandwich; order: 5" role="graphics-symbol" aria-roledescription="bar" d="M483,281.1428571428571h54v118.85714285714289h-54Z" fill="#fb9a99"/><path aria-label="City: Toronto; value: 5.4; category: Water; order: 4" role="graphics-symbol" aria-roledescription="bar" d="M483,250.28571428571428h54v30.857142857142833h-54Z" fill="#fdc086"/><path aria-label="City: Toronto; value: 18.2; category: Peanut; order: 3" role="graphics-symbol" aria-roledescription="bar" d="M483,146.28571428571428h54v104h-54Z" fill="#beaed4"/><path aria-label="City: Toronto; value: 3.4; category: Soda; order: 2" role="graphics-symbol" aria-roledescription="bar" d="M483,126.85714285714282h54v19.42857142857146h-54Z" fill="#7fc97f"/><path aria-label="City: Toronto; value: 8; category: Vodka; order: 1" role="graphics-symbol" aria-roledescription="bar" d="M483,81.14285714285714h54v45.71428571428568h-54Z" fill="#386cb0"/><path aria-label="City: Copenhagen; value: 24.3; category: Sandwich; order: 5" role="graphics-symbol" aria-roledescription="bar" d="M3,261.1428571428571h54v138.8571428571429h-54Z" fill="#fb9a99"/><path aria-label="City: Copenhagen; value: 2.8; category: Water; order: 4" role="graphics-symbol" aria-roledescription="bar" d="M3,245.1428571428571h54v16h-54Z" fill="#fdc086"/><path aria-label="City: Copenhagen; value: 10.8; category: Peanut; order: 3" role="graphics-symbol" aria-roledescription="bar" d="M3,183.42857142857142h54v61.714285714285694h-54Z" fill="#beaed4"/><path aria-label="City: Copenhagen; value: 5; category: Soda; order: 2" role="graphics-symbol" aria-roledescription="bar" d="M3,154.8571428571428h54v28.571428571428612h-54Z" fill="#7fc97f"/><path aria-label="City: Copenhagen; value: 3.7; category: Vodka; order: 1" role="graphics-symbol" aria-roledescription="bar" d="M3,133.71428571428567h54v21.14285714285714h-54Z" fill="#386cb0"/></g><g class="mark-group role-legend" role="graphics-symbol" aria-roledescription="legend" aria-label="Symbol legend for fill color with 5 values: Vodka, Soda, Peanut, Water, Sandwich"><g transform="translate(618,0)"><path class="background" aria-hidden="true" d="M0,0h60v63h-60Z" pointer-events="none"/><g><g class="mark-group role-legend-entry"><g transform="translate(0,0)"><path class="background" aria-hidden="true" d="M0,0h0v0h0Z" pointer-events="none"/><g><g class="mark-group role-scope" role="graphics-object" aria-roledescription="group mark container"><g transform="translate(0,0)"><path class="background" aria-hidden="true" d="M0,0h59.359375v11h-59.359375Z" pointer-events="none" opacity="1"/><g><g class="mark-symbol role-legend-symbol" pointer-events="none"><path transform="translate(6,6)" d="M-5,-5h10v10h-10Z" fill="#386cb0" stroke-width="1.5" opacity="1"/></g><g class="mark-text role-legend-label" pointer-events="none"><text text-anchor="start" transform="translate(16,9)" font-family="sans-serif" font-size="10px" fill="#000" opacity="1">Vodka</text></g></g><path class="foreground" aria-hidden="true" d="" pointer-events="none" display="none"/></g><g transform="translate(0,13)"><path class="background" aria-hidden="true" d="M0,0h59.359375v11h-59.359375Z" pointer-events="none" opacity="1"/><g><g class="mark-symbol role-legend-symbol" pointer-events="none"><path transform="translate(6,6)" d="M-5,-5h10v10h-10Z" fill="#7fc97f" stroke-width="1.5" opacity="1"/></g><g class="mark-text role-legend-label" pointer-events="none"><text text-anchor="start" transform="translate(16,9)" font-family="sans-serif" font-size="10px" fill="#000" opacity="1">Soda</text></g></g><path class="foreground" aria-hidden="true" d="" pointer-events="none" display="none"/></g><g transform="translate(0,26)"><path class="background" aria-hidden="true" d="M0,0h59.359375v11h-59.359375Z" pointer-events="none" opacity="1"/><g><g class="mark-symbol role-legend-symbol" pointer-events="none"><path transform="translate(6,6)" d="M-5,-5h10v10h-10Z" fill="#beaed4" stroke-width="1.5" opacity="1"/></g><g class="mark-text role-legend-label" pointer-events="none"><text text-anchor="start" transform="translate(16,9)" font-family="sans-serif" font-size="10px" fill="#000" opacity="1">Peanut</text></g></g><path class="foreground" aria-hidden="true" d="" pointer-events="none" display="none"/></g><g transform="translate(0,39)"><path class="background" aria-hidden="true" d="M0,0h59.359375v11h-59.359375Z" pointer-events="none" opacity="1"/><g><g class="mark-symbol role-legend-symbol" pointer-events="none"><path transform="translate(6,6)" d="M-5,-5h10v10h-10Z" fill="#fdc086" stroke-width="1.5" opacity="1"/></g><g class="mark-text role-legend-label" pointer-events="none"><text text-anchor="start" transform="translate(16,9)" font-family="sans-serif" font-size="10px" fill="#000" opacity="1">Water</text></g></g><path class="foreground" aria-hidden="true" d="" pointer-events="none" display="none"/></g><g transform="translate(0,52)"><path class="background" aria-hidden="true" d="M0,0h59.359375v11h-59.359375Z" pointer-events="none" opacity="1"/><g><g class="mark-symbol role-legend-symbol" pointer-events="none"><path transform="translate(6,6)" d="M-5,-5h10v10h-10Z" fill="#fb9a99" stroke-width="1.5" opacity="1"/></g><g class="mark-text role-legend-label" pointer-events="none"><text text-anchor="start" transform="translate(16,9)" font-family="sans-serif" font-size="10px" fill="#000" opacity="1">Sandwich</text></g></g><path class="foreground" aria-hidden="true" d="" pointer-events="none" display="none"/></g></g></g><path class="foreground" aria-hidden="true" d="" pointer-events="none" display="none"/></g></g></g><path class="foreground" aria-hidden="true" d="" pointer-events="none" display="none"/></g></g><g class="mark-group role-title"><g transform="translate(300,-22)"><path class="background" aria-hidden="true" d="M0,0h0v0h0Z" pointer-events="none"/><g><g class="mark-text role-title-text" role="graphics-symbol" aria-roledescription="title" aria-label="Title text 'Room Service Prices'" pointer-events="none"><text text-anchor="middle" transform="translate(0,10)" font-family="sans-serif" font-size="13px" font-weight="bold" fill="#000" opacity="1">Room Service Prices</text></g></g><path class="foreground" aria-hidden="true" d="" pointer-events="none" display="none"/></g></g></g><path class="foreground" aria-hidden="true" d="" display="none"/></g></g></g></svg>