<svg xmlns="http://www.w3.org/2000/svg" xmlns:xlink="http://www.w3.org/1999/xlink" version="1.1" class="marks" width="858" height="450" viewBox="0 0 858 450"><rect width="858" height="450" fill="white"/><g fill="none" stroke-miterlimit="10" transform="translate(51,27)"><g class="mark-group role-frame root" role="graphics-object" aria-roledescription="group mark container"><g transform="translate(0,0)"><path class="background" aria-hidden="true" d="M0,0h800v400h-800Z"/><g><g class="mark-group role-axis" aria-hidden="true"><g transform="translate(0.5,400.5)"><path class="background" aria-hidden="true" d="M0,0h0v0h0Z" pointer-events="none"/><g><g class="mark-rule role-axis-grid" pointer-events="none"><line transform="translate(103,-400)" x2="0" y2="400" stroke="#ddd" stroke-opacity="0.5" stroke-width="1" opacity="1"/><line transform="translate(207,-400)" x2="0" y2="400" stroke="#ddd" stroke-opacity="0.5" stroke-width="1" opacity="1"/><line transform="translate(312,-400)" x2="0" y2="400" stroke="#ddd" stroke-opacity="0.5" stroke-width="1" opacity="1"/><line transform="translate(418,-400)" x2="0" y2="400" stroke="#ddd" stroke-opacity="0.5" stroke-width="1" opacity="1"/><line transform="translate(521,-400)" x2="0" y2="400" stroke="#ddd" stroke-opacity="0.5" stroke-width="1" opacity="1"/><line transform="translate(625,-400)" x2="0" y2="400" stroke="#ddd" stroke-opacity="0.5" stroke-width="1" opacity="1"/><line transform="translate(730,-400)" x2="0" y2="400" stroke="#ddd" stroke-opacity="0.5" stroke-width="1" opacity="1"/></g></g><path class="foreground" aria-hidden="true" d="" pointer-events="none" display="none"/></g></g><g class="mark-group role-axis" aria-hidden="true"><g transform="translate(0.5,0.5)"><path class="background" aria-hidden="true" d="M0,0h0v0h0Z" pointer-events="none"/><g><g class="mark-rule role-axis-grid" pointer-events="none"><line transform="translate(0,400)" x2="800" y2="0" stroke="#ddd" stroke-opacity="0.5" stroke-width="1" opacity="1"/><line transform="translate(0,349)" x2="800" y2="0" stroke="#ddd" stroke-opacity="0.5" stroke-width="1" opacity="1"/><line transform="translate(0,298)" x2="800" y2="0" stroke="#ddd" stroke-opacity="0.5" stroke-width="1" opacity="1"/><line transform="translate(0,247)" x2="800" y2="0" stroke="#ddd" stroke-opacity="0.5" stroke-width="1" opacity="1"/><line transform="translate(0,196)" x2="800" y2="0" stroke="#ddd" stroke-opacity="0.5" stroke-width="1" opacity="1"/><line transform="translate(0,145)" x2="800" y2="0" stroke="#ddd" stroke-opacity="0.5" stroke-width="1" opacity="1"/><line transform="translate(0,94)" x2="800" y2="0" stroke="#ddd" stroke-opacity="0.5" stroke-width="1" opacity="1"/><line transform="translate(0,43)" x2="800" y2="0" stroke="#ddd" stroke-opacity="0.5" stroke-width="1" opacity="1"/></g></g><path class="foreground" aria-hidden="true" d="" pointer-events="none" display="none"/></g></g><g class="mark-group role-axis" role="graphics-symbol" aria-roledescription="axis" aria-label="X-axis for a time scale with values from Monday, 01 January 2018, 2:00:00 AM to Sunday, 01 December 2019, 2:00:00 AM"><g transform="translate(0.5,400.5)"><path class="background" aria-hidden="true" d="M0,0h0v0h0Z" pointer-events="none"/><g><g class="mark-rule role-axis-tick" pointer-events="none"><line transform="translate(103,0)" x2="0" y2="5" stroke="#888" stroke-width="1" opacity="1"/><line transform="translate(207,0)" x2="0" y2="5" stroke="#888" stroke-width="1" opacity="1"/><line transform="translate(312,0)" x2="0" y2="5" stroke="#888" stroke-width="1" opacity="1"/><line transform="translate(418,0)" x2="0" y2="5" stroke="#888" stroke-width="1" opacity="1"/><line transform="translate(521,0)" x2="0" y2="5" stroke="#888" stroke-width="1" opacity="1"/><line transform="translate(625,0)" x2="0" y2="5" stroke="#888" stroke-width="1" opacity="1"/><line transform="translate(730,0)" x2="0" y2="5" stroke="#888" stroke-width="1" opacity="1"/></g><g class="mark-text role-axis-label" pointer-events="none"><text text-anchor="middle" transform="translate(102.86123032904149,16)" font-family="sans-serif" font-size="11px" fill="#000" opacity="1">Apr 2018</text><text text-anchor="middle" transform="translate(207.01001430615165,16)" font-family="sans-serif" font-size="11px" fill="#000" opacity="1">Jul 2018</text><text text-anchor="middle" transform="translate(312.3032904148784,16)" font-family="sans-serif" font-size="11px" fill="#000" opacity="1">Oct 2018</text><text text-anchor="middle" transform="translate(417.6442536957558,16)" font-family="sans-serif" font-size="11px" fill="#000" opacity="1">Jan 2019</text><text text-anchor="middle" transform="translate(520.6008583690987,16)" font-family="sans-serif" font-size="11px" fill="#000" opacity="1">Apr 2019</text><text text-anchor="middle" transform="translate(624.7496423462088,16)" font-family="sans-serif" font-size="11px" fill="#000" opacity="1">Jul 2019</text><text text-anchor="middle" transform="translate(730.0429184549356,16)" font-family="sans-serif" font-size="11px" fill="#000" opacity="1">Oct 2019</text></g><g class="mark-rule role-axis-domain" pointer-events="none"><line transform="translate(0,0)" x2="800" y2="0" stroke="#888" stroke-width="1" opacity="1"/></g></g><path class="foreground" aria-hidden="true" d="" pointer-events="none" display="none"/></g></g><g class="mark-group role-axis" role="graphics-symbol" aria-roledescription="axis" aria-label="Y-axis titled 'Coffee Price ($/lb)' for a linear scale with values from 0.5 to 0.9"><g transform="translate(0.5,0.5)"><path class="background" aria-hidden="true" d="M0,0h0v0h0Z" pointer-events="none"/><g><g class="mark-rule role-axis-tick" pointer-events="none"><line transform="translate(0,400)" x2="-5" y2="0" stroke="#888" stroke-width="1" opacity="1"/><line transform="translate(0,349)" x2="-5" y2="0" stroke="#888" stroke-width="1" opacity="1"/><line transform="translate(0,298)" x2="-5" y2="0" stroke="#888" stroke-width="1" opacity="1"/><line transform="translate(0,247)" x2="-5" y2="0" stroke="#888" stroke-width="1" opacity="1"/><line transform="translate(0,196)" x2="-5" y2="0" stroke="#888" stroke-width="1" opacity="1"/><line transform="translate(0,145)" x2="-5" y2="0" stroke="#888" stroke-width="1" opacity="1"/><line transform="translate(0,94)" x2="-5" y2="0" stroke="#888" stroke-width="1" opacity="1"/><line transform="translate(0,43)" x2="-5" y2="0" stroke="#888" stroke-width="1" opacity="1"/></g><g class="mark-text role-axis-label" pointer-events="none"><text text-anchor="end" transform="translate(-7,403)" font-family="sans-serif" font-size="11px" fill="#000" opacity="1">0.50</text><text text-anchor="end" transform="translate(-7,352.0316004077472)" font-family="sans-serif" font-size="11px" fill="#000" opacity="1">0.55</text><text text-anchor="end" transform="translate(-7,301.06320081549444)" font-family="sans-serif" font-size="11px" fill="#000" opacity="1">0.60</text><text text-anchor="end" transform="translate(-7,250.09480122324157)" font-family="sans-serif" font-size="11px" fill="#000" opacity="1">0.65</text><text text-anchor="end" transform="translate(-7,199.1264016309888)" font-family="sans-serif" font-size="11px" fill="#000" opacity="1">0.70</text><text text-anchor="end" transform="translate(-7,148.15800203873596)" font-family="sans-serif" font-size="11px" fill="#000" opacity="1">0.75</text><text text-anchor="end" transform="translate(-7,97.18960244648314)" font-family="sans-serif" font-size="11px" fill="#000" opacity="1">0.80</text><text text-anchor="end" transform="translate(-7,46.22120285423039)" font-family="sans-serif" font-size="11px" fill="#000" opacity="1">0.85</text></g><g class="mark-rule role-axis-domain" pointer-events="none"><line transform="translate(0,400)" x2="0" y2="-400" stroke="#888" stroke-width="1" opacity="1"/></g><g class="mark-text role-axis-title" pointer-events="none"><text text-anchor="middle" transform="translate(-32.4091796875,200) rotate(-90) translate(0,-3)" font-family="sans-serif" font-size="12px" font-weight="bold" fill="#000" opacity="1">Coffee Price ($/lb)</text></g></g><path class="foreground" aria-hidden="true" d="" pointer-events="none" display="none"/></g></g><g class="mark-area role-mark layer_0_marks" role="graphics-object" aria-roledescription="area mark container"><path aria-label="month: Jan 01, 2018; Coffee Price ($/lb): 0.8865; Month: Jan 01, 2018; Price: $0.886" role="graphics-symbol" aria-roledescription="area mark" d="M0,6.014L35.479,0L67.525,10.805L103.004,9.48L137.339,5.097L172.818,32.314L207.153,49.134L242.632,86.646L278.112,127.829L312.446,39.959L347.926,58.308L382.26,118.96L417.74,112.13L453.219,107.951L485.265,125.178L520.744,162.691L555.079,184.709L590.558,155.148L624.893,156.065L660.372,188.175L695.851,189.602L730.186,210.092L765.665,162.691L800,163.303L800,400L765.665,400L730.186,400L695.851,400L660.372,400L624.893,400L590.558,400L555.079,400L520.744,400L485.265,400L453.219,400L417.74,400L382.26,400L347.926,400L312.446,400L278.112,400L242.632,400L207.153,400L172.818,400L137.339,400L103.004,400L67.525,400L35.479,400L0,400Z" fill="#3182bd" stroke-width="1.5" opacity="0.6"/></g><g class="mark-line role-mark layer_1_marks" role="graphics-object" aria-roledescription="line mark container"><path aria-label="month: Jan 01, 2018; Coffee Price ($/lb): 0.8865; Month: Jan 01, 2018; Price: $0.886" role="graphics-symbol" aria-roledescription="line mark" d="M0,6.014L35.479,0L67.525,10.805L103.004,9.48L137.339,5.097L172.818,32.314L207.153,49.134L242.632,86.646L278.112,127.829L312.446,39.959L347.926,58.308L382.26,118.96L417.74,112.13L453.219,107.951L485.265,125.178L520.744,162.691L555.079,184.709L590.558,155.148L624.893,156.065L660.372,188.175L695.851,189.602L730.186,210.092L765.665,162.691L800,163.303" stroke="#4c78a8" stroke-width="2"/></g><g class="mark-group role-title"><g transform="translate(400,-22)"><path class="background" aria-hidden="true" d="M0,0h0v0h0Z" pointer-events="none"/><g><g class="mark-text role-title-text" role="graphics-symbol" aria-roledescription="title" aria-label="Title text 'Robusta Coffee Price'" pointer-events="none"><text text-anchor="middle" transform="translate(0,13)" font-family="sans-serif" font-size="16px" font-weight="bold" fill="#000" opacity="1">Robusta Coffee Price</text></g></g><path class="foreground" aria-hidden="true" d="" pointer-events="none" display="none"/></g></g></g><path class="foreground" aria-hidden="true" d="" display="none"/></g></g></g></svg>