<svg xmlns="http://www.w3.org/2000/svg" xmlns:xlink="http://www.w3.org/1999/xlink" version="1.1" class="marks" width="800" height="604" viewBox="0 0 800 604"><rect width="800" height="604" fill="white"/><g fill="none" stroke-miterlimit="10" transform="translate(0,103)"><g class="mark-group role-frame root" role="graphics-object" aria-roledescription="group mark container"><g transform="translate(0,0)"><path class="background" aria-hidden="true" d="M0,0h800v500h-800Z"/><g><g class="mark-shape role-mark layer_0_marks" role="graphics-object" aria-roledescription="shape mark container"><path aria-label="value: 3001" role="graphics-symbol" aria-roledescription="geoshape" transform="translate(0,0)" d="M470.262,206.626L466.076,211.416L468.326,213.707L471.676,214.47L469.425,217.419L469.32,223.41L462.988,224.78L459.219,224.323L456.603,225.743L456.236,222.396L453.253,218.994L452.154,220.111L449.171,216.707L446.135,216.301L443.518,220.721L440.535,223.664L441.268,225.185L439.384,227.719L436.034,226.199L434.935,227.314L431.585,227.263L427.084,224.983L422.217,225.338L419.967,226.757L416.251,227.111L416.669,231.921L413.32,234.5L407.039,238.138L403.271,235.511L400.654,235.865L397.357,238.037L394.74,235.814L390.239,235.41L388.041,236.875L385.424,235.764L379.091,235.764L376.893,237.936L376.213,241.62L373.648,243.838L375.218,247.515L368.153,246.76L366.687,250.082L361.925,251.188L360.826,252.646L358.209,251.591L356.063,254.154L350.097,252.395L352.609,249.83L351.353,243.233L349.416,240.308L345.7,237.431L345.962,234.5L341.88,233.085L341.827,230.504L340.257,228.327L340.571,225.743L337.222,223.968L338.949,220.213L337.012,216.961L336.908,213.961L340.467,208.665L340.362,205.299L341.566,208.665L348.893,205.911L350.568,199.529L354.702,199.835L355.487,201.675L358.418,199.426L359.256,202.747L365.693,203.819L370.822,197.841L374.224,199.733L377.207,197.483L379.091,197.483L381.028,199.733L383.645,198.608L386.68,199.017L390.03,197.893L390.344,194.515L393.746,193.798L393.693,191.954L396.31,190.468L398.875,182.975L401.806,177.317L402.12,173.918L401.335,170.514L401.649,167.159L405.783,164.524L408.819,163.8L405.679,158.056L410.284,157.33L411.802,158.522L411.069,161.524L411.488,164.576L413.058,166.488L416.46,165.764L419.182,166.901L423.368,166.952L426.77,160.903L431.69,159.816L430.905,156.035L431.271,151.833L433.574,149.964L435.092,144.246L437.395,144.662L439.698,143.153L443.152,147.782L445.873,148.926L447.025,155.05L452.73,160.8L452.73,165.713L450.427,166.074L453.096,169.482L458.382,172.938L458.748,177.472L462.15,178.655L465.186,181.741L466.651,185.543L466.651,187.801L463.197,192.262L463.93,196.767L466.18,199.784L462.412,199.733L455.242,197.023L454.09,199.989L456.341,202.645L462.726,206.116L465.761,206.167L466.861,207.696Z" fill="rgb(138, 190, 221)" stroke="white" stroke-opacity="0.3" stroke-width="0.5"/><path aria-label="value: 1776" role="graphics-symbol" aria-roledescription="geoshape" transform="translate(0,0)" d="M493.029,1.636L491.459,7.301L488.79,11.87L490.308,15.454L494.076,20.009L496.379,20.443L496.379,23.205L493.709,23.963L491.773,22.718L489.47,24.937L493.029,27.317L491.668,30.505L487.22,30.073L482.3,33.959L482.248,37.571L480.207,40.318L482.928,45.911L481.306,48.274L484.498,54.174L483.294,59.314L481.724,59.688L480.887,63.216L481.306,67.54L479.317,67.914L478.898,75.692L477.694,78.829L474.92,80.742L476.072,82.707L474.868,84.989L479.578,88.17L479.945,90.5L478.741,93.2L484.969,95.579L485.336,98.696L483.347,100.597L483.661,106.765L485.545,108.713L482.405,111.765L483.137,114.077L480.835,115.233L480.364,121.005L479.16,124.411L477.59,127.08L472.879,130.114L470.943,133.144L467.07,134.658L455.87,134.919L454.718,131.838L450.845,131.42L448.543,130.27L445.455,135.232L441.215,135.545L438.494,133.979L436.139,130.898L435.772,127.865L437.29,122.525L433.784,122.473L432.213,119.38L427.503,116.651L425.567,118.173L425.619,121.267L421.746,120.848L418.658,123.887L414.785,122.682L411.697,124.987L408.191,122.263L406.254,123.416L403.533,122.211L401.125,117.963L401.753,112.238L398.142,107.976L394.635,107.134L386.105,107.134L381.761,104.763L382.755,100.175L379.196,97.851L377.469,91.612L375.061,89.706L372.026,89.706L371.188,88.117L372.235,84.246L370.613,79.945L372.445,78.404L373.073,73.669L375.271,72.977L375.951,70.26L378.149,69.194L376.422,61.506L372.811,53.638L374.381,51.225L372.497,47.576L374.433,46.77L376.789,43.438L379.824,35.792L380.4,32.61L384.587,30.559L384.325,28.182L386.628,25.586L389.925,25.37L390.344,19.63L394.74,19.63L396.991,18.492L402.12,21.635L405.103,18.221L410.755,15.617L412.692,16.81L420.647,17.19L425.881,18.437L427.974,17.624L431.742,19.251L430.643,22.447L434.726,22.122L436.819,23.368L442.524,21.039L446.24,18.709L448.386,15.508L447.496,8.988L450.27,7.791L448.7,2.181L455.87,2.345L459.586,4.47L463.145,7.791L464.819,6.648L470.315,6.431L471.519,8.444L474.345,7.029L478.375,3.108L482.666,2.072L485.388,0L489.575,2.018Z" fill="rgb(170, 207, 230)" stroke="white" stroke-opacity="0.3" stroke-width="0.5"/><path aria-label="value: 1376" role="graphics-symbol" aria-roledescription="geoshape" transform="translate(0,0)" d="M169.534,240.964L172.936,241.872L176.233,241.317L181.571,246.559L183.613,244.594L191.254,246.005L191.097,248.623L192.353,250.384L196.801,249.78L199.942,251.44L203.187,249.78L206.222,250.384L208.054,254.355L210.723,254.957L212.084,253.048L215.067,252.847L214.805,250.233L216.166,248.623L219.83,247.968L222.499,249.176L223.807,247.264L230.821,248.572L232.914,246.609L235.897,247.868L236.107,244.897L239.508,245.803L242.021,243.788L245.475,246.206L245.998,251.389L248.615,254.254L245.737,256.815L242.282,257.618L239.927,255.66L238.305,259.274L232.757,259.324L230.402,257.719L226.634,260.427L223.493,260.126L221.557,256.665L215.172,258.571L219.411,261.981L219.045,264.936L213.654,261.53L212.974,263.985L209.519,267.989L206.536,270.439L204.704,269.389L199.366,271.938L197.848,275.134L192.039,283.855L184.188,284.652L182.723,284.303L176.966,286.293L169.586,286.691L155.612,288.58L152.943,289.425L151.844,292.802L148.285,298.009L143.889,299.743L140.801,299.842L143.784,294.34L143.889,292.851L141.272,290.22L139.702,287.039L139.335,283.756L140.748,279.572L143.104,277.179L142.842,274.635L146.087,273.686L149.122,266.838L151.635,265.938L157.601,258.973L160.794,257.618L165.19,257.367L170.11,258.521L168.225,254.254L168.644,250.937L167.597,243.989Z" fill="rgb(180, 211, 233)" stroke="white" stroke-opacity="0.3" stroke-width="0.5"/><path aria-label="value: 0" role="graphics-symbol" aria-roledescription="geoshape" transform="translate(0,0)" d="M519.145,404.077L519.669,401.87L525.53,403.07L530.398,403.118L534.48,398.701L538.301,401.486L539.975,397.884L542.435,399.902L542.226,402.83L537.516,402.398L535.998,403.55L535.788,405.995L538.405,408.918L541.755,407.864L544.319,404.173L543.901,400.046L547.198,399.47L551.751,401.63L553.949,412.03L557.194,420.058L559.968,425.305L566.72,434.252L569.912,438.954L575.198,444.455L578.181,446.444L581.322,446.302L585.98,444.455L587.759,444.692L589.225,441.089L593.098,438.005L595.557,441.374L599.378,443.033L602.518,440.709L602.256,438.954L604.769,437.34L609.322,436.485L614.189,436.722L617.225,438.242L619.685,437.625L621.307,439.428L624.133,438.432L626.017,441.279L624.604,443.791L622.145,444.076L616.963,448.291L617.644,449.758L616.597,454.391L618.533,460.338L615.288,461.847L611.782,461.611L609.217,463.166L602.152,461.988L598.488,464.156L594.458,464.909L593.359,462.695L589.329,459.111L583.467,456.421L580.589,456.61L576.611,458.687L573.994,462.554L575.146,464.674L571.744,466.322L568.394,466.651L568.342,469.145L564.26,470.509L561.538,476.193L558.817,474.08L555.781,473.329L553.321,474.644L546.465,474.832L535.945,480.321L533.433,483.086L531.654,488.047L527.415,493.048L524.274,493.562L522.128,497.482L514.54,499.767L512.76,499.021L507.945,500L508.259,499.301L513.755,497.249L511.033,491.74L508.364,493.282L504.91,492.207L503.025,488.141L506.532,486.129L507.369,483.039L505.381,481.258L500.984,481.493L500.723,479.055L502.868,476.709L499.885,475.536L498.996,473.094L500.827,469.38L500.409,463.166L498.263,458.215L496.065,454.627L492.977,452.358L487.638,454.674L484.027,452.784L477.066,446.539L477.066,444.171L471.205,442.938L464.976,442.986L460.475,446.065L453.672,444.076L452.991,441.611L455.87,437.862L460.214,434.87L465.657,432.16L468.169,432.16L471.414,427.02L476.438,423.875L481.829,421.394L482.143,419.342L485.754,419.915L491.145,417.289L492.61,415.855L498.524,413.847L500.775,411.647L503.706,410.977L506.061,408.535L501.508,407.864L500.723,404.941L500.513,398.701L502.502,393.653L506.27,396.25L509.306,395.481L511.923,396.539L515.639,399.518L516.371,401.486L518.517,402.014Z" fill="rgb(207, 225, 242)" stroke="white" stroke-opacity="0.3" stroke-width="0.5"/><path aria-label="value: 7076" role="graphics-symbol" aria-roledescription="geoshape" transform="translate(0,0)" d="M560.806,211.976L566.981,212.129L567.295,214.419L577.239,220.721L579.699,223.055L582.996,223.563L588.178,222.954L592.417,226.098L593.202,224.577L599.901,222.548L601.314,231.264L605.24,233.287L606.286,234.804L606.025,238.946L611.311,242.477L610.421,245.854L615.341,248.623L619.318,242.376L624.971,246.307L628.32,244.544L630.152,244.594L633.554,248.472L636.066,249.327L633.606,253.702L634.077,257.769L632.926,258.872L632.926,264.436L635.124,264.135L636.851,265.687L637.95,271.239L635.333,272.288L636.747,278.924L635.124,281.067L631.565,280.22L626.698,277.478L624.133,278.526L624.395,286.244L626.384,288.481L622.72,289.822L624.29,293.546L619.161,295.58L615.655,294.439L613.771,295.828L609.165,295.382L608.537,293.546L605.606,294.538L604.821,289.027L603.774,289.027L602.047,281.217L600.215,281.515L598.907,278.924L593.045,280.967L592.783,278.725L589.905,278.675L588.544,276.381L581.897,280.27L574.413,277.877L572.267,276.68L568.708,276.581L561.8,277.877L559.549,279.672L556.305,279.572L552.955,282.063L553.531,286.542L550.809,291.263L553.897,295.382L553.374,299.446L555.886,299.148L555.729,302.07L553.845,304.988L555.153,307.953L554.682,311.261L555.624,314.221L553.06,314.862L548.768,314.763L544.215,312.396L540.656,312.297L529.089,315.207L522.914,317.178L517.052,318.753L513.598,314.615L508.835,315.847L502.293,316.636L499.833,314.714L499.624,309.287L495.96,309.83L495.541,312.347L493.657,314.073L490.726,314.319L489.575,316.439L484.55,313.333L483.87,311.508L479.16,310.225L479.212,309.139L474.868,307.904L474.24,301.773L475.706,300.337L478.27,300.436L478.008,294.985L479.212,289.574L476.281,289.127L476.7,284.751L482.666,280.17L487.848,278.177L488.999,275.233L494.547,273.586L499.414,270.439L497.268,267.789L495.855,263.684L496.693,259.675L496.536,250.434L504.334,248.421L508.469,245.904L508.521,242.578L505.276,239.905L503.025,239.804L501.246,237.532L504.282,234.248L509.463,235.157L510.928,236.673L513.231,232.275L514.069,228.53L516.633,230.454L519.198,230.909L523.228,233.287L524.274,235.915L527.205,236.724L529.717,238.643L532.02,236.471L530.607,233.439L532.544,231.264L530.764,228.58L533.224,221.127L535.527,218.181L541.807,218.334L542.645,214.928L547.878,213.961L549.448,211.314L552.432,209.888L558.66,210.805Z" fill="rgb(40, 119, 183)" stroke="white" stroke-opacity="0.3" stroke-width="0.5"/><path aria-label="value: 933" role="graphics-symbol" aria-roledescription="geoshape" transform="translate(0,0)" d="M726.609,291.66L721.219,291.312L717.45,292.206L714.362,302.663L710.646,301.872L710.123,303.95L707.768,305.532L701.592,305.532L702.011,307.262L698.033,307.163L695.521,310.225L694.684,312.741L695.573,316.981L694.998,321.608L693.114,322.1L691.962,325.442L696.149,326.228L696.515,329.125L692.852,330.646L692.381,336.821L688.403,340.246L686.676,337.751L683.745,339.023L678.773,337.8L670.347,339.952L665.323,339.023L662.287,340.588L658.937,346.549L654.122,352.352L653.337,349.33L650.668,347.964L647.266,350.159L643.655,351.573L642.399,349.33L643.236,347.574L646.9,345.768L646.063,342.788L641.3,339.61L641.143,337.065L636.014,333.294L639.677,332.019L638.317,325.491L642.922,326.425L645.958,324.41L645.749,322.641L649.046,321.362L651.558,316.833L647.58,316.931L644.44,314.96L641.823,311.607L638.997,310.373L637.113,311.755L633.816,307.311L629.995,305.334L627.588,298.356L624.029,297.513L624.29,293.546L622.72,289.822L626.384,288.481L624.395,286.244L624.133,278.526L626.698,277.478L631.565,280.22L635.124,281.067L636.747,278.924L635.333,272.288L637.95,271.239L636.851,265.687L635.124,264.135L632.926,264.436L632.926,258.872L634.077,257.769L633.606,253.702L636.066,249.327L633.554,248.472L630.152,244.594L628.948,240.46L630.1,239.753L628.163,234.804L637.846,233.338L640.672,234.551L644.649,230.251L647.266,230.403L650.878,226.098L653.965,224.019L653.756,221.787L656.844,220.061L657.472,217.114L662.392,215.945L661.816,213.656L665.27,212.027L664.381,208.563L662.653,206.932L665.061,204.84L668.41,205.044L673.854,206.575L676.837,206.422L677.412,204.177L680.134,207.39L678.826,209.99L680.971,211.263L686.1,212.383L685.001,216.453L686.257,219.604L682.96,223.461L691.439,224.121L691.334,230.15L694.16,231.871L692.8,234.753L694.788,237.885L694.579,240.51L691.857,242.175L694.736,252.093L693.846,253.902L695.521,255.861L699.813,256.966L700.022,259.224L702.43,261.229L699.708,262.883L699.394,266.188L705.256,266.288L707.088,270.139L706.931,272.388L709.704,274.085L715.828,275.683L716.718,282.013L725.772,282.711L725.824,285.647L727.133,286.443Z" fill="rgb(190, 216, 236)" stroke="white" stroke-opacity="0.3" stroke-width="0.5"/><path aria-label="value: 2333" role="graphics-symbol" aria-roledescription="geoshape" transform="translate(0,0)" d="M131.485,188.93L133.578,195.539L135.515,196.102L136.876,198.66L135.619,201.011L136.247,203.564L138.707,206.371L136.771,209.124L139.335,212.638L142.371,213.147L141.481,215.843L139.492,217.876L144.883,220.416L147.5,220.568L148.337,224.983L152.734,224.678L153.728,231.264L155.089,233.742L157.601,228.783L161.265,228.175L161.84,230.707L166.184,233.034L169.848,236.471L169.534,240.964L167.597,243.989L168.644,250.937L168.225,254.254L170.11,258.521L165.19,257.367L160.794,257.618L157.601,258.973L151.635,265.938L149.122,266.838L146.087,273.686L142.842,274.635L143.104,277.179L140.748,279.572L139.335,283.756L139.702,287.039L141.272,290.22L143.889,292.851L143.784,294.34L140.801,299.842L139.231,300.139L136.666,294.588L131.485,292.355L130.019,288.729L125.937,285.298L125.571,281.117L127.56,279.522L126.879,276.68L123.687,273.736L122.692,271.288L124.158,267.889L121.802,266.638L121.907,264.085L116.726,259.825L114.999,257.468L113.115,260.227L109.713,259.123L107.933,256.363L107.933,249.378L101.862,251.188L100.03,254.304L97.727,253.149L97.937,248.321L95.372,248.623L92.912,245.954L92.232,243.032L88.987,243.435L85.899,238.996L83.23,237.835L83.91,234.399L83.23,231.517L83.335,225.895L85.271,220.061L88.568,216.656L88.411,214.826L91.499,212.587L93.436,213.452L98.303,213.656L100.658,211.467L103.066,213.096L104.322,211.059L111.754,211.008L113.847,209.327L117.825,208.563L116.098,202.339L117.773,200.295L118.924,196.818L117.092,193.184L118.819,192.262L118.087,188.571L120.285,188.007L121.907,185.594L125.361,186.826L128.135,188.827Z" fill="rgb(156, 200, 226)" stroke="white" stroke-opacity="0.3" stroke-width="0.5"/><path aria-label="value: 4148" role="graphics-symbol" aria-roledescription="geoshape" transform="translate(0,0)" d="M684.059,161.68L685.734,164.214L683.327,166.694L684.687,168.708L681.913,170.463L681.024,172.732L683.902,174.072L683.955,177.935L680.762,180.404L679.611,185.286L677.726,185.954L676.627,190.468L678.459,190.929L678.616,198.199L681.076,200.295L680.919,202.134L677.412,204.177L676.837,206.422L673.854,206.575L668.41,205.044L665.061,204.84L662.653,206.932L664.381,208.563L665.27,212.027L661.816,213.656L662.392,215.945L657.472,217.114L656.844,220.061L653.756,221.787L653.965,224.019L650.878,226.098L647.266,230.403L644.649,230.251L640.672,234.551L637.846,233.338L628.163,234.804L630.1,239.753L628.948,240.46L630.152,244.594L628.32,244.544L624.971,246.307L619.318,242.376L615.341,248.623L610.421,245.854L611.311,242.477L606.025,238.946L606.286,234.804L605.24,233.287L601.314,231.264L599.901,222.548L593.202,224.577L592.417,226.098L588.178,222.954L582.996,223.563L579.699,223.055L577.239,220.721L567.295,214.419L566.981,212.129L560.806,211.976L558.817,206.626L559.288,202.849L560.858,200.602L563.004,202.543L568.08,203.054L571.849,200.5L575.355,196.051L574.727,193.338L572.581,191.749L573.419,189.135L579.281,190.417L579.385,188.109L576.454,187.647L576.14,185.389L579.49,185.44L578.181,181.176L576.088,178.089L570.174,177.163L568.447,174.072L567.557,167.934L565.411,165.971L562.114,165.868L558.084,164.265L554.473,161.162L553.792,158.418L555.415,154.998L557.718,152.716L556.776,147.315L558.66,145.027L562.062,143.934L565.882,140.862L569.179,142.425L571.953,137.423L575.722,135.91L579.071,137.527L580.589,135.962L585.561,133.405L588.544,133.457L591.841,130.688L592.783,127.551L597.075,127.813L598.75,126.819L602.78,126.662L606.129,127.604L607.281,129.852L610.997,133.039L612.776,137.683L615.655,137.579L617.487,135.701L620.156,135.545L624.447,141.331L627.064,141.904L629.21,138.83L636.119,134.762L638.107,134.24L643.393,135.075L648.104,134.084L653.337,131.734L655.117,129.434L658.152,130.114L661.607,128.911L661.136,133.823L665.009,136.953L667.992,136.953L667.102,142.425L668.253,145.287L672.702,150.484L679.925,153.65L680.5,155.465L684.635,159.558Z" fill="rgb(106, 172, 212)" stroke="white" stroke-opacity="0.3" stroke-width="0.5"/><path aria-label="value: 323" role="graphics-symbol" aria-roledescription="geoshape" transform="translate(0,0)" d="M462.883,402.974L466.023,403.79L469.216,402.11L472.408,403.262L472.408,404.989L468.169,404.509ZM537.516,402.398L542.226,402.83L542.435,399.902L539.975,397.884L538.301,401.486L534.48,398.701L530.398,403.118L525.53,403.07L519.669,401.87L519.145,404.077L518.517,402.014L516.371,401.486L515.639,399.518L511.923,396.539L509.306,395.481L506.27,396.25L502.502,393.653L500.513,398.701L498.367,398.221L495.908,400.862L492.767,402.494L488.894,398.797L481.881,396.875L479.735,398.557L476.595,396.346L474.816,399.47L472.042,399.71L465.343,398.461L459.376,399.326L455.87,401.246L452.363,400.766L442.524,397.163L442.21,393.653L437.656,392.017L436.243,389.513L423.997,387.392L426.09,384.209L432.161,384.064L433.574,383.437L435.197,380.008L434.987,377.833L431.324,378.8L430.015,376.963L423.944,374.98L420.909,377.64L416.041,371.542L422.688,371.784L430.225,373.77L434.412,375.367L441.529,375.222L442.524,376.334L446.397,376.479L446.92,371.542L444.879,369.701L439.907,371.639L439.279,369.507L434.098,366.113L438.023,364.511L438.442,361.694L441.32,360.042L443.466,357.61L445.926,356.248L448.752,357.756L450.217,355.323L453.724,355.08L456.55,356.248L456.969,354.106L462.988,354.739L464.034,356.199L468.692,356.053L473.717,354.836L473.455,351.28L473.978,345.963L477.223,347.135L479.055,344.742L472.356,339.806L474.659,335.596L478.27,334.323L480.521,331.921L482.719,331.284L479.578,326.474L481.044,325.442L481.149,320.082L480.521,315.01L479.16,310.225L483.87,311.508L484.55,313.333L489.575,316.439L490.726,314.319L493.657,314.073L495.541,312.347L495.96,309.83L499.624,309.287L499.833,314.714L502.293,316.636L508.835,315.847L513.598,314.615L517.052,318.753L522.914,317.178L527.1,320.624L527.99,325.393L529.613,330.253L536.835,328.291L538.824,332.019L537.045,332.362L538.196,338.583L539.923,341.224L540.499,344.889L541.807,347.867L545.261,350.549L548.14,350.646L549.03,355.08L550.809,355.128L551.437,358.437L549.291,358.729L549.134,362.763L544.843,364.123L544.058,366.307L545.785,367.859L548.977,367.907L549.239,371.978L547.721,374.157L549.448,376.044L553.06,375.028L555.048,379.09L557.194,378.365L561.381,380.153L562.271,385.222L562.48,390.476L563.841,390.669L559.549,394.086L555.415,395.096L552.641,397.74L551.751,401.63L547.198,399.47L543.901,400.046L544.319,404.173L541.755,407.864L538.405,408.918L535.788,405.995L535.998,403.55Z" fill="rgb(201, 222, 240)" stroke="white" stroke-opacity="0.3" stroke-width="0.5"/><path aria-label="value: 2925" role="graphics-symbol" aria-roledescription="geoshape" transform="translate(0,0)" d="M234.693,119.957L235.164,121.844L239.247,124.725L236.944,131.054L240.189,133.196L240.241,134.762L243.434,136.067L243.643,138.778L247.673,142.008L251.075,139.873L251.232,142.945L254.948,146.951L252.331,148.666L252.488,151.314L254.896,152.352L252.017,156.346L249.295,156.139L250.238,159.143L249.295,163.076L252.017,163.645L253.535,170.05L256.675,170.979L260.705,173.815L258.664,178.913L260.653,179.89L258.507,183.489L259.501,187.186L257.669,188.827L262.589,202.543L262.537,209.684L259.815,208.359L257.722,211.467L253.849,210.244L251.546,210.346L250.185,213.096L247.516,212.485L246.993,216.656L244.323,216.809L242.649,221.025L243.905,222.852L242.544,225.185L243.852,229.188L243.329,240.359L242.021,243.788L239.508,245.803L236.107,244.897L235.897,247.868L232.914,246.609L230.821,248.572L223.807,247.264L222.499,249.176L219.83,247.968L216.166,248.623L214.805,250.233L215.067,252.847L212.084,253.048L210.723,254.957L208.054,254.355L206.222,250.384L203.187,249.78L198.895,247.817L198.633,244.846L194.917,240.964L195.231,235.41L193.609,233.995L195.336,232.022L193.243,229.543L192.981,221.736L193.609,220.162L192.51,215.385L193.609,210.041L192.929,205.963L195.022,203.564L194.08,200.96L193.871,193.44L193.295,190.417L190.835,188.725L193.661,185.081L193.086,182.461L195.545,180.044L195.336,176.596L193.661,175.206L195.022,172.835L191.934,166.539L192.981,165.351L191.201,162.404L190.94,158.211L193.504,156.864L193.033,150.328L195.336,150.172L194.237,145.235L196.854,144.662L200.779,140.133L205.385,139.82L211.089,132.83L211.875,133.196L216.847,126.243L217.475,123.835L221.976,121.582L226.267,122.473L227.314,120.428L231.867,118.173Z" fill="rgb(140, 191, 221)" stroke="white" stroke-opacity="0.3" stroke-width="0.5"/><path aria-label="value: 4848" role="graphics-symbol" aria-roledescription="geoshape" transform="translate(0,0)" d="M373.073,73.669L372.445,78.404L370.613,79.945L372.235,84.246L371.188,88.117L372.026,89.706L375.061,89.706L377.469,91.612L379.196,97.851L382.755,100.175L381.761,104.763L386.105,107.134L394.635,107.134L398.142,107.976L401.753,112.238L401.125,117.963L403.533,122.211L406.254,123.416L408.191,122.263L411.697,124.987L414.785,122.682L418.658,123.887L421.746,120.848L425.619,121.267L425.567,118.173L427.503,116.651L432.213,119.38L433.784,122.473L437.29,122.525L435.772,127.865L436.139,130.898L438.494,133.979L441.215,135.545L440.43,138.622L438.913,139.716L439.698,143.153L437.395,144.662L435.092,144.246L433.574,149.964L431.271,151.833L430.905,156.035L431.69,159.816L426.77,160.903L423.368,166.952L419.182,166.901L416.46,165.764L413.058,166.488L411.488,164.576L411.069,161.524L411.802,158.522L410.284,157.33L405.679,158.056L408.819,163.8L405.783,164.524L401.649,167.159L401.335,170.514L402.12,173.918L401.806,177.317L398.875,182.975L396.31,190.468L393.693,191.954L393.746,193.798L390.344,194.515L390.03,197.893L386.68,199.017L383.645,198.608L381.028,199.733L379.091,197.483L377.207,197.483L374.224,199.733L370.822,197.841L365.693,203.819L359.256,202.747L358.418,199.426L355.487,201.675L354.702,199.835L350.568,199.529L348.893,205.911L341.566,208.665L340.362,205.299L336.646,204.279L335.024,200.244L332.459,199.58L330.837,196.256L334.762,191.647L333.296,190.929L332.773,185.286L330.784,181.947L332.616,180.044L330.68,178.604L330.941,175.154L329.109,175.257L329.319,170.669L335.861,165.971L338.373,161.317L340.519,158.988L338.582,156.398L339.211,151.782L337.64,149.912L337.483,144.194L338.897,141.487L338.059,138.83L339.106,135.336L337.222,135.023L336.751,132.36L334.029,128.963L330.941,127.08L331.203,123.206L329.633,122.473L330.994,117.071L330.052,112.816L334.186,110.765L334.448,107.66L330.575,105.027L331.465,99.119L329.057,94.839L329.581,88.911L330.994,86.527L326.65,81.858L322.306,78.776L321.416,75.213L322.096,72.338L324.347,72.285L326.126,68.981L324.451,65.299L326.545,63.056L330.523,64.231L331.098,58.886L334.029,60.062L339.315,56.477L341.984,62.094L346.171,61.399L348.213,59.046L350.62,59.474L351.719,57.227L359.256,57.976L361.297,58.832L365.327,62.896L365.902,66.473L368.31,70.846L370.142,70.42ZM366.007,117.806L364.96,121.267L362.344,123.206L361.035,128.597L362.919,128.963L365.117,127.028L372.288,135.858L373.91,140.029L377.05,142.373L379.248,139.299L377.678,138.153L376.475,134.71L379.929,134.71L384.43,131.316L382.441,128.231L381.918,124.411L384.22,122.892L384.116,119.799L380.243,119.799L378.411,122.106L373.02,122.473L370.246,118.225Z" fill="rgb(87, 160, 206)" stroke="white" stroke-opacity="0.3" stroke-width="0.5"/><path aria-label="value: 9392" role="graphics-symbol" aria-roledescription="geoshape" transform="translate(0,0)" d="M366.007,117.806L370.246,118.225L373.02,122.473L378.411,122.106L380.243,119.799L384.116,119.799L384.22,122.892L381.918,124.411L382.441,128.231L384.43,131.316L379.929,134.71L376.475,134.71L377.678,138.153L379.248,139.299L377.05,142.373L373.91,140.029L372.288,135.858L365.117,127.028L362.919,128.963L361.035,128.597L362.344,123.206L364.96,121.267Z" fill="rgb(10, 74, 144)" stroke="white" stroke-opacity="0.3" stroke-width="0.5"/><path aria-label="value: 1801" role="graphics-symbol" aria-roledescription="geoshape" transform="translate(0,0)" d="M514.069,228.53L513.231,232.275L510.928,236.673L509.463,235.157L504.282,234.248L501.246,237.532L503.025,239.804L505.276,239.905L508.521,242.578L508.469,245.904L504.334,248.421L496.536,250.434L496.693,259.675L495.855,263.684L497.268,267.789L499.414,270.439L494.547,273.586L488.999,275.233L487.848,278.177L482.666,280.17L476.7,284.751L476.02,282.163L471.99,283.159L469.739,285.647L467.907,284.851L463.877,285.099L461.627,288.332L463.04,292.008L461.208,294.836L458.225,296.224L456.079,295.828L452.049,296.819L448.752,296.373L446.92,294.538L443.675,294.836L442.89,298.455L438.913,298.702L438.18,296.572L435.615,295.084L431.638,296.472L427.608,296.77L427.974,292.057L429.073,289.574L427.974,286.293L423.944,285.895L423.578,281.864L425.776,281.515L425.043,278.226L422.479,278.226L419.496,275.633L415.832,277.429L412.535,275.583L407.039,276.631L403.376,276.581L402.957,272.937L400.759,272.188L399.241,269.639L394.06,269.239L393.013,271.788L389.716,273.187L385.633,273.187L381.185,270.939L379.353,273.137L376.789,273.486L373.805,272.338L367.525,272.687L364.228,274.135L353.499,273.486L348.998,267.339L347.218,269.889L342.089,268.539L342.298,261.981L342.926,258.722L346.485,255.008L350.097,252.395L356.063,254.154L358.209,251.591L360.826,252.646L361.925,251.188L366.687,250.082L368.153,246.76L375.218,247.515L373.648,243.838L376.213,241.62L376.893,237.936L379.091,235.764L385.424,235.764L388.041,236.875L390.239,235.41L394.74,235.814L397.357,238.037L400.654,235.865L403.271,235.511L407.039,238.138L413.32,234.5L416.669,231.921L416.251,227.111L419.967,226.757L422.217,225.338L427.084,224.983L431.585,227.263L434.935,227.314L436.034,226.199L439.384,227.719L441.268,225.185L440.535,223.664L443.518,220.721L446.135,216.301L449.171,216.707L452.154,220.111L453.253,218.994L456.236,222.396L456.603,225.743L459.219,224.323L462.988,224.78L469.32,223.41L469.425,217.419L471.676,214.47L468.326,213.707L466.076,211.416L470.262,206.626L475.915,207.085L475.863,208.971L482.248,210.958L483.661,216.606L486.278,217.012L485.597,212.536L487.115,211.823L489.313,214.826L488.162,216.707L490.36,219.35L489.208,221.228L489.889,224.932L493.238,226.503L498.838,226.655L501.822,227.466L504.125,224.171L507.055,226.098L509.672,226.199Z" fill="rgb(170, 207, 230)" stroke="white" stroke-opacity="0.3" stroke-width="0.5"/><path aria-label="value: 0" role="graphics-symbol" aria-roledescription="geoshape" transform="translate(0,0)" d="M726.609,291.66L727.133,286.443L725.824,285.647L725.772,282.711L716.718,282.013L715.828,275.683L709.704,274.085L706.931,272.388L707.088,270.139L705.256,266.288L699.394,266.188L699.708,262.883L702.43,261.229L700.022,259.224L699.813,256.966L695.521,255.861L693.846,253.902L694.736,252.093L691.857,242.175L694.579,240.51L694.788,237.885L692.8,234.753L694.16,231.871L691.334,230.15L691.439,224.121L682.96,223.461L686.257,219.604L685.001,216.453L686.1,212.383L680.971,211.263L678.826,209.99L680.134,207.39L677.412,204.177L680.919,202.134L681.076,200.295L678.616,198.199L678.459,190.929L676.627,190.468L677.726,185.954L679.611,185.286L680.762,180.404L683.955,177.935L683.902,174.072L681.024,172.732L681.913,170.463L684.687,168.708L683.327,166.694L685.734,164.214L684.059,161.68L686.1,159.816L690.183,159.35L690.915,151.833L692.747,152.508L696.725,151.159L698.138,156.449L700.231,157.589L702.43,156.76L703.529,158.781L708.03,158.159L711.589,159.609L713.368,162.249L717.869,165.041L720.852,165.144L720.905,167.675L722.998,169.069L725.406,167.624L727.237,168.295L731.267,164.472L733.361,166.384L735.14,171.546L739.746,173.454L742.886,171.804L749.114,173.248L748.905,175.515L751.365,180.713L753.982,181.381L757.069,184.362L761.989,184.927L763.821,182.512L768.113,181.895L772.3,182.666L774.236,184.875L774.602,188.366L772.352,191.493L772.3,195.232L773.87,203.411L768.741,208.665L766.961,209.124L763.978,212.943L762.879,216.555L757.907,216.097L755.028,217.724L755.133,221.025L758.535,227.618L761.78,226.098L765.548,228.327L766.856,226.25L768.845,226.047L768.741,229.694L765.234,233.135L757.174,230.049L756.494,233.641L754.871,234.551L753.511,242.023L751.365,244.594L752.673,246.307L756.598,246.206L759.372,247.566L760.21,250.786L759.425,253.752L763.141,259.123L763.036,260.778L759.372,263.133L762.094,264.486L765.025,263.534L766.228,266.588L765.443,269.289L763.193,269.689L761.623,275.084L758.064,282.661L759.268,283.607L757.959,286.542L757.959,290.418L754.243,293.695L750.266,293.05L746.079,293.745L743.043,291.71L739.851,290.865L737.234,291.66L733.465,291.461L729.331,293.099Z" fill="rgb(207, 225, 242)" stroke="white" stroke-opacity="0.3" stroke-width="0.5"/><path aria-label="value: 4616" role="graphics-symbol" aria-roledescription="geoshape" transform="translate(0,0)" d="M148.285,136.693L152.21,138.309L150.588,141.904L151.949,144.506L151.949,149.133L157.496,156.398L160.27,158.107L159.537,163.128L157.863,165.919L154.565,168.089L150.326,167.262L146.244,168.347L146.558,172.113L145.668,175.257L143.365,174.278L140.958,181.69L137.975,181.947L133.683,184.208L131.38,184.002L131.485,188.93L128.135,188.827L125.361,186.826L121.907,185.594L120.285,188.007L118.087,188.571L118.819,192.262L117.092,193.184L118.924,196.818L117.773,200.295L116.098,202.339L117.825,208.563L113.847,209.327L111.754,211.008L104.322,211.059L103.066,213.096L100.658,211.467L98.303,213.656L93.436,213.452L91.499,212.587L88.411,214.826L88.568,216.656L85.271,220.061L83.335,225.895L83.23,231.517L83.91,234.399L83.23,237.835L80.299,238.188L76.165,237.229L75.589,235.41L72.71,235.764L68.262,235.208L68.052,233.338L65.802,229.492L59.731,230.555L59.05,228.023L56.381,226.047L55.858,223.816L57.323,221.838L56.381,219.654L54.654,213.554L51.619,210.856L50.153,205.35L52.508,202.288L52.613,199.426L48.06,192.313L48.164,189.186L46.803,187.083L47.222,184.516L50.781,180.353L52.09,176.648L56.224,173.041L56.591,171.34L61.144,166.023L72.135,152.249L72.815,150.276L77.054,146.691L80.09,143.049L88.935,135.284L90.243,131.838L94.169,129.434L99.716,130.061L103.903,127.917L104.898,125.667L106.311,116.021L105.787,114.865L108.195,113.762L111.911,117.648L114.999,118.435L116.045,116.756L119.552,117.543L120.965,120.9L123.163,119.904L124.995,123.573L126.565,123.835L126.565,128.493L131.747,131.525L131.59,133.823L134.677,134.345L136.457,133.039L140.748,133.405L141.743,131.42L145.563,136.119Z" fill="rgb(93, 164, 208)" stroke="white" stroke-opacity="0.3" stroke-width="0.5"/><path aria-label="value: 2459" role="graphics-symbol" aria-roledescription="geoshape" transform="translate(0,0)" d="M476.7,284.751L476.281,289.127L479.212,289.574L478.008,294.985L478.27,300.436L475.706,300.337L474.24,301.773L474.868,307.904L479.212,309.139L479.16,310.225L480.521,315.01L481.149,320.082L481.044,325.442L479.578,326.474L482.719,331.284L480.521,331.921L478.27,334.323L474.659,335.596L472.356,339.806L479.055,344.742L477.223,347.135L473.978,345.963L473.455,351.28L473.717,354.836L468.692,356.053L464.034,356.199L462.988,354.739L456.969,354.106L456.55,356.248L453.724,355.08L450.217,355.323L448.752,357.756L445.926,356.248L443.466,357.61L441.32,360.042L438.442,361.694L438.023,364.511L434.098,366.113L433.522,362.277L432.161,360.139L432.632,354.593L429.44,356.978L429.387,359.41L430.748,361.16L429.544,366.695L425.933,367.956L419.391,365.433L417.507,365.773L415.623,368.15L412.639,366.937L412.273,364.56L408.557,366.549L407.301,368.344L400.968,366.743L401.23,362.471L400.602,355.08L398.718,354.009L394.635,349.427L394.217,346.598L404.161,345.67L405.888,343.228L405.783,339.317L404.265,334.323L398.822,335.352L399.084,328.536L393.275,329.91L392.123,327.063L389.14,327.358L386.89,324.509L388.721,323.083L387.204,320.919L387.936,319.147L386.419,317.325L386.68,311.607L384.43,310.126L381.761,304.691L380.347,307.212L377.364,307.163L377.731,305.037L369.618,306.076L367.001,304.642L365.745,298.108L368.31,295.58L366.792,293.397L363.495,293.794L362.972,286.492L361.087,284.701L360.669,282.163L362.396,277.079L364.646,276.68L364.228,274.135L367.525,272.687L373.805,272.338L376.789,273.486L379.353,273.137L381.185,270.939L385.633,273.187L389.716,273.187L393.013,271.788L394.06,269.239L399.241,269.639L400.759,272.188L402.957,272.937L403.376,276.581L407.039,276.631L412.535,275.583L415.832,277.429L419.496,275.633L422.479,278.226L425.043,278.226L425.776,281.515L423.578,281.864L423.944,285.895L427.974,286.293L429.073,289.574L427.974,292.057L427.608,296.77L431.638,296.472L435.615,295.084L438.18,296.572L438.913,298.702L442.89,298.455L443.675,294.836L446.92,294.538L448.752,296.373L452.049,296.819L456.079,295.828L458.225,296.224L461.208,294.836L463.04,292.008L461.627,288.332L463.877,285.099L467.907,284.851L469.739,285.647L471.99,283.159L476.02,282.163Z" fill="rgb(153, 198, 225)" stroke="white" stroke-opacity="0.3" stroke-width="0.5"/><path aria-label="value: 4896" role="graphics-symbol" aria-roledescription="geoshape" transform="translate(0,0)" d="M364.228,274.135L364.646,276.68L362.396,277.079L360.669,282.163L361.087,284.701L362.972,286.492L363.495,293.794L366.792,293.397L368.31,295.58L365.745,298.108L367.001,304.642L369.618,306.076L377.731,305.037L377.364,307.163L380.347,307.212L381.761,304.691L384.43,310.126L386.68,311.607L386.419,317.325L387.936,319.147L387.204,320.919L388.721,323.083L386.89,324.509L389.14,327.358L392.123,327.063L393.275,329.91L399.084,328.536L398.822,335.352L404.265,334.323L405.783,339.317L405.888,343.228L404.161,345.67L394.217,346.598L394.635,349.427L398.718,354.009L400.602,355.08L401.23,362.471L400.968,366.743L399.241,366.84L386.105,372.075L384.011,371.784L382.336,375.318L383.645,376.673L383.488,380.25L382.336,383.099L380.138,385.27L376.108,392.402L370.77,400.622L364.699,406.666L359.465,413.417L344.026,425.972L339.106,425.781L337.169,423.064L337.797,421.681L337.954,416.763L336.332,416.859L335.285,419.676L335.861,422.062L334.186,423.493L334.134,432.16L335.495,432.778L333.872,436.295L335.913,438.289L338.897,436.865L340.31,438.194L340.519,444.739L339.368,450.278L336.698,451.035L336.437,445.166L334.5,442.464L331.622,440.283L326.545,438.669L324.399,439.381L319.741,439.096L317.177,440.188L313.67,442.796L307.547,445.166L307.023,448.385L300.847,445.26L299.382,448.433L299.958,451.035L296.608,451.176L291.793,449.994L289.019,448.433L282.268,445.876L280.07,441.8L279.546,438.337L276.354,437.15L279.128,432.683L280.802,431.827L284.78,433.349L286.036,435.25L289.386,434.204L288.758,430.495L290.694,429.543L289.857,424.733L288.548,424.113L290.694,420.44L293.102,418.578L297.707,417.193L297.498,415.568L300.743,413.943L299.696,409.445L300.9,406.139L307.547,404.461L308.96,403.358L309.378,400.67L307.704,398.317L311.838,392.739L307.285,388.163L308.96,385.27L306.709,377.156L313.147,373.14L315.659,373.286L319.479,371.009L319.165,379.235L322.829,379.718L322.463,376.528L323.98,374.399L326.074,377.156L328.22,374.98L330.104,378.22L332.668,380.298L334.029,382.954L337.64,383.002L337.326,378.51L339.996,378.752L340.728,376.286L343.816,381.892L346.171,382.954L348.684,380.636L351.353,381.892L353.97,380.636L350.672,374.544L348.684,374.738L346.485,372.172L348.945,371.009L349.521,369.168L348.736,365.627L349.783,363.249L350.044,358.875L346.014,353.911L345.648,351.573L342.455,352.888L340.519,352.499L339.891,349.427L336.489,349.037L334.5,346.402L335.128,338.289L332.354,339.659L330.784,336.576L333.924,335.89L332.668,329.665L334.5,328.487L333.872,322.198L330.313,322.296L329.79,325.295L327.801,326.228L325.708,325.098L325.498,320.968L323.509,321.116L322.986,317.769L319.898,318.507L318.066,317.67L317.491,315.108L314.978,310.965L317.752,309.583L319.479,305.384L318.642,300.238L320.526,298.108L319.375,295.679L318.119,290.12L317.229,283.507L313.984,284.154L312.623,286.741L308.96,284.453L307.076,285.895L303.464,281.117L303.464,278.127L307.599,277.03L308.122,272.837L311.472,274.085L313.094,270.139L316.444,272.887L321.154,275.782L325.865,275.683L326.964,274.235L330.261,275.233L333.506,275.184L334.553,273.736L337.85,273.636L337.797,270.439L342.089,268.539L347.218,269.889L348.998,267.339L353.499,273.486Z" fill="rgb(86, 159, 205)" stroke="white" stroke-opacity="0.3" stroke-width="0.5"/><path aria-label="value: 3065" role="graphics-symbol" aria-roledescription="geoshape" transform="translate(0,0)" d="M556.776,147.315L557.718,152.716L555.415,154.998L553.792,158.418L554.473,161.162L558.084,164.265L562.114,165.868L565.411,165.971L567.557,167.934L568.447,174.072L570.174,177.163L576.088,178.089L578.181,181.176L579.49,185.44L576.14,185.389L576.454,187.647L579.385,188.109L579.281,190.417L573.419,189.135L572.581,191.749L574.727,193.338L575.355,196.051L571.849,200.5L568.08,203.054L563.004,202.543L560.858,200.602L559.288,202.849L558.817,206.626L560.806,211.976L558.66,210.805L552.432,209.888L549.448,211.314L547.878,213.961L542.645,214.928L541.807,218.334L535.527,218.181L533.224,221.127L530.764,228.58L532.544,231.264L530.607,233.439L532.02,236.471L529.717,238.643L527.205,236.724L524.274,235.915L523.228,233.287L519.198,230.909L516.633,230.454L514.069,228.53L509.672,226.199L507.055,226.098L504.125,224.171L501.822,227.466L498.838,226.655L493.238,226.503L489.889,224.932L489.208,221.228L490.36,219.35L488.162,216.707L489.313,214.826L487.115,211.823L485.597,212.536L486.278,217.012L483.661,216.606L482.248,210.958L475.863,208.971L475.915,207.085L470.262,206.626L466.861,207.696L465.761,206.167L462.726,206.116L456.341,202.645L454.09,199.989L455.242,197.023L462.412,199.733L466.18,199.784L463.93,196.767L463.197,192.262L466.651,187.801L466.651,185.543L465.186,181.741L462.15,178.655L458.748,177.472L458.382,172.938L453.096,169.482L450.427,166.074L452.73,165.713L452.73,160.8L447.025,155.05L445.873,148.926L443.152,147.782L439.698,143.153L438.913,139.716L440.43,138.622L441.215,135.545L445.455,135.232L448.543,130.27L450.845,131.42L454.718,131.838L455.87,134.919L467.07,134.658L470.943,133.144L472.879,130.114L477.59,127.08L479.16,124.411L482.614,125.249L486.906,124.882L486.906,122.211L492.296,124.201L494.599,126.505L499.99,125.824L505.381,127.813L509.62,127.865L511.975,125.929L511.609,123.992L515.063,123.678L516.685,122.158L519.669,125.249L523.489,124.935L526.996,122.997L528.461,124.568L529.089,129.225L534.323,133.509L534.951,136.588L537.202,138.935L539.086,138.987L539.347,142.06L541.546,144.819L539.243,146.327L541.755,149.809L546.989,150.276L547.46,147.938L551.594,146.847Z" fill="rgb(136, 189, 220)" stroke="white" stroke-opacity="0.3" stroke-width="0.5"/><path aria-label="value: 2682" role="graphics-symbol" aria-roledescription="geoshape" transform="translate(0,0)" d="M254.686,56.798L250.342,59.207L251.86,63.857L248.563,62.575L246.731,65.566L248.458,67.38L244.742,70.42L245.894,75.905L243.329,78.085L241.602,81.751L241.759,84.511L240.084,88.17L238.095,88.329L235.164,90.871L237.101,96.636L236.525,100.227L238.305,109.555L235.374,112.869L235.793,119.065L234.693,119.957L231.867,118.173L227.314,120.428L226.267,122.473L221.976,121.582L217.475,123.835L216.847,126.243L211.875,133.196L211.089,132.83L205.385,139.82L200.779,140.133L196.854,144.662L194.237,145.235L191.254,141.592L187.276,139.56L185.915,142.008L182.67,139.925L180.839,141.175L178.431,144.819L171.523,144.975L170.11,146.587L167.754,145.599L163.41,149.393L160.323,153.494L157.653,154.065L157.496,156.398L151.949,149.133L151.949,144.506L150.588,141.904L152.21,138.309L148.285,136.693L152.106,131.734L149.855,127.237L149.96,123.73L148.233,121.11L151.268,120.481L154.827,121.791L157.025,120.428L156.293,116.178L159.276,114.76L161.055,112.658L163.41,112.921L167.859,110.608L172.779,109.45L173.825,112.921L178.117,113.762L179.897,111.712L180.211,105.027L181.519,102.18L186.229,103.024L184.869,99.964L184.45,93.676L187.852,93.041L189.684,90.924L189.474,88.594L187.014,85.996L183.508,85.837L182.513,83.132L186.386,82.866L188.061,79.148L185.497,75.745L183.56,75.107L182.147,72.018L178.798,68.287L179.059,66.26L173.93,65.406L171.47,63.59L170.319,58.458L167.493,57.066L169.063,51.762L166.498,49.133L169.9,47.254L173.302,39.887L170.79,37.355L170.999,34.66L173.983,31.099L170.371,30.559L169.534,29.1L177.018,29.424L178.955,27.803L183.403,29.748L187.014,28.776L189.841,29.694L193.033,32.934L200.203,33.204L205.856,37.733L207.426,38.002L210.985,35.9L217.318,36.601L219.306,40.264L220.981,39.618L225.901,40.748L226.424,39.564L234.536,39.187L234.746,46.126L237.363,48.005L236.054,51.547L240.974,50.099L245.475,50.367L249.4,48.864L251.494,50.313L256.361,50.421L256.152,53.531Z" fill="rgb(147, 195, 223)" stroke="white" stroke-opacity="0.3" stroke-width="0.5"/><path aria-label="value: 0" role="graphics-symbol" aria-roledescription="geoshape" transform="translate(0,0)" d="M507.945,500L505.485,499.627L501.612,497.062L500.513,493.842L494.966,493.095L492.139,490.572L493.5,487.486L497.425,484.116L497.635,479.993L497.164,475.817L498.996,473.094L499.885,475.536L502.868,476.709L500.723,479.055L500.984,481.493L505.381,481.258L507.369,483.039L506.532,486.129L503.025,488.141L504.91,492.207L508.364,493.282L511.033,491.74L513.755,497.249L508.259,499.301Z" fill="rgb(207, 225, 242)" stroke="white" stroke-opacity="0.3" stroke-width="0.5"/><path aria-label="value: 1670" role="graphics-symbol" aria-roledescription="geoshape" transform="translate(0,0)" d="M585.561,133.405L580.589,135.962L579.071,137.527L575.722,135.91L571.953,137.423L569.179,142.425L565.882,140.862L562.062,143.934L558.66,145.027L556.776,147.315L551.594,146.847L547.46,147.938L546.989,150.276L541.755,149.809L539.243,146.327L541.546,144.819L539.347,142.06L539.086,138.987L537.202,138.935L534.951,136.588L534.323,133.509L529.089,129.225L528.461,124.568L526.996,122.997L523.489,124.935L519.669,125.249L516.685,122.158L515.063,123.678L511.609,123.992L511.975,125.929L509.62,127.865L505.381,127.813L499.99,125.824L494.599,126.505L492.296,124.201L486.906,122.211L486.906,124.882L482.614,125.249L479.16,124.411L480.364,121.005L480.835,115.233L483.137,114.077L482.405,111.765L485.545,108.713L483.661,106.765L483.347,100.597L485.336,98.696L484.969,95.579L478.741,93.2L479.945,90.5L479.578,88.17L474.868,84.989L476.072,82.707L474.92,80.742L477.694,78.829L478.898,75.692L479.317,67.914L481.306,67.54L480.887,63.216L481.724,59.688L483.294,59.314L484.498,54.174L481.306,48.274L482.928,45.911L480.207,40.318L482.248,37.571L482.3,33.959L487.22,30.073L491.668,30.505L493.029,27.317L489.47,24.937L491.773,22.718L493.709,23.963L496.379,23.205L496.379,20.443L494.076,20.009L490.308,15.454L488.79,11.87L491.459,7.301L493.029,1.636L497.321,1.255L498.996,3.653L502.816,2.89L505.381,0.927L509.829,1.255L510.3,4.361L513.598,4.525L514.069,7.41L521.5,15.834L519.616,20.226L520.611,23.855L523.28,27.803L527.781,31.045L534.114,36.924L533.172,39.51L534.689,42.47L533.486,43.653L529.508,43.868L527.572,45.212L522.024,45.911L520.558,47.468L527.205,52.459L529.979,56.477L526.106,65.032L530.973,67.861L527.99,74.361L531.863,76.117L533.957,73.829L538.196,75.213L543.953,75.16L545.314,79.095L550.757,79.892L551.28,78.351L557.247,75.851L563.37,76.915L563.579,81.539L566.353,87.64L569.912,87.11L571.221,85.784L575.826,87.958L575.879,89.335L572.948,91.93L572.477,94.892L575.041,95.949L574.623,99.066L575.931,100.597L575.983,103.709L578.6,106.555L577.815,108.766L579.019,111.975L575.512,115.128L575.355,118.435L577.396,122.525L580.223,125.877L582.421,126.453L582.63,130.584Z" fill="rgb(173, 208, 231)" stroke="white" stroke-opacity="0.3" stroke-width="0.5"/><path aria-label="value: 1512" role="graphics-symbol" aria-roledescription="geoshape" transform="translate(0,0)" d="M194.237,145.235L195.336,150.172L193.033,150.328L193.504,156.864L190.94,158.211L191.201,162.404L192.981,165.351L191.934,166.539L195.022,172.835L193.661,175.206L195.336,176.596L195.545,180.044L193.086,182.461L193.661,185.081L190.835,188.725L193.295,190.417L193.871,193.44L194.08,200.96L195.022,203.564L192.929,205.963L193.609,210.041L192.51,215.385L193.609,220.162L192.981,221.736L193.243,229.543L195.336,232.022L193.609,233.995L195.231,235.41L194.917,240.964L198.633,244.846L198.895,247.817L203.187,249.78L199.942,251.44L196.801,249.78L192.353,250.384L191.097,248.623L191.254,246.005L183.613,244.594L181.571,246.559L176.233,241.317L172.936,241.872L169.534,240.964L169.848,236.471L166.184,233.034L161.84,230.707L161.265,228.175L157.601,228.783L155.089,233.742L153.728,231.264L152.734,224.678L148.337,224.983L147.5,220.568L144.883,220.416L139.492,217.876L141.481,215.843L142.371,213.147L139.335,212.638L136.771,209.124L138.707,206.371L136.247,203.564L135.619,201.011L136.876,198.66L135.515,196.102L133.578,195.539L131.485,188.93L131.38,184.002L133.683,184.208L137.975,181.947L140.958,181.69L143.365,174.278L145.668,175.257L146.558,172.113L146.244,168.347L150.326,167.262L154.565,168.089L157.863,165.919L159.537,163.128L160.27,158.107L157.496,156.398L157.653,154.065L160.323,153.494L163.41,149.393L167.754,145.599L170.11,146.587L171.523,144.975L178.431,144.819L180.839,141.175L182.67,139.925L185.915,142.008L187.276,139.56L191.254,141.592Z" fill="rgb(177, 210, 232)" stroke="white" stroke-opacity="0.3" stroke-width="0.5"/><path aria-label="value: 1859" role="graphics-symbol" aria-roledescription="geoshape" transform="translate(0,0)" d="M56.381,219.654L57.323,221.838L55.858,223.816L56.381,226.047L59.05,228.023L59.731,230.555L65.802,229.492L68.052,233.338L68.262,235.208L72.71,235.764L75.589,235.41L76.165,237.229L80.299,238.188L83.23,237.835L85.899,238.996L88.987,243.435L92.232,243.032L92.912,245.954L95.372,248.623L97.937,248.321L97.727,253.149L100.03,254.304L101.862,251.188L107.933,249.378L107.933,256.363L109.713,259.123L113.115,260.227L114.999,257.468L116.726,259.825L121.907,264.085L121.802,266.638L124.158,267.889L122.692,271.288L123.687,273.736L126.879,276.68L127.56,279.522L125.571,281.117L125.937,285.298L123.111,285.995L119.657,284.552L117.249,288.232L111.335,289.077L107.357,288.58L105.944,286.691L100.083,285.05L96,286.89L94.587,284.154L90.714,283.358L88.254,284.403L85.795,282.462L83.596,282.76L80.77,284.9L78.049,284.502L71.716,279.772L71.454,277.229L66.482,276.331L65.121,277.578L63.761,282.561L57.48,282.013L56.695,285.547L54.235,283.855L55.648,280.619L53.398,275.732L50.048,275.483L47.275,277.279L43.977,276.132L43.716,273.287L40.785,268.439L37.488,267.439L34.609,268.339L33.248,264.536L28.276,256.564L25.398,257.618L26.34,247.817L27.125,245.551L29.061,244.443L31.678,240.561L33.824,239.652L35.08,228.53L38.953,220.67L41.622,220.264L42.407,215.131L44.134,214.571L47.118,217.825L52.247,217.47Z" fill="rgb(168, 206, 229)" stroke="white" stroke-opacity="0.3" stroke-width="0.5"/><path aria-label="value: 3362" role="graphics-symbol" aria-roledescription="geoshape" transform="translate(0,0)" d="M330.68,178.604L332.616,180.044L330.784,181.947L332.773,185.286L333.296,190.929L334.762,191.647L330.837,196.256L332.459,199.58L335.024,200.244L336.646,204.279L340.362,205.299L340.467,208.665L336.908,213.961L337.012,216.961L338.949,220.213L337.222,223.968L340.571,225.743L340.257,228.327L341.827,230.504L341.88,233.085L345.962,234.5L345.7,237.431L349.416,240.308L351.353,243.233L352.609,249.83L350.097,252.395L346.485,255.008L342.926,258.722L342.298,261.981L342.089,268.539L337.797,270.439L337.85,273.636L334.553,273.736L333.506,275.184L330.261,275.233L326.964,274.235L325.865,275.683L321.154,275.782L316.444,272.887L313.094,270.139L311.472,274.085L308.122,272.837L307.599,277.03L303.464,278.127L303.412,275.633L295.143,274.135L291.898,272.487L290.066,275.283L286.612,277.678L285.617,272.238L283.786,272.238L282.32,267.689L276.982,270.189L275.778,267.289L272.428,268.639L271.957,264.386L270.021,262.833L264.944,262.733L262.223,260.277L263.269,258.872L258.14,254.606L254.791,255.56L249.976,253.651L248.615,254.254L245.998,251.389L245.475,246.206L242.021,243.788L243.329,240.359L243.852,229.188L242.544,225.185L243.905,222.852L242.649,221.025L244.323,216.809L246.993,216.656L247.516,212.485L250.185,213.096L251.546,210.346L253.849,210.244L257.722,211.467L259.815,208.359L262.537,209.684L262.589,202.543L257.669,188.827L259.501,187.186L258.507,183.489L260.653,179.89L258.664,178.913L260.705,173.815L263.688,171.701L268.242,170.669L270.597,171.649L274.784,170.256L282.425,169.792L283.995,171.237L286.193,168.037L288.862,169.069L291.165,168.553L293.887,170.721L294.567,168.398L299.539,169.637L300.219,166.591L304.302,165.247L304.982,163.283L308.541,167.314L309.483,172.216L310.687,173.299L308.855,176.03L308.96,178.295L310.635,182.769L316.653,182.512L321.887,183.026L321.782,180.044L324.818,180.661L328.429,178.295Z" fill="rgb(127, 184, 218)" stroke="white" stroke-opacity="0.3" stroke-width="0.5"/><path aria-label="value: 1791" role="graphics-symbol" aria-roledescription="geoshape" transform="translate(0,0)" d="M169.534,29.1L170.371,30.559L173.983,31.099L170.999,34.66L170.79,37.355L173.302,39.887L169.9,47.254L166.498,49.133L169.063,51.762L167.493,57.066L170.319,58.458L171.47,63.59L173.93,65.406L179.059,66.26L178.798,68.287L182.147,72.018L183.56,75.107L185.497,75.745L188.061,79.148L186.386,82.866L182.513,83.132L183.508,85.837L187.014,85.996L189.474,88.594L189.684,90.924L187.852,93.041L184.45,93.676L184.869,99.964L186.229,103.024L181.519,102.18L180.211,105.027L179.897,111.712L178.117,113.762L173.825,112.921L172.779,109.45L167.859,110.608L163.41,112.921L161.055,112.658L159.276,114.76L156.293,116.178L157.025,120.428L154.827,121.791L151.268,120.481L148.233,121.11L149.96,123.73L149.855,127.237L152.106,131.734L148.285,136.693L145.563,136.119L141.743,131.42L140.748,133.405L136.457,133.039L134.677,134.345L131.59,133.823L131.747,131.525L126.565,128.493L126.565,123.835L124.995,123.573L123.163,119.904L120.965,120.9L119.552,117.543L116.045,116.756L114.999,118.435L111.911,117.648L108.195,113.762L105.787,114.865L102.856,109.608L103.066,106.66L101.025,106.239L101.862,101.863L106.52,102.127L108.404,100.755L103.275,97.165L101.077,94.363L99.245,90.13L98.46,86.262L96.785,86.102L96.733,81.592L91.656,77.447L90.662,73.829L87.888,72.817L87.208,70.953L89.668,63.59L88.254,57.869L89.249,52.405L88.725,48.65L95.372,47.791L95.634,49.133L99.821,49.133L100.135,52.298L103.223,52.78L107.043,50.313L108.718,47.039L113.743,43.653L116.778,39.187L115.993,36.008L118.139,30.937L122.431,30.775L127.141,29.586L135.776,31.369L141.324,29.803L143.365,30.829L147.134,27.425L155.351,26.019L158.909,28.398L164.038,29.478L167.126,28.127Z" fill="rgb(170, 207, 230)" stroke="white" stroke-opacity="0.3" stroke-width="0.5"/><path aria-label="value: 2205" role="graphics-symbol" aria-roledescription="geoshape" transform="translate(0,0)" d="M573.209,387.633L570.488,387.151L570.383,381.747L568.656,381.457L567.819,385.656L564.94,388.26L563.841,390.669L562.48,390.476L562.271,385.222L561.381,380.153L557.194,378.365L555.048,379.09L553.06,375.028L549.448,376.044L547.721,374.157L549.239,371.978L548.977,367.907L545.785,367.859L544.058,366.307L544.843,364.123L549.134,362.763L549.291,358.729L551.437,358.437L550.809,355.128L549.03,355.08L548.14,350.646L545.261,350.549L541.807,347.867L540.499,344.889L539.923,341.224L538.196,338.583L537.045,332.362L538.824,332.019L536.835,328.291L529.613,330.253L527.99,325.393L527.1,320.624L522.914,317.178L529.089,315.207L540.656,312.297L544.215,312.396L548.768,314.763L553.06,314.862L555.624,314.221L554.682,311.261L555.153,307.953L553.845,304.988L555.729,302.07L555.886,299.148L553.374,299.446L553.897,295.382L550.809,291.263L553.531,286.542L552.955,282.063L556.305,279.572L559.549,279.672L561.8,277.877L568.708,276.581L572.267,276.68L574.413,277.877L581.897,280.27L588.544,276.381L589.905,278.675L592.783,278.725L593.045,280.967L598.907,278.924L600.215,281.515L602.047,281.217L603.774,289.027L604.821,289.027L605.606,294.538L608.537,293.546L609.165,295.382L613.771,295.828L615.655,294.439L619.161,295.58L624.29,293.546L624.029,297.513L627.588,298.356L629.995,305.334L633.816,307.311L637.113,311.755L638.997,310.373L641.823,311.607L644.44,314.96L647.58,316.931L651.558,316.833L649.046,321.362L645.749,322.641L645.958,324.41L642.922,326.425L638.317,325.491L639.677,332.019L636.014,333.294L641.143,337.065L641.3,339.61L646.063,342.788L646.9,345.768L643.236,347.574L642.399,349.33L643.655,351.573L639.991,353.375L637.375,355.615L635.019,360.625L633.554,361.257L629.419,358.048L626.96,357.951L616.754,361.597L610.316,367.859L606.653,365.385L604.193,366.452L597.284,366.549L588.806,371.639L586.189,375.899L584.357,377.64L577.658,381.361Z" fill="rgb(159, 201, 227)" stroke="white" stroke-opacity="0.3" stroke-width="0.5"/><path aria-label="value: 2717" role="graphics-symbol" aria-roledescription="geoshape" transform="translate(0,0)" d="M324.451,65.299L326.126,68.981L324.347,72.285L322.096,72.338L321.416,75.213L322.306,78.776L326.65,81.858L330.994,86.527L329.581,88.911L329.057,94.839L331.465,99.119L330.575,105.027L334.448,107.66L334.186,110.765L330.052,112.816L330.994,117.071L329.633,122.473L331.203,123.206L330.941,127.08L334.029,128.963L336.751,132.36L337.222,135.023L339.106,135.336L338.059,138.83L338.897,141.487L337.483,144.194L337.64,149.912L339.211,151.782L338.582,156.398L340.519,158.988L338.373,161.317L335.861,165.971L329.319,170.669L329.109,175.257L330.941,175.154L330.68,178.604L328.429,178.295L324.818,180.661L321.782,180.044L321.887,183.026L316.653,182.512L310.635,182.769L308.96,178.295L308.855,176.03L310.687,173.299L309.483,172.216L308.541,167.314L304.982,163.283L304.302,165.247L300.219,166.591L299.539,169.637L294.567,168.398L293.887,170.721L291.165,168.553L288.862,169.069L286.193,168.037L283.995,171.237L282.425,169.792L274.784,170.256L270.597,171.649L268.242,170.669L263.688,171.701L260.705,173.815L256.675,170.979L253.535,170.05L252.017,163.645L249.295,163.076L250.238,159.143L249.295,156.139L252.017,156.346L254.896,152.352L252.488,151.314L252.331,148.666L254.948,146.951L251.232,142.945L251.075,139.873L247.673,142.008L243.643,138.778L243.434,136.067L240.241,134.762L240.189,133.196L236.944,131.054L239.247,124.725L235.164,121.844L234.693,119.957L235.793,119.065L235.374,112.869L238.305,109.555L236.525,100.227L237.101,96.636L235.164,90.871L238.095,88.329L240.084,88.17L241.759,84.511L241.602,81.751L243.329,78.085L245.894,75.905L244.742,70.42L248.458,67.38L246.731,65.566L248.563,62.575L251.86,63.857L250.342,59.207L254.686,56.798L258.036,58.886L260.496,52.566L261.071,49.025L263.898,49.294L264.84,52.62L266.567,53.799L271.382,53.692L275.098,48.328L279.337,45.212L280.279,49.508L283.262,53.906L285.356,54.067L288.234,51.869L292.892,54.12L296.189,54.227L295.771,57.28L297.55,61.987L300.481,59.421L302.156,55.567L305.505,53.424L311.053,53.048L313.722,49.669L316.078,48.328L318.433,53.263L320.422,55.031L319.427,58.565L322.567,61.773Z" fill="rgb(146, 194, 223)" stroke="white" stroke-opacity="0.3" stroke-width="0.5"/></g><g class="mark-text role-mark layer_1_marks" role="graphics-object" aria-roledescription="text mark container"><text aria-label="lon: 24.0297; lat: 49.8397; short_region: " role="graphics-symbol" aria-roledescription="text mark" text-anchor="middle" transform="translate(103.31546704788013,170.041836595527)" font-family="sans-serif" font-size="11px" fill="#111"></text><text aria-label="lon: 24.7105; lat: 48.7226; short_region: " role="graphics-symbol" aria-roledescription="text mark" text-anchor="middle" transform="translate(131.54752127897063,241.0586596400376)" font-family="sans-serif" font-size="11px" fill="#111"></text><text aria-label="lon: 25.5948; lat: 49.3535; short_region: " role="graphics-symbol" aria-roledescription="text mark" text-anchor="middle" transform="translate(168.21850476391978,201.14876650089855)" font-family="sans-serif" font-size="11px" fill="#111"></text><text aria-label="lon: 30.5234; lat: 50.4501; short_region: ." role="graphics-symbol" aria-roledescription="text mark" text-anchor="middle" transform="translate(372.60232157260475,130.54246309675545)" font-family="sans-serif" font-size="11px" fill="#111">.</text><text aria-label="lon: 25; lat: 51.3424; short_region: " role="graphics-symbol" aria-roledescription="text mark" text-anchor="middle" transform="translate(143.55277935755566,71.87323741339651)" font-family="sans-serif" font-size="11px" fill="#111"></text><text aria-label="lon: 26.8; lat: 51; short_region: " role="graphics-symbol" aria-roledescription="text mark" text-anchor="middle" transform="translate(218.19687103787737,94.51941594788468)" font-family="sans-serif" font-size="11px" fill="#111"></text><text aria-label="lon: 23; lat: 48.4; short_region: " role="graphics-symbol" aria-roledescription="text mark" text-anchor="middle" transform="translate(60.61489971275387,261.27257872364817)" font-family="sans-serif" font-size="11px" fill="#111"></text><text aria-label="lon: 25.9403; lat: 48.2915; short_region: " role="graphics-symbol" aria-roledescription="text mark" text-anchor="middle" transform="translate(182.54602347255923,268.04229349423986)" font-family="sans-serif" font-size="11px" fill="#111"></text><text aria-label="lon: 30.57; lat: 49.92; short_region: ." role="graphics-symbol" aria-roledescription="text mark" text-anchor="middle" transform="translate(374.5347741683288,164.8742463630183)" font-family="sans-serif" font-size="11px" fill="#111">.</text><text aria-label="lon: 36.5304; lat: 49.5935; short_region: " role="graphics-symbol" aria-roledescription="text mark" text-anchor="middle" transform="translate(621.7062430857673,185.83239575694643)" font-family="sans-serif" font-size="11px" fill="#111"></text><text aria-label="lon: 31.4; lat: 49.2; short_region: " role="graphics-symbol" aria-roledescription="text mark" text-anchor="middle" transform="translate(408.95399422092146,210.90571137107236)" font-family="sans-serif" font-size="11px" fill="#111"></text><text aria-label="lon: 35.0462; lat: 48.4647; short_region: " role="graphics-symbol" aria-roledescription="text mark" text-anchor="middle" transform="translate(560.1580426013597,257.2288331574737)" font-family="sans-serif" font-size="11px" fill="#111"></text><text aria-label="lon: 34.4981; lat: 50.8077; short_region: " role="graphics-symbol" aria-roledescription="text mark" text-anchor="middle" transform="translate(537.428916684702,107.16482195029403)" font-family="sans-serif" font-size="11px" fill="#111"></text><text aria-label="lon: 34.0514; lat: 49.5883; short_region: " role="graphics-symbol" aria-roledescription="text mark" text-anchor="middle" transform="translate(518.9047412660354,186.16504756266113)" font-family="sans-serif" font-size="11px" fill="#111"></text><text aria-label="lon: 35.5396; lat: 47.1388; short_region: " role="graphics-symbol" aria-roledescription="text mark" text-anchor="middle" transform="translate(580.6188175097323,339.0928295489689)" font-family="sans-serif" font-size="11px" fill="#111"></text><text aria-label="lon: 33.5169; lat: 46.6354; short_region: " role="graphics-symbol" aria-roledescription="text mark" text-anchor="middle" transform="translate(496.7395929309621,369.6379266439185)" font-family="sans-serif" font-size="11px" fill="#111"></text><text aria-label="lon: 28.6682; lat: 49.0331; short_region: " role="graphics-symbol" aria-roledescription="text mark" text-anchor="middle" transform="translate(295.66914441408653,221.48010032175353)" font-family="sans-serif" font-size="11px" fill="#111"></text><text aria-label="lon: 28.6767; lat: 50.2649; short_region: " role="graphics-symbol" aria-roledescription="text mark" text-anchor="middle" transform="translate(296.0216304025771,142.58026351505896)" font-family="sans-serif" font-size="11px" fill="#111"></text><text aria-label="lon: 26.9871; lat: 49.4228; short_region: " role="graphics-symbol" aria-roledescription="text mark" text-anchor="middle" transform="translate(225.95570967864865,196.73386363856207)" font-family="sans-serif" font-size="11px" fill="#111"></text><text aria-label="lon: 30.3233; lat: 46.9825; short_region: " role="graphics-symbol" aria-roledescription="text mark" text-anchor="middle" transform="translate(364.3043867141423,348.6074734250624)" font-family="sans-serif" font-size="11px" fill="#111"></text><text aria-label="lon: 32.2623; lat: 48.5079; short_region: " role="graphics-symbol" aria-roledescription="text mark" text-anchor="middle" transform="translate(444.7126610297778,254.525965398253)" font-family="sans-serif" font-size="11px" fill="#111"></text><text aria-label="lon: 33.58; lat: 44.58; short_region: " role="graphics-symbol" aria-roledescription="text mark" text-anchor="middle" transform="translate(499.3562830337553,491.49806622191954)" font-family="sans-serif" font-size="11px" fill="#111"></text><text aria-label="lon: 31.8893; lat: 51.2982; short_region: " role="graphics-symbol" aria-roledescription="text mark" text-anchor="middle" transform="translate(429.2447464760223,74.8060801716415)" font-family="sans-serif" font-size="11px" fill="#111"></text><text aria-label="lon: 37.8028; lat: 48.0159; short_region: " role="graphics-symbol" aria-roledescription="text mark" text-anchor="middle" transform="translate(674.4713221157899,285.1735849018037)" font-family="sans-serif" font-size="11px" fill="#111"></text><text aria-label="lon: 31.9946; lat: 47.275; short_region: " role="graphics-symbol" aria-roledescription="text mark" text-anchor="middle" transform="translate(433.6114258393209,330.77892712571975)" font-family="sans-serif" font-size="11px" fill="#111"></text><text aria-label="lon: 39.0078; lat: 48.974; short_region: " role="graphics-symbol" aria-roledescription="text mark" text-anchor="middle" transform="translate(724.4413946017835,225.21602854261118)" font-family="sans-serif" font-size="11px" fill="#111"></text><text aria-label="lon: 34.4708; lat: 45.3657; short_region: " role="graphics-symbol" aria-roledescription="text mark" text-anchor="middle" transform="translate(536.29681462755,445.44069107250425)" font-family="sans-serif" font-size="11px" fill="#111"></text></g><g class="mark-group role-legend" role="graphics-symbol" aria-roledescription="legend" aria-label="Gradient legend for fill color with values from 0 to 9,392"><g transform="translate(0,-86)"><path class="background" aria-hidden="true" d="M0,0h340v68h-340Z" pointer-events="none"/><g><g class="mark-group role-legend-entry"><g transform="translate(20,20)"><path class="background" aria-hidden="true" d="M0,0h0v0h0Z" pointer-events="none"/><g><g class="mark-rect role-legend-gradient" pointer-events="none"><path d="M0,0h300v16h-300Z" fill="url(#gradient_0)" stroke="#ddd" stroke-width="0" opacity="1"/></g><g class="mark-text role-legend-label" pointer-events="none"><text text-anchor="start" transform="translate(0,26)" font-family="sans-serif" font-size="10px" fill="#000" opacity="1">0</text><text text-anchor="middle" transform="translate(63.88415672913118,26)" font-family="sans-serif" font-size="10px" fill="#000" opacity="1">2,000</text><text text-anchor="middle" transform="translate(127.76831345826236,26)" font-family="sans-serif" font-size="10px" fill="#000" opacity="1">4,000</text><text text-anchor="middle" transform="translate(191.65247018739353,26)" font-family="sans-serif" font-size="10px" fill="#000" opacity="1">6,000</text><text text-anchor="middle" transform="translate(255.5366269165247,26)" font-family="sans-serif" font-size="10px" fill="#000" opacity="1">8,000</text></g></g><path class="foreground" aria-hidden="true" d="" pointer-events="none" display="none"/></g></g></g><path class="foreground" aria-hidden="true" d="" pointer-events="none" display="none"/></g></g><g class="mark-group role-title"><g transform="translate(400,-103)"><path class="background" aria-hidden="true" d="M0,0h0v0h0Z" pointer-events="none"/><g><g class="mark-text role-title-text" role="graphics-symbol" aria-roledescription="title" aria-label="Title text '     2024 .'" pointer-events="none"><text text-anchor="middle" transform="translate(0,10)" font-family="sans-serif" font-size="13px" font-weight="bold" fill="#000" opacity="1">     2024 .</text></g></g><path class="foreground" aria-hidden="true" d="" pointer-events="none" display="none"/></g></g></g><path class="foreground" aria-hidden="true" d="" display="none"/></g></g></g><defs><linearGradient id="gradient_0" x1="0" x2="1" y1="0" y2="0"><stop offset="0" stop-color="rgb(207, 225, 242)"/><stop offset="0.05323679727427598" stop-color="rgb(198, 220, 239)"/><stop offset="0.10647359454855196" stop-color="rgb(189, 215, 236)"/><stop offset="0.15971039182282795" stop-color="rgb(177, 210, 232)"/><stop offset="0.21294718909710392" stop-color="rgb(165, 204, 228)"/><stop offset="0.2661839863713799" stop-color="rgb(151, 197, 224)"/><stop offset="0.3194207836456559" stop-color="rgb(138, 190, 221)"/><stop offset="0.37265758091993184" stop-color="rgb(123, 182, 217)"/><stop offset="0.42589437819420783" stop-color="rgb(110, 174, 213)"/><stop offset="0.4791311754684838" stop-color="rgb(96, 166, 209)"/><stop offset="0.5323679727427598" stop-color="rgb(84, 157, 204)"/><stop offset="0.5856047700170358" stop-color="rgb(72, 148, 199)"/><stop offset="0.6388415672913118" stop-color="rgb(61, 139, 195)"/><stop offset="0.6920783645655877" stop-color="rgb(51, 130, 190)"/><stop offset="0.7453151618398637" stop-color="rgb(41, 121, 184)"/><stop offset="0.7985519591141397" stop-color="rgb(32, 111, 178)"/><stop offset="0.8517887563884157" stop-color="rgb(25, 101, 171)"/><stop offset="0.9050255536626917" stop-color="rgb(18, 91, 163)"/><stop offset="0.9582623509369677" stop-color="rgb(13, 82, 152)"/><stop offset="1" stop-color="rgb(10, 74, 144)"/></linearGradient></defs></svg>