<svg xmlns="http://www.w3.org/2000/svg" xmlns:xlink="http://www.w3.org/1999/xlink" version="1.1" class="marks" width="947" height="497" viewBox="0 0 947 497"><rect width="947" height="497" fill="white"/><g fill="none" stroke-miterlimit="10" transform="translate(39,27)"><g class="mark-group role-frame root" role="graphics-object" aria-roledescription="group mark container"><g transform="translate(0,0)"><path class="background" aria-hidden="true" d="M0,0h800v400h-800Z"/><g><g class="mark-group role-axis" aria-hidden="true"><g transform="translate(0.5,400.5)"><path class="background" aria-hidden="true" d="M0,0h0v0h0Z" pointer-events="none"/><g><g class="mark-rule role-axis-grid" pointer-events="none"><line transform="translate(40,-400)" x2="0" y2="400" stroke="#ddd" stroke-width="1" opacity="1"/><line transform="translate(120,-400)" x2="0" y2="400" stroke="#ddd" stroke-width="1" opacity="1"/><line transform="translate(200,-400)" x2="0" y2="400" stroke="#ddd" stroke-width="1" opacity="1"/><line transform="translate(280,-400)" x2="0" y2="400" stroke="#ddd" stroke-width="1" opacity="1"/><line transform="translate(360,-400)" x2="0" y2="400" stroke="#ddd" stroke-width="1" opacity="1"/><line transform="translate(440,-400)" x2="0" y2="400" stroke="#ddd" stroke-width="1" opacity="1"/><line transform="translate(520,-400)" x2="0" y2="400" stroke="#ddd" stroke-width="1" opacity="1"/><line transform="translate(600,-400)" x2="0" y2="400" stroke="#ddd" stroke-width="1" opacity="1"/><line transform="translate(680,-400)" x2="0" y2="400" stroke="#ddd" stroke-width="1" opacity="1"/><line transform="translate(760,-400)" x2="0" y2="400" stroke="#ddd" stroke-width="1" opacity="1"/></g></g><path class="foreground" aria-hidden="true" d="" pointer-events="none" display="none"/></g></g><g class="mark-group role-axis" aria-hidden="true"><g transform="translate(0.5,0.5)"><path class="background" aria-hidden="true" d="M0,0h0v0h0Z" pointer-events="none"/><g><g class="mark-rule role-axis-grid" pointer-events="none"><line transform="translate(0,400)" x2="800" y2="0" stroke="#ddd" stroke-width="1" stroke-dasharray="1,0" opacity="1"/><line transform="translate(0,371)" x2="800" y2="0" stroke="#ddd" stroke-width="1" stroke-dasharray="1,0" opacity="1"/><line transform="translate(0,343)" x2="800" y2="0" stroke="#ddd" stroke-width="1" stroke-dasharray="1,0" opacity="1"/><line transform="translate(0,314)" x2="800" y2="0" stroke="#ddd" stroke-width="1" stroke-dasharray="1,0" opacity="1"/><line transform="translate(0,286)" x2="800" y2="0" stroke="#ddd" stroke-width="1" stroke-dasharray="1,0" opacity="1"/><line transform="translate(0,257)" x2="800" y2="0" stroke="#ddd" stroke-width="1" stroke-dasharray="1,0" opacity="1"/><line transform="translate(0,229)" x2="800" y2="0" stroke="#ddd" stroke-width="1" stroke-dasharray="1,0" opacity="1"/><line transform="translate(0,200)" x2="800" y2="0" stroke="#ddd" stroke-width="1" stroke-dasharray="1,0" opacity="1"/><line transform="translate(0,171)" x2="800" y2="0" stroke="#ddd" stroke-width="1" stroke-dasharray="1,0" opacity="1"/><line transform="translate(0,143)" x2="800" y2="0" stroke="#ddd" stroke-width="1" stroke-dasharray="1,0" opacity="1"/><line transform="translate(0,114)" x2="800" y2="0" stroke="#ddd" stroke-width="1" stroke-dasharray="1,0" opacity="1"/><line transform="translate(0,86)" x2="800" y2="0" stroke="#ddd" stroke-width="1" stroke-dasharray="1,0" opacity="1"/><line transform="translate(0,57)" x2="800" y2="0" stroke="#ddd" stroke-width="1" stroke-dasharray="1,0" opacity="1"/><line transform="translate(0,29)" x2="800" y2="0" stroke="#ddd" stroke-width="1" stroke-dasharray="1,0" opacity="1"/><line transform="translate(0,0)" x2="800" y2="0" stroke="#ddd" stroke-width="1" stroke-dasharray="1,0" opacity="1"/></g></g><path class="foreground" aria-hidden="true" d="" pointer-events="none" display="none"/></g></g><g class="mark-group role-axis" role="graphics-symbol" aria-roledescription="axis" aria-label="X-axis titled 'Місто' for a discrete scale with 10 values: Гельсінкі, Копенгаген, Нью-Йорк, Осло, Париж, ending with Цюрих"><g transform="translate(0.5,400.5)"><path class="background" aria-hidden="true" d="M0,0h0v0h0Z" pointer-events="none"/><g><g class="mark-rule role-axis-tick" pointer-events="none"><line transform="translate(40,0)" x2="0" y2="5" stroke="#888" stroke-width="1" opacity="1"/><line transform="translate(120,0)" x2="0" y2="5" stroke="#888" stroke-width="1" opacity="1"/><line transform="translate(200,0)" x2="0" y2="5" stroke="#888" stroke-width="1" opacity="1"/><line transform="translate(280,0)" x2="0" y2="5" stroke="#888" stroke-width="1" opacity="1"/><line transform="translate(360,0)" x2="0" y2="5" stroke="#888" stroke-width="1" opacity="1"/><line transform="translate(440,0)" x2="0" y2="5" stroke="#888" stroke-width="1" opacity="1"/><line transform="translate(520,0)" x2="0" y2="5" stroke="#888" stroke-width="1" opacity="1"/><line transform="translate(600,0)" x2="0" y2="5" stroke="#888" stroke-width="1" opacity="1"/><line transform="translate(680,0)" x2="0" y2="5" stroke="#888" stroke-width="1" opacity="1"/><line transform="translate(760,0)" x2="0" y2="5" stroke="#888" stroke-width="1" opacity="1"/></g><g class="mark-text role-axis-label" pointer-events="none"><text text-anchor="start" transform="translate(39.5,7) rotate(40) translate(0,8)" font-family="sans-serif" font-size="10px" fill="#000" opacity="1">Гельсінкі</text><text text-anchor="start" transform="translate(119.5,7) rotate(40) translate(0,8)" font-family="sans-serif" font-size="10px" fill="#000" opacity="1">Копенгаген</text><text text-anchor="start" transform="translate(199.5,7) rotate(40) translate(0,8)" font-family="sans-serif" font-size="10px" fill="#000" opacity="1">Нью-Йорк</text><text text-anchor="start" transform="translate(279.5,7) rotate(40) translate(0,8)" font-family="sans-serif" font-size="10px" fill="#000" opacity="1">Осло</text><text text-anchor="start" transform="translate(359.5,7) rotate(40) translate(0,8)" font-family="sans-serif" font-size="10px" fill="#000" opacity="1">Париж</text><text text-anchor="start" transform="translate(439.5,7) rotate(40) translate(0,8)" font-family="sans-serif" font-size="10px" fill="#000" opacity="1">Сеул</text><text text-anchor="start" transform="translate(519.5,7) rotate(40) translate(0,8)" font-family="sans-serif" font-size="10px" fill="#000" opacity="1">Стокгольм</text><text text-anchor="start" transform="translate(599.5,7) rotate(40) translate(0,8)" font-family="sans-serif" font-size="10px" fill="#000" opacity="1">Сінгапур</text><text text-anchor="start" transform="translate(679.5,7) rotate(40) translate(0,8)" font-family="sans-serif" font-size="10px" fill="#000" opacity="1">Торонто</text><text text-anchor="start" transform="translate(759.5,7) rotate(40) translate(0,8)" font-family="sans-serif" font-size="10px" fill="#000" opacity="1">Цюрих</text></g><g class="mark-rule role-axis-domain" pointer-events="none"><line transform="translate(0,0)" x2="800" y2="0" stroke="#888" stroke-width="1" opacity="1"/></g><g class="mark-text role-axis-title" pointer-events="none"><text text-anchor="middle" transform="translate(400,62.15064483570825)" font-family="sans-serif" font-size="11px" font-weight="bold" fill="#000" opacity="1">Місто</text></g></g><path class="foreground" aria-hidden="true" d="" pointer-events="none" display="none"/></g></g><g class="mark-group role-axis" role="graphics-symbol" aria-roledescription="axis" aria-label="Y-axis titled 'Ціна ($)' for a linear scale with values from 0 to 70"><g transform="translate(0.5,0.5)"><path class="background" aria-hidden="true" d="M0,0h0v0h0Z" pointer-events="none"/><g><g class="mark-rule role-axis-tick" pointer-events="none"><line transform="translate(0,400)" x2="-5" y2="0" stroke="#888" stroke-width="1" opacity="1"/><line transform="translate(0,371)" x2="-5" y2="0" stroke="#888" stroke-width="1" opacity="1"/><line transform="translate(0,343)" x2="-5" y2="0" stroke="#888" stroke-width="1" opacity="1"/><line transform="translate(0,314)" x2="-5" y2="0" stroke="#888" stroke-width="1" opacity="1"/><line transform="translate(0,286)" x2="-5" y2="0" stroke="#888" stroke-width="1" opacity="1"/><line transform="translate(0,257)" x2="-5" y2="0" stroke="#888" stroke-width="1" opacity="1"/><line transform="translate(0,229)" x2="-5" y2="0" stroke="#888" stroke-width="1" opacity="1"/><line transform="translate(0,200)" x2="-5" y2="0" stroke="#888" stroke-width="1" opacity="1"/><line transform="translate(0,171)" x2="-5" y2="0" stroke="#888" stroke-width="1" opacity="1"/><line transform="translate(0,143)" x2="-5" y2="0" stroke="#888" stroke-width="1" opacity="1"/><line transform="translate(0,114)" x2="-5" y2="0" stroke="#888" stroke-width="1" opacity="1"/><line transform="translate(0,86)" x2="-5" y2="0" stroke="#888" stroke-width="1" opacity="1"/><line transform="translate(0,57)" x2="-5" y2="0" stroke="#888" stroke-width="1" opacity="1"/><line transform="translate(0,29)" x2="-5" y2="0" stroke="#888" stroke-width="1" opacity="1"/><line transform="translate(0,0)" x2="-5" y2="0" stroke="#888" stroke-width="1" opacity="1"/></g><g class="mark-text role-axis-label" pointer-events="none"><text text-anchor="end" transform="translate(-7,403)" font-family="sans-serif" font-size="10px" fill="#000" opacity="1">0</text><text text-anchor="end" transform="translate(-7,374.42857142857144)" font-family="sans-serif" font-size="10px" fill="#000" opacity="1">5</text><text text-anchor="end" transform="translate(-7,345.8571428571429)" font-family="sans-serif" font-size="10px" fill="#000" opacity="1">10</text><text text-anchor="end" transform="translate(-7,317.2857142857143)" font-family="sans-serif" font-size="10px" fill="#000" opacity="1">15</text><text text-anchor="end" transform="translate(-7,288.7142857142857)" font-family="sans-serif" font-size="10px" fill="#000" opacity="1">20</text><text text-anchor="end" transform="translate(-7,260.1428571428571)" font-family="sans-serif" font-size="10px" fill="#000" opacity="1">25</text><text text-anchor="end" transform="translate(-7,231.57142857142856)" font-family="sans-serif" font-size="10px" fill="#000" opacity="1">30</text><text text-anchor="end" transform="translate(-7,203)" font-family="sans-serif" font-size="10px" fill="#000" opacity="1">35</text><text text-anchor="end" transform="translate(-7,174.42857142857144)" font-family="sans-serif" font-size="10px" fill="#000" opacity="1">40</text><text text-anchor="end" transform="translate(-7,145.85714285714283)" font-family="sans-serif" font-size="10px" fill="#000" opacity="1">45</text><text text-anchor="end" transform="translate(-7,117.28571428571428)" font-family="sans-serif" font-size="10px" fill="#000" opacity="1">50</text><text text-anchor="end" transform="translate(-7,88.71428571428572)" font-family="sans-serif" font-size="10px" fill="#000" opacity="1">55</text><text text-anchor="end" transform="translate(-7,60.14285714285716)" font-family="sans-serif" font-size="10px" fill="#000" opacity="1">60</text><text text-anchor="end" transform="translate(-7,31.57142857142856)" font-family="sans-serif" font-size="10px" fill="#000" opacity="1">65</text><text text-anchor="end" transform="translate(-7,3)" font-family="sans-serif" font-size="10px" fill="#000" opacity="1">70</text></g><g class="mark-rule role-axis-domain" pointer-events="none"><line transform="translate(0,400)" x2="0" y2="-400" stroke="#888" stroke-width="1" opacity="1"/></g><g class="mark-text role-axis-title" pointer-events="none"><text text-anchor="middle" transform="translate(-22.123046875,200) rotate(-90) translate(0,-2)" font-family="sans-serif" font-size="11px" font-weight="bold" fill="#000" opacity="1">Ціна ($)</text></g></g><path class="foreground" aria-hidden="true" d="" pointer-events="none" display="none"/></g></g><g class="mark-rect role-mark marks" role="graphics-object" aria-roledescription="rect mark container"><path aria-label="CityUK: Гельсінкі; value: 38.2; category: Sandwich; order: 5" role="graphics-symbol" aria-roledescription="bar" d="M4,181.71428571428572h72v218.28571428571428h-72Z" fill="#fb9a99"/><path aria-label="CityUK: Гельсінкі; value: 6.4; category: Water; order: 4" role="graphics-symbol" aria-roledescription="bar" d="M4,145.14285714285714h72v36.571428571428584h-72Z" fill="#fdc086"/><path aria-label="CityUK: Гельсінкі; value: 12.1; category: Peanut; order: 3" role="graphics-symbol" aria-roledescription="bar" d="M4,75.99999999999997h72v69.14285714285717h-72Z" fill="#beaed4"/><path aria-label="CityUK: Гельсінкі; value: 6.4; category: Soda; order: 2" role="graphics-symbol" aria-roledescription="bar" d="M4,39.428571428571416h72v36.571428571428555h-72Z" fill="#7fc97f"/><path aria-label="CityUK: Гельсінкі; value: 5.5; category: Vodka; order: 1" role="graphics-symbol" aria-roledescription="bar" d="M4,8.000000000000052h72v31.428571428571367h-72Z" fill="#386cb0"/><path aria-label="CityUK: Осло; value: 29.4; category: Sandwich; order: 5" role="graphics-symbol" aria-roledescription="bar" d="M244,232.00000000000003h72v167.99999999999997h-72Z" fill="#fb9a99"/><path aria-label="CityUK: Осло; value: 7.4; category: Water; order: 4" role="graphics-symbol" aria-roledescription="bar" d="M244,189.71428571428572h72v42.285714285714306h-72Z" fill="#fdc086"/><path aria-label="CityUK: Осло; value: 15.8; category: Peanut; order: 3" role="graphics-symbol" aria-roledescription="bar" d="M244,99.42857142857147h72v90.28571428571425h-72Z" fill="#beaed4"/><path aria-label="CityUK: Осло; value: 7.1; category: Soda; order: 2" role="graphics-symbol" aria-roledescription="bar" d="M244,58.8571428571429h72v40.57142857142858h-72Z" fill="#7fc97f"/><path aria-label="CityUK: Осло; value: 5.1; category: Vodka; order: 1" role="graphics-symbol" aria-roledescription="bar" d="M244,29.714285714285715h72v29.14285714285718h-72Z" fill="#386cb0"/><path aria-label="CityUK: Сеул; value: 27.4; category: Sandwich; order: 5" role="graphics-symbol" aria-roledescription="bar" d="M404,243.42857142857142h72v156.57142857142858h-72Z" fill="#fb9a99"/><path aria-label="CityUK: Сеул; value: 7.4; category: Water; order: 4" role="graphics-symbol" aria-roledescription="bar" d="M404,201.14285714285717h72v42.28571428571425h-72Z" fill="#fdc086"/><path aria-label="CityUK: Сеул; value: 6.1; category: Peanut; order: 3" role="graphics-symbol" aria-roledescription="bar" d="M404,166.28571428571428h72v34.85714285714289h-72Z" fill="#beaed4"/><path aria-label="CityUK: Сеул; value: 7.9; category: Soda; order: 2" role="graphics-symbol" aria-roledescription="bar" d="M404,121.14285714285717h72v45.14285714285711h-72Z" fill="#7fc97f"/><path aria-label="CityUK: Сеул; value: 9.9; category: Vodka; order: 1" role="graphics-symbol" aria-roledescription="bar" d="M404,64.57142857142858h72v56.571428571428584h-72Z" fill="#386cb0"/><path aria-label="CityUK: Цюрих; value: 31.3; category: Sandwich; order: 5" role="graphics-symbol" aria-roledescription="bar" d="M724,221.14285714285714h72v178.85714285714286h-72Z" fill="#fb9a99"/><path aria-label="CityUK: Цюрих; value: 5.9; category: Water; order: 4" role="graphics-symbol" aria-roledescription="bar" d="M724,187.42857142857142h72v33.71428571428572h-72Z" fill="#fdc086"/><path aria-label="CityUK: Цюрих; value: 10.8; category: Peanut; order: 3" role="graphics-symbol" aria-roledescription="bar" d="M724,125.71428571428571h72v61.71428571428571h-72Z" fill="#beaed4"/><path aria-label="CityUK: Цюрих; value: 5.6; category: Soda; order: 2" role="graphics-symbol" aria-roledescription="bar" d="M724,93.71428571428572h72v31.999999999999986h-72Z" fill="#7fc97f"/><path aria-label="CityUK: Цюрих; value: 4.3; category: Vodka; order: 1" role="graphics-symbol" aria-roledescription="bar" d="M724,69.14285714285717h72v24.571428571428555h-72Z" fill="#386cb0"/><path aria-label="CityUK: Стокгольм; value: 28.4; category: Sandwich; order: 5" role="graphics-symbol" aria-roledescription="bar" d="M484,237.71428571428572h72v162.28571428571428h-72Z" fill="#fb9a99"/><path aria-label="CityUK: Стокгольм; value: 4.1; category: Water; order: 4" role="graphics-symbol" aria-roledescription="bar" d="M484,214.28571428571428h72v23.428571428571445h-72Z" fill="#fdc086"/><path aria-label="CityUK: Стокгольм; value: 11.3; category: Peanut; order: 3" role="graphics-symbol" aria-roledescription="bar" d="M484,149.71428571428572h72v64.57142857142856h-72Z" fill="#beaed4"/><path aria-label="CityUK: Стокгольм; value: 4.9; category: Soda; order: 2" role="graphics-symbol" aria-roledescription="bar" d="M484,121.71428571428575h72v27.99999999999997h-72Z" fill="#7fc97f"/><path aria-label="CityUK: Стокгольм; value: 5; category: Vodka; order: 1" role="graphics-symbol" aria-roledescription="bar" d="M484,93.14285714285715h72v28.571428571428598h-72Z" fill="#386cb0"/><path aria-label="CityUK: Париж; value: 23.6; category: Sandwich; order: 5" role="graphics-symbol" aria-roledescription="bar" d="M324,265.1428571428571h72v134.8571428571429h-72Z" fill="#fb9a99"/><path aria-label="CityUK: Париж; value: 6.8; category: Water; order: 4" role="graphics-symbol" aria-roledescription="bar" d="M324,226.28571428571425h72v38.85714285714286h-72Z" fill="#fdc086"/><path aria-label="CityUK: Париж; value: 12.6; category: Peanut; order: 3" role="graphics-symbol" aria-roledescription="bar" d="M324,154.28571428571428h72v71.99999999999997h-72Z" fill="#beaed4"/><path aria-label="CityUK: Париж; value: 6.8; category: Soda; order: 2" role="graphics-symbol" aria-roledescription="bar" d="M324,115.42857142857143h72v38.85714285714285h-72Z" fill="#7fc97f"/><path aria-label="CityUK: Париж; value: 7; category: Vodka; order: 1" role="graphics-symbol" aria-roledescription="bar" d="M324,75.42857142857144h72v39.999999999999986h-72Z" fill="#386cb0"/><path aria-label="CityUK: Нью-Йорк; value: 24.2; category: Sandwich; order: 5" role="graphics-symbol" aria-roledescription="bar" d="M164,261.7142857142857h72v138.28571428571428h-72Z" fill="#fb9a99"/><path aria-label="CityUK: Нью-Йорк; value: 3.9; category: Water; order: 4" role="graphics-symbol" aria-roledescription="bar" d="M164,239.42857142857142h72v22.285714285714306h-72Z" fill="#fdc086"/><path aria-label="CityUK: Нью-Йорк; value: 16.8; category: Peanut; order: 3" role="graphics-symbol" aria-roledescription="bar" d="M164,143.42857142857142h72v96h-72Z" fill="#beaed4"/><path aria-label="CityUK: Нью-Йорк; value: 3.9; category: Soda; order: 2" role="graphics-symbol" aria-roledescription="bar" d="M164,121.14285714285717h72v22.28571428571425h-72Z" fill="#7fc97f"/><path aria-label="CityUK: Нью-Йорк; value: 7.1; category: Vodka; order: 1" role="graphics-symbol" aria-roledescription="bar" d="M164,80.57142857142856h72v40.57142857142861h-72Z" fill="#386cb0"/><path aria-label="CityUK: Сінгапур; value: 19.4; category: Sandwich; order: 5" role="graphics-symbol" aria-roledescription="bar" d="M564,289.14285714285717h72v110.85714285714283h-72Z" fill="#fb9a99"/><path aria-label="CityUK: Сінгапур; value: 5.2; category: Water; order: 4" role="graphics-symbol" aria-roledescription="bar" d="M564,259.42857142857144h72v29.714285714285722h-72Z" fill="#fdc086"/><path aria-label="CityUK: Сінгапур; value: 14.8; category: Peanut; order: 3" role="graphics-symbol" aria-roledescription="bar" d="M564,174.85714285714286h72v84.57142857142858h-72Z" fill="#beaed4"/><path aria-label="CityUK: Сінгапур; value: 6.6; category: Soda; order: 2" role="graphics-symbol" aria-roledescription="bar" d="M564,137.14285714285714h72v37.71428571428572h-72Z" fill="#7fc97f"/><path aria-label="CityUK: Сінгапур; value: 6.2; category: Vodka; order: 1" role="graphics-symbol" aria-roledescription="bar" d="M564,101.7142857142857h72v35.428571428571445h-72Z" fill="#386cb0"/><path aria-label="CityUK: Торонто; value: 20.8; category: Sandwich; order: 5" role="graphics-symbol" aria-roledescription="bar" d="M644,281.1428571428571h72v118.85714285714289h-72Z" fill="#fb9a99"/><path aria-label="CityUK: Торонто; value: 5.4; category: Water; order: 4" role="graphics-symbol" aria-roledescription="bar" d="M644,250.28571428571428h72v30.857142857142833h-72Z" fill="#fdc086"/><path aria-label="CityUK: Торонто; value: 18.2; category: Peanut; order: 3" role="graphics-symbol" aria-roledescription="bar" d="M644,146.28571428571428h72v104h-72Z" fill="#beaed4"/><path aria-label="CityUK: Торонто; value: 3.4; category: Soda; order: 2" role="graphics-symbol" aria-roledescription="bar" d="M644,126.85714285714282h72v19.42857142857146h-72Z" fill="#7fc97f"/><path aria-label="CityUK: Торонто; value: 8; category: Vodka; order: 1" role="graphics-symbol" aria-roledescription="bar" d="M644,81.14285714285714h72v45.71428571428568h-72Z" fill="#386cb0"/><path aria-label="CityUK: Копенгаген; value: 24.3; category: Sandwich; order: 5" role="graphics-symbol" aria-roledescription="bar" d="M84,261.1428571428571h72v138.8571428571429h-72Z" fill="#fb9a99"/><path aria-label="CityUK: Копенгаген; value: 2.8; category: Water; order: 4" role="graphics-symbol" aria-roledescription="bar" d="M84,245.1428571428571h72v16h-72Z" fill="#fdc086"/><path aria-label="CityUK: Копенгаген; value: 10.8; category: Peanut; order: 3" role="graphics-symbol" aria-roledescription="bar" d="M84,183.42857142857142h72v61.714285714285694h-72Z" fill="#beaed4"/><path aria-label="CityUK: Копенгаген; value: 5; category: Soda; order: 2" role="graphics-symbol" aria-roledescription="bar" d="M84,154.8571428571428h72v28.571428571428612h-72Z" fill="#7fc97f"/><path aria-label="CityUK: Копенгаген; value: 3.7; category: Vodka; order: 1" role="graphics-symbol" aria-roledescription="bar" d="M84,133.71428571428567h72v21.14285714285714h-72Z" fill="#386cb0"/></g><g class="mark-group role-legend" role="graphics-symbol" aria-roledescription="legend" aria-label="Symbol legend for fill color with 5 values: Vodka, Soda, Peanut, Water, Sandwich"><g transform="translate(818,0)"><path class="background" aria-hidden="true" d="M0,0h85v63h-85Z" pointer-events="none"/><g><g class="mark-group role-legend-entry"><g transform="translate(0,0)"><path class="background" aria-hidden="true" d="M0,0h0v0h0Z" pointer-events="none"/><g><g class="mark-group role-scope" role="graphics-object" aria-roledescription="group mark container"><g transform="translate(0,0)"><path class="background" aria-hidden="true" d="M0,0h84.916015625v11h-84.916015625Z" pointer-events="none" opacity="1"/><g><g class="mark-symbol role-legend-symbol" pointer-events="none"><path transform="translate(6,6)" d="M-5,-5h10v10h-10Z" fill="#386cb0" stroke-width="1.5" opacity="1"/></g><g class="mark-text role-legend-label" pointer-events="none"><text text-anchor="start" transform="translate(16,9)" font-family="sans-serif" font-size="10px" fill="#000" opacity="1">Горілка</text></g></g><path class="foreground" aria-hidden="true" d="" pointer-events="none" display="none"/></g><g transform="translate(0,13)"><path class="background" aria-hidden="true" d="M0,0h84.916015625v11h-84.916015625Z" pointer-events="none" opacity="1"/><g><g class="mark-symbol role-legend-symbol" pointer-events="none"><path transform="translate(6,6)" d="M-5,-5h10v10h-10Z" fill="#7fc97f" stroke-width="1.5" opacity="1"/></g><g class="mark-text role-legend-label" pointer-events="none"><text text-anchor="start" transform="translate(16,9)" font-family="sans-serif" font-size="10px" fill="#000" opacity="1">Газована вода</text></g></g><path class="foreground" aria-hidden="true" d="" pointer-events="none" display="none"/></g><g transform="translate(0,26)"><path class="background" aria-hidden="true" d="M0,0h84.916015625v11h-84.916015625Z" pointer-events="none" opacity="1"/><g><g class="mark-symbol role-legend-symbol" pointer-events="none"><path transform="translate(6,6)" d="M-5,-5h10v10h-10Z" fill="#beaed4" stroke-width="1.5" opacity="1"/></g><g class="mark-text role-legend-label" pointer-events="none"><text text-anchor="start" transform="translate(16,9)" font-family="sans-serif" font-size="10px" fill="#000" opacity="1">Арахіс</text></g></g><path class="foreground" aria-hidden="true" d="" pointer-events="none" display="none"/></g><g transform="translate(0,39)"><path class="background" aria-hidden="true" d="M0,0h84.916015625v11h-84.916015625Z" pointer-events="none" opacity="1"/><g><g class="mark-symbol role-legend-symbol" pointer-events="none"><path transform="translate(6,6)" d="M-5,-5h10v10h-10Z" fill="#fdc086" stroke-width="1.5" opacity="1"/></g><g class="mark-text role-legend-label" pointer-events="none"><text text-anchor="start" transform="translate(16,9)" font-family="sans-serif" font-size="10px" fill="#000" opacity="1">Вода</text></g></g><path class="foreground" aria-hidden="true" d="" pointer-events="none" display="none"/></g><g transform="translate(0,52)"><path class="background" aria-hidden="true" d="M0,0h84.916015625v11h-84.916015625Z" pointer-events="none" opacity="1"/><g><g class="mark-symbol role-legend-symbol" pointer-events="none"><path transform="translate(6,6)" d="M-5,-5h10v10h-10Z" fill="#fb9a99" stroke-width="1.5" opacity="1"/></g><g class="mark-text role-legend-label" pointer-events="none"><text text-anchor="start" transform="translate(16,9)" font-family="sans-serif" font-size="10px" fill="#000" opacity="1">Сендвіч</text></g></g><path class="foreground" aria-hidden="true" d="" pointer-events="none" display="none"/></g></g></g><path class="foreground" aria-hidden="true" d="" pointer-events="none" display="none"/></g></g></g><path class="foreground" aria-hidden="true" d="" pointer-events="none" display="none"/></g></g><g class="mark-group role-title"><g transform="translate(400,-22)"><path class="background" aria-hidden="true" d="M0,0h0v0h0Z" pointer-events="none"/><g><g class="mark-text role-title-text" role="graphics-symbol" aria-roledescription="title" aria-label="Title text 'Ціни на обслуговування в номері'" pointer-events="none"><text text-anchor="middle" transform="translate(0,10)" font-family="sans-serif" font-size="13px" font-weight="bold" fill="#000" opacity="1">Ціни на обслуговування в номері</text></g></g><path class="foreground" aria-hidden="true" d="" pointer-events="none" display="none"/></g></g></g><path class="foreground" aria-hidden="true" d="" display="none"/></g></g></g></svg>