<svg xmlns="http://www.w3.org/2000/svg" xmlns:xlink="http://www.w3.org/1999/xlink" version="1.1" class="marks" width="950" height="469" viewBox="0 0 950 469"><rect width="950" height="469" fill="white"/><g fill="none" stroke-miterlimit="10" transform="translate(63,31)"><g class="mark-group role-frame root" role="graphics-object" aria-roledescription="group mark container"><g transform="translate(0,0)"><path class="background" aria-hidden="true" d="M0,0h800v400h-800Z"/><g><g class="mark-group role-axis" aria-hidden="true"><g transform="translate(0.5,400.5)"><path class="background" aria-hidden="true" d="M0,0h0v0h0Z" pointer-events="none"/><g><g class="mark-rule role-axis-grid" pointer-events="none"><line transform="translate(0,-400)" x2="0" y2="400" stroke="#ddd" stroke-opacity="0.5" stroke-width="1" opacity="1"/><line transform="translate(32,-400)" x2="0" y2="400" stroke="#ddd" stroke-opacity="0.5" stroke-width="1" opacity="1"/><line transform="translate(64,-400)" x2="0" y2="400" stroke="#ddd" stroke-opacity="0.5" stroke-width="1" opacity="1"/><line transform="translate(96,-400)" x2="0" y2="400" stroke="#ddd" stroke-opacity="0.5" stroke-width="1" opacity="1"/><line transform="translate(128,-400)" x2="0" y2="400" stroke="#ddd" stroke-opacity="0.5" stroke-width="1" opacity="1"/><line transform="translate(160,-400)" x2="0" y2="400" stroke="#ddd" stroke-opacity="0.5" stroke-width="1" opacity="1"/><line transform="translate(192,-400)" x2="0" y2="400" stroke="#ddd" stroke-opacity="0.5" stroke-width="1" opacity="1"/><line transform="translate(224,-400)" x2="0" y2="400" stroke="#ddd" stroke-opacity="0.5" stroke-width="1" opacity="1"/><line transform="translate(256,-400)" x2="0" y2="400" stroke="#ddd" stroke-opacity="0.5" stroke-width="1" opacity="1"/><line transform="translate(288,-400)" x2="0" y2="400" stroke="#ddd" stroke-opacity="0.5" stroke-width="1" opacity="1"/><line transform="translate(320,-400)" x2="0" y2="400" stroke="#ddd" stroke-opacity="0.5" stroke-width="1" opacity="1"/><line transform="translate(352,-400)" x2="0" y2="400" stroke="#ddd" stroke-opacity="0.5" stroke-width="1" opacity="1"/><line transform="translate(384,-400)" x2="0" y2="400" stroke="#ddd" stroke-opacity="0.5" stroke-width="1" opacity="1"/><line transform="translate(416,-400)" x2="0" y2="400" stroke="#ddd" stroke-opacity="0.5" stroke-width="1" opacity="1"/><line transform="translate(448,-400)" x2="0" y2="400" stroke="#ddd" stroke-opacity="0.5" stroke-width="1" opacity="1"/><line transform="translate(480,-400)" x2="0" y2="400" stroke="#ddd" stroke-opacity="0.5" stroke-width="1" opacity="1"/><line transform="translate(512,-400)" x2="0" y2="400" stroke="#ddd" stroke-opacity="0.5" stroke-width="1" opacity="1"/><line transform="translate(544,-400)" x2="0" y2="400" stroke="#ddd" stroke-opacity="0.5" stroke-width="1" opacity="1"/><line transform="translate(576,-400)" x2="0" y2="400" stroke="#ddd" stroke-opacity="0.5" stroke-width="1" opacity="1"/><line transform="translate(608,-400)" x2="0" y2="400" stroke="#ddd" stroke-opacity="0.5" stroke-width="1" opacity="1"/><line transform="translate(640,-400)" x2="0" y2="400" stroke="#ddd" stroke-opacity="0.5" stroke-width="1" opacity="1"/><line transform="translate(672,-400)" x2="0" y2="400" stroke="#ddd" stroke-opacity="0.5" stroke-width="1" opacity="1"/><line transform="translate(704,-400)" x2="0" y2="400" stroke="#ddd" stroke-opacity="0.5" stroke-width="1" opacity="1"/><line transform="translate(736,-400)" x2="0" y2="400" stroke="#ddd" stroke-opacity="0.5" stroke-width="1" opacity="1"/><line transform="translate(768,-400)" x2="0" y2="400" stroke="#ddd" stroke-opacity="0.5" stroke-width="1" opacity="1"/><line transform="translate(800,-400)" x2="0" y2="400" stroke="#ddd" stroke-opacity="0.5" stroke-width="1" opacity="1"/></g></g><path class="foreground" aria-hidden="true" d="" pointer-events="none" display="none"/></g></g><g class="mark-group role-axis" aria-hidden="true"><g transform="translate(0.5,0.5)"><path class="background" aria-hidden="true" d="M0,0h0v0h0Z" pointer-events="none"/><g><g class="mark-rule role-axis-grid" pointer-events="none"><line transform="translate(0,400)" x2="800" y2="0" stroke="#ddd" stroke-opacity="0.5" stroke-width="1" opacity="1"/><line transform="translate(0,350)" x2="800" y2="0" stroke="#ddd" stroke-opacity="0.5" stroke-width="1" opacity="1"/><line transform="translate(0,300)" x2="800" y2="0" stroke="#ddd" stroke-opacity="0.5" stroke-width="1" opacity="1"/><line transform="translate(0,250)" x2="800" y2="0" stroke="#ddd" stroke-opacity="0.5" stroke-width="1" opacity="1"/><line transform="translate(0,200)" x2="800" y2="0" stroke="#ddd" stroke-opacity="0.5" stroke-width="1" opacity="1"/><line transform="translate(0,150)" x2="800" y2="0" stroke="#ddd" stroke-opacity="0.5" stroke-width="1" opacity="1"/><line transform="translate(0,100)" x2="800" y2="0" stroke="#ddd" stroke-opacity="0.5" stroke-width="1" opacity="1"/><line transform="translate(0,50)" x2="800" y2="0" stroke="#ddd" stroke-opacity="0.5" stroke-width="1" opacity="1"/><line transform="translate(0,0)" x2="800" y2="0" stroke="#ddd" stroke-opacity="0.5" stroke-width="1" opacity="1"/></g></g><path class="foreground" aria-hidden="true" d="" pointer-events="none" display="none"/></g></g><g class="mark-group role-axis" role="graphics-symbol" aria-roledescription="axis" aria-label="X-axis titled 'Рік' for a linear scale with values from 2,009 to 2,014"><g transform="translate(0.5,400.5)"><path class="background" aria-hidden="true" d="M0,0h0v0h0Z" pointer-events="none"/><g><g class="mark-rule role-axis-tick" pointer-events="none"><line transform="translate(0,0)" x2="0" y2="5" stroke="#888" stroke-width="1" opacity="1"/><line transform="translate(32,0)" x2="0" y2="5" stroke="#888" stroke-width="1" opacity="1"/><line transform="translate(64,0)" x2="0" y2="5" stroke="#888" stroke-width="1" opacity="1"/><line transform="translate(96,0)" x2="0" y2="5" stroke="#888" stroke-width="1" opacity="1"/><line transform="translate(128,0)" x2="0" y2="5" stroke="#888" stroke-width="1" opacity="1"/><line transform="translate(160,0)" x2="0" y2="5" stroke="#888" stroke-width="1" opacity="1"/><line transform="translate(192,0)" x2="0" y2="5" stroke="#888" stroke-width="1" opacity="1"/><line transform="translate(224,0)" x2="0" y2="5" stroke="#888" stroke-width="1" opacity="1"/><line transform="translate(256,0)" x2="0" y2="5" stroke="#888" stroke-width="1" opacity="1"/><line transform="translate(288,0)" x2="0" y2="5" stroke="#888" stroke-width="1" opacity="1"/><line transform="translate(320,0)" x2="0" y2="5" stroke="#888" stroke-width="1" opacity="1"/><line transform="translate(352,0)" x2="0" y2="5" stroke="#888" stroke-width="1" opacity="1"/><line transform="translate(384,0)" x2="0" y2="5" stroke="#888" stroke-width="1" opacity="1"/><line transform="translate(416,0)" x2="0" y2="5" stroke="#888" stroke-width="1" opacity="1"/><line transform="translate(448,0)" x2="0" y2="5" stroke="#888" stroke-width="1" opacity="1"/><line transform="translate(480,0)" x2="0" y2="5" stroke="#888" stroke-width="1" opacity="1"/><line transform="translate(512,0)" x2="0" y2="5" stroke="#888" stroke-width="1" opacity="1"/><line transform="translate(544,0)" x2="0" y2="5" stroke="#888" stroke-width="1" opacity="1"/><line transform="translate(576,0)" x2="0" y2="5" stroke="#888" stroke-width="1" opacity="1"/><line transform="translate(608,0)" x2="0" y2="5" stroke="#888" stroke-width="1" opacity="1"/><line transform="translate(640,0)" x2="0" y2="5" stroke="#888" stroke-width="1" opacity="1"/><line transform="translate(672,0)" x2="0" y2="5" stroke="#888" stroke-width="1" opacity="1"/><line transform="translate(704,0)" x2="0" y2="5" stroke="#888" stroke-width="1" opacity="1"/><line transform="translate(736,0)" x2="0" y2="5" stroke="#888" stroke-width="1" opacity="1"/><line transform="translate(768,0)" x2="0" y2="5" stroke="#888" stroke-width="1" opacity="1"/><line transform="translate(800,0)" x2="0" y2="5" stroke="#888" stroke-width="1" opacity="1"/></g><g class="mark-text role-axis-label" pointer-events="none"><text text-anchor="start" transform="translate(0,16)" font-family="sans-serif" font-size="11px" fill="#000" opacity="1">2,009.0</text><text text-anchor="middle" transform="translate(32.000000000007276,16)" font-family="sans-serif" font-size="11px" fill="#000" opacity="0">2,009.2</text><text text-anchor="middle" transform="translate(64.00000000001455,16)" font-family="sans-serif" font-size="11px" fill="#000" opacity="1">2,009.4</text><text text-anchor="middle" transform="translate(95.99999999998545,16)" font-family="sans-serif" font-size="11px" fill="#000" opacity="0">2,009.6</text><text text-anchor="middle" transform="translate(127.99999999999272,16)" font-family="sans-serif" font-size="11px" fill="#000" opacity="1">2,009.8</text><text text-anchor="middle" transform="translate(160,16)" font-family="sans-serif" font-size="11px" fill="#000" opacity="0">2,010.0</text><text text-anchor="middle" transform="translate(192.00000000000728,16)" font-family="sans-serif" font-size="11px" fill="#000" opacity="1">2,010.2</text><text text-anchor="middle" transform="translate(224.00000000001455,16)" font-family="sans-serif" font-size="11px" fill="#000" opacity="0">2,010.4</text><text text-anchor="middle" transform="translate(255.99999999998545,16)" font-family="sans-serif" font-size="11px" fill="#000" opacity="1">2,010.6</text><text text-anchor="middle" transform="translate(287.9999999999927,16)" font-family="sans-serif" font-size="11px" fill="#000" opacity="0">2,010.8</text><text text-anchor="middle" transform="translate(320,16)" font-family="sans-serif" font-size="11px" fill="#000" opacity="1">2,011.0</text><text text-anchor="middle" transform="translate(352.0000000000073,16)" font-family="sans-serif" font-size="11px" fill="#000" opacity="0">2,011.2</text><text text-anchor="middle" transform="translate(384.00000000001455,16)" font-family="sans-serif" font-size="11px" fill="#000" opacity="1">2,011.4</text><text text-anchor="middle" transform="translate(415.99999999998545,16)" font-family="sans-serif" font-size="11px" fill="#000" opacity="0">2,011.6</text><text text-anchor="middle" transform="translate(447.9999999999928,16)" font-family="sans-serif" font-size="11px" fill="#000" opacity="1">2,011.8</text><text text-anchor="middle" transform="translate(480,16)" font-family="sans-serif" font-size="11px" fill="#000" opacity="0">2,012.0</text><text text-anchor="middle" transform="translate(512.0000000000073,16)" font-family="sans-serif" font-size="11px" fill="#000" opacity="1">2,012.2</text><text text-anchor="middle" transform="translate(544.0000000000146,16)" font-family="sans-serif" font-size="11px" fill="#000" opacity="0">2,012.4</text><text text-anchor="middle" transform="translate(575.9999999999854,16)" font-family="sans-serif" font-size="11px" fill="#000" opacity="1">2,012.6</text><text text-anchor="middle" transform="translate(607.9999999999927,16)" font-family="sans-serif" font-size="11px" fill="#000" opacity="0">2,012.8</text><text text-anchor="middle" transform="translate(640,16)" font-family="sans-serif" font-size="11px" fill="#000" opacity="1">2,013.0</text><text text-anchor="middle" transform="translate(672.0000000000073,16)" font-family="sans-serif" font-size="11px" fill="#000" opacity="0">2,013.2</text><text text-anchor="middle" transform="translate(704.0000000000146,16)" font-family="sans-serif" font-size="11px" fill="#000" opacity="1">2,013.4</text><text text-anchor="middle" transform="translate(735.9999999999854,16)" font-family="sans-serif" font-size="11px" fill="#000" opacity="0">2,013.6</text><text text-anchor="middle" transform="translate(767.9999999999927,16)" font-family="sans-serif" font-size="11px" fill="#000" opacity="1">2,013.8</text><text text-anchor="end" transform="translate(800,16)" font-family="sans-serif" font-size="11px" fill="#000" opacity="0">2,014.0</text></g><g class="mark-rule role-axis-domain" pointer-events="none"><line transform="translate(0,0)" x2="800" y2="0" stroke="#888" stroke-width="1" opacity="1"/></g><g class="mark-text role-axis-title" pointer-events="none"><text text-anchor="middle" transform="translate(400,31)" font-family="sans-serif" font-size="12px" font-weight="bold" fill="#000" opacity="1">Рік</text></g></g><path class="foreground" aria-hidden="true" d="" pointer-events="none" display="none"/></g></g><g class="mark-group role-axis" role="graphics-symbol" aria-roledescription="axis" aria-label="Y-axis titled 'Кількість тонн' for a linear scale with values from 0 to 16,000"><g transform="translate(0.5,0.5)"><path class="background" aria-hidden="true" d="M0,0h0v0h0Z" pointer-events="none"/><g><g class="mark-rule role-axis-tick" pointer-events="none"><line transform="translate(0,400)" x2="-5" y2="0" stroke="#888" stroke-width="1" opacity="1"/><line transform="translate(0,350)" x2="-5" y2="0" stroke="#888" stroke-width="1" opacity="1"/><line transform="translate(0,300)" x2="-5" y2="0" stroke="#888" stroke-width="1" opacity="1"/><line transform="translate(0,250)" x2="-5" y2="0" stroke="#888" stroke-width="1" opacity="1"/><line transform="translate(0,200)" x2="-5" y2="0" stroke="#888" stroke-width="1" opacity="1"/><line transform="translate(0,150)" x2="-5" y2="0" stroke="#888" stroke-width="1" opacity="1"/><line transform="translate(0,100)" x2="-5" y2="0" stroke="#888" stroke-width="1" opacity="1"/><line transform="translate(0,50)" x2="-5" y2="0" stroke="#888" stroke-width="1" opacity="1"/><line transform="translate(0,0)" x2="-5" y2="0" stroke="#888" stroke-width="1" opacity="1"/></g><g class="mark-text role-axis-label" pointer-events="none"><text text-anchor="end" transform="translate(-7,403)" font-family="sans-serif" font-size="11px" fill="#000" opacity="1">0</text><text text-anchor="end" transform="translate(-7,353)" font-family="sans-serif" font-size="11px" fill="#000" opacity="1">2,000</text><text text-anchor="end" transform="translate(-7,303)" font-family="sans-serif" font-size="11px" fill="#000" opacity="1">4,000</text><text text-anchor="end" transform="translate(-7,253)" font-family="sans-serif" font-size="11px" fill="#000" opacity="1">6,000</text><text text-anchor="end" transform="translate(-7,203)" font-family="sans-serif" font-size="11px" fill="#000" opacity="1">8,000</text><text text-anchor="end" transform="translate(-7,153)" font-family="sans-serif" font-size="11px" fill="#000" opacity="1">10,000</text><text text-anchor="end" transform="translate(-7,103)" font-family="sans-serif" font-size="11px" fill="#000" opacity="1">12,000</text><text text-anchor="end" transform="translate(-7,53)" font-family="sans-serif" font-size="11px" fill="#000" opacity="1">14,000</text><text text-anchor="end" transform="translate(-7,3)" font-family="sans-serif" font-size="11px" fill="#000" opacity="1">16,000</text></g><g class="mark-rule role-axis-domain" pointer-events="none"><line transform="translate(0,400)" x2="0" y2="-400" stroke="#888" stroke-width="1" opacity="1"/></g><g class="mark-text role-axis-title" pointer-events="none"><text text-anchor="middle" transform="translate(-44.64453125,200) rotate(-90) translate(0,-3)" font-family="sans-serif" font-size="12px" font-weight="bold" fill="#000" opacity="1">Кількість тонн</text></g></g><path class="foreground" aria-hidden="true" d="" pointer-events="none" display="none"/></g></g><g class="mark-group role-scope layer_0_pathgroup" role="graphics-object" aria-roledescription="group mark container"><g transform="translate(0,0)"><path class="background" aria-hidden="true" d="M0,0h800v400h-800Z"/><g><g class="mark-area role-mark layer_0_marks" role="graphics-object" aria-roledescription="area mark container"><path aria-label="Year: 2009; value: 3625; name: Липовий" role="graphics-symbol" aria-roledescription="area mark" d="M0,309.375L160,294.325L320,273.65L480,223.475L640,260.75L800,266.825L800,400L640,400L480,400L320,400L160,400L0,400Z" fill="#3182bd" opacity="0.7"/></g></g><path class="foreground" aria-hidden="true" d="" display="none"/></g><g transform="translate(0,0)"><path class="background" aria-hidden="true" d="M0,0h800v400h-800Z"/><g><g class="mark-area role-mark layer_0_marks" role="graphics-object" aria-roledescription="area mark container"><path aria-label="Year: 2009; value: 1908; name: Гречаний" role="graphics-symbol" aria-roledescription="area mark" d="M0,261.675L160,234.725L320,202.425L480,135.95L640,172.6L800,166.525L800,266.825L640,260.75L480,223.475L320,273.65L160,294.325L0,309.375Z" fill="#9ecae1" opacity="0.7"/></g></g><path class="foreground" aria-hidden="true" d="" display="none"/></g><g transform="translate(0,0)"><path class="background" aria-hidden="true" d="M0,0h800v400h-800Z"/><g><g class="mark-area role-mark layer_0_marks" role="graphics-object" aria-roledescription="area mark container"><path aria-label="Year: 2009; value: 5201; name: Акацієвий" role="graphics-symbol" aria-roledescription="area mark" d="M0,131.65L160,102.75L320,78.975L480,21.325L640,57.65L800,48.425L800,166.525L640,172.6L480,135.95L320,202.425L160,234.725L0,261.675Z" fill="#deebf7" opacity="0.7"/></g></g><path class="foreground" aria-hidden="true" d="" display="none"/></g></g><g class="mark-group role-legend" role="graphics-symbol" aria-roledescription="legend" aria-label="Symbol legend for fill color with 3 values: Липовий, Гречаний, Акацієвий"><g transform="translate(818,0)"><path class="background" aria-hidden="true" d="M0,0h64v37h-64Z" pointer-events="none"/><g><g class="mark-group role-legend-entry"><g transform="translate(0,0)"><path class="background" aria-hidden="true" d="M0,0h0v0h0Z" pointer-events="none"/><g><g class="mark-group role-scope" role="graphics-object" aria-roledescription="group mark container"><g transform="translate(0,0)"><path class="background" aria-hidden="true" d="M0,0h63.900390625v11h-63.900390625Z" pointer-events="none" opacity="1"/><g><g class="mark-symbol role-legend-symbol" pointer-events="none"><path transform="translate(6,6)" d="M5,0A5,5,0,1,1,-5,0A5,5,0,1,1,5,0" fill="#3182bd" stroke-width="1.5" opacity="0.7"/></g><g class="mark-text role-legend-label" pointer-events="none"><text text-anchor="start" transform="translate(16,9)" font-family="sans-serif" font-size="10px" fill="#000" opacity="1">Липовий</text></g></g><path class="foreground" aria-hidden="true" d="" pointer-events="none" display="none"/></g><g transform="translate(0,13)"><path class="background" aria-hidden="true" d="M0,0h63.900390625v11h-63.900390625Z" pointer-events="none" opacity="1"/><g><g class="mark-symbol role-legend-symbol" pointer-events="none"><path transform="translate(6,6)" d="M5,0A5,5,0,1,1,-5,0A5,5,0,1,1,5,0" fill="#9ecae1" stroke-width="1.5" opacity="0.7"/></g><g class="mark-text role-legend-label" pointer-events="none"><text text-anchor="start" transform="translate(16,9)" font-family="sans-serif" font-size="10px" fill="#000" opacity="1">Гречаний</text></g></g><path class="foreground" aria-hidden="true" d="" pointer-events="none" display="none"/></g><g transform="translate(0,26)"><path class="background" aria-hidden="true" d="M0,0h63.900390625v11h-63.900390625Z" pointer-events="none" opacity="1"/><g><g class="mark-symbol role-legend-symbol" pointer-events="none"><path transform="translate(6,6)" d="M5,0A5,5,0,1,1,-5,0A5,5,0,1,1,5,0" fill="#deebf7" stroke-width="1.5" opacity="0.7"/></g><g class="mark-text role-legend-label" pointer-events="none"><text text-anchor="start" transform="translate(16,9)" font-family="sans-serif" font-size="10px" fill="#000" opacity="1">Акацієвий</text></g></g><path class="foreground" aria-hidden="true" d="" pointer-events="none" display="none"/></g></g></g><path class="foreground" aria-hidden="true" d="" pointer-events="none" display="none"/></g></g></g><path class="foreground" aria-hidden="true" d="" pointer-events="none" display="none"/></g></g><g class="mark-group role-title"><g transform="translate(400,-26)"><path class="background" aria-hidden="true" d="M0,0h0v0h0Z" pointer-events="none"/><g><g class="mark-text role-title-text" role="graphics-symbol" aria-roledescription="title" aria-label="Title text 'Популярність виробництва сортів меду'" pointer-events="none"><text text-anchor="middle" transform="translate(0,13)" font-family="sans-serif" font-size="16px" font-weight="bold" fill="#000" opacity="1">Популярність виробництва сортів меду</text></g></g><path class="foreground" aria-hidden="true" d="" pointer-events="none" display="none"/></g></g></g><path class="foreground" aria-hidden="true" d="" display="none"/></g></g></g></svg>